<?xml version="1.0" encoding="UTF-8" standalone="no"?>
<svg width="781px" height="167px" viewBox="0 0 781 167" version="1.1" xmlns="http://www.w3.org/2000/svg" xmlns:xlink="http://www.w3.org/1999/xlink" xmlns:sketch="http://www.bohemiancoding.com/sketch/ns">
    <!-- Generator: Sketch 3.2.2 (9983) - http://www.bohemiancoding.com/sketch -->
    <title>cucumber-pro</title>
    <desc>Created with Sketch.</desc>
    <defs></defs>
    <g id="Logos" stroke="none" stroke-width="1" fill="none" fill-rule="evenodd" sketch:type="MSPage">
        <g id="Artboard-1" sketch:type="MSArtboardGroup" transform="translate(-32.000000, -40.000000)" fill="#FFFFFF">
            <g id="cucumber-pro" sketch:type="MSLayerGroup" transform="translate(32.000000, 40.000000)">
                <path d="M524.352108,85.8472222 C517.29488,85.8472222 512.825301,89.3680556 509.531928,94.7666667 C509.531928,93.3583333 510.237651,91.7152778 510.237651,90.5416667 L510.237651,88.1944444 L498.475602,88.1944444 L498.475602,146.875 L510.237651,146.875 L510.237651,113.075 C510.237651,103.451389 515.412952,97.5833333 524.352108,97.5833333 L526.704518,97.5833333 L526.704518,85.8472222 L524.352108,85.8472222 L524.352108,85.8472222 Z" id="path4750" sketch:type="MSShapeGroup"></path>
                <path d="M46.3424699,107.441667 C43.0490964,102.277778 38.3442771,98.7569444 31.5222892,98.7569444 C20.7012048,98.7569444 12.938253,106.972222 12.938253,117.3 C12.938253,127.627778 20.7012048,135.843056 31.5222892,135.843056 C38.3442771,135.843056 43.0490964,132.556944 46.3424699,127.393056 L57.1635542,133.730556 C51.988253,141.711111 42.3433735,147.579167 31.5222892,147.579167 C11.5268072,147.579167 7.10542736e-15,132.556944 7.10542736e-15,117.534722 C7.10542736e-15,102.5125 11.5268072,87.4902778 31.5222892,87.4902778 C43.7548193,87.4902778 51.5177711,93.3583333 57.1635542,101.338889 L46.3424699,107.441667 L46.3424699,107.441667 Z" id="path4752" sketch:type="MSShapeGroup"></path>
                <path d="M67.5141566,88.8986111 L79.7466867,88.8986111 L79.7466867,120.820833 C79.7466867,129.270833 85.8629518,135.138889 93.6259036,135.138889 C101.153614,135.138889 107.50512,129.036111 107.50512,120.820833 L107.50512,88.8986111 L119.737651,88.8986111 L119.737651,121.759722 C119.737651,137.720833 107.26988,147.344444 93.6259036,147.344444 C79.9819277,147.344444 67.5141566,137.720833 67.5141566,121.759722 L67.5141566,88.8986111 L67.5141566,88.8986111 Z" id="path4754" sketch:type="MSShapeGroup"></path>
                <path d="M176.901205,107.441667 C173.607831,102.277778 168.903012,98.7569444 162.081024,98.7569444 C151.25994,98.7569444 143.496988,106.972222 143.496988,117.3 C143.496988,127.627778 151.25994,135.843056 162.081024,135.843056 C168.903012,135.843056 173.607831,132.556944 176.901205,127.393056 L187.722289,133.730556 C182.546988,141.711111 172.902108,147.579167 162.081024,147.579167 C142.085542,147.579167 130.558735,132.556944 130.558735,117.534722 C130.558735,102.5125 142.085542,87.4902778 162.081024,87.4902778 C174.313554,87.4902778 182.076506,93.3583333 187.722289,101.338889 L176.901205,107.441667 L176.901205,107.441667 Z" id="path4756" sketch:type="MSShapeGroup"></path>
                <path d="M198.072892,88.8986111 L210.305422,88.8986111 L210.305422,120.820833 C210.305422,129.270833 216.421687,135.138889 224.184639,135.138889 C231.712349,135.138889 238.063855,129.036111 238.063855,120.820833 L238.063855,88.8986111 L250.296386,88.8986111 L250.296386,121.759722 C250.296386,137.720833 237.828614,147.344444 224.184639,147.344444 C210.540663,147.344444 198.072892,137.720833 198.072892,121.759722 L198.072892,88.8986111 L198.072892,88.8986111 Z" id="path4758" sketch:type="MSShapeGroup"></path>
                <path d="M265.587048,110.258333 C265.587048,95.7055556 275.231928,87.4902778 286.523494,87.4902778 C295.22741,87.4902778 301.343675,91.7152778 303.696084,97.5833333 L303.931325,97.5833333 C306.283735,91.4805556 312.4,87.4902778 321.103916,87.4902778 C332.395482,87.4902778 342.040361,95.9402778 342.040361,110.258333 L342.040361,145.936111 L329.337349,145.936111 L329.337349,110.258333 C329.337349,103.451389 325.103012,99.4611111 319.927711,99.4611111 C314.046687,99.4611111 309.812349,102.981944 309.812349,111.901389 L309.812349,145.701389 L297.579819,145.701389 L297.579819,111.901389 C297.579819,102.981944 293.345482,99.4611111 287.464458,99.4611111 C282.289157,99.4611111 278.054819,103.451389 278.054819,110.258333 L278.054819,145.701389 L265.822289,145.701389 L265.822289,110.258333 L265.587048,110.258333 Z" id="path4760" sketch:type="MSShapeGroup"></path>
                <path d="M357.095783,71.9986111 L369.328313,71.9986111 L369.328313,95.9402778 L369.563554,95.9402778 C372.386446,91.2458333 380.149398,87.4902778 388.14759,87.4902778 C402.967771,87.4902778 417.787952,98.5222222 417.787952,117.534722 C417.787952,136.547222 402.967771,147.579167 388.14759,147.579167 C380.149398,147.579167 372.386446,143.823611 369.563554,139.129167 L369.328313,139.129167 L369.328313,146.170833 L357.095783,146.170833 L357.095783,71.9986111 L357.095783,71.9986111 Z M387.206627,98.9916667 C377.091265,98.9916667 369.563554,106.972222 369.563554,117.534722 C369.563554,128.097222 377.091265,136.077778 387.206627,136.077778 C397.557229,136.077778 405.08494,128.097222 405.08494,117.534722 C404.849699,106.7375 397.321988,98.9916667 387.206627,98.9916667 L387.206627,98.9916667 Z" id="path4762" sketch:type="MSShapeGroup"></path>
                <path d="M483.655422,133.495833 C476.833434,142.180556 467.423795,147.344444 457.073193,147.344444 C437.077711,147.344444 425.550904,132.322222 425.550904,117.3 C425.550904,102.277778 437.077711,87.2555556 457.073193,87.2555556 C468.835241,87.2555556 486.713554,97.1138889 486.713554,119.177778 L486.713554,121.290278 L439.43012,121.290278 C440.135843,129.975 448.369277,136.3125 456.837952,136.3125 C463.424699,136.3125 469.070482,133.026389 473.304819,127.393056 L483.655422,133.495833 L483.655422,133.495833 Z M472.363855,111.431944 C469.776205,102.747222 463.424699,98.0527778 455.426506,98.0527778 C447.663554,98.0527778 441.312048,102.981944 439.19488,111.431944 L472.363855,111.431944 L472.363855,111.431944 Z" id="path4764" sketch:type="MSShapeGroup"></path>
                <path d="M560.361972,0.13555325 C539.07141,0.13555325 521.841264,17.327704 521.841264,38.5713171 C521.841264,57.2750119 535.278342,72.8158998 553.010692,76.2735741 L553.010692,87.2761783 C576.064527,83.8081527 596.477306,65.5482496 598.000526,41.5786956 C598.917378,27.1510318 591.707936,12.4221309 579.548813,5.27010186 C578.852653,4.86061885 578.145356,4.45410789 577.416942,4.09649075 C576.674719,3.73209436 575.91255,3.37694602 575.138045,3.06958103 C574.892195,2.9669647 574.651298,2.87387527 574.402917,2.77617825 C573.726465,2.52701709 573.043899,2.24644259 572.344558,2.04267131 C568.575229,0.803042457 564.545874,0.13555325 560.361972,0.13555325 L560.361972,0.13555325 Z M568.301354,14.365588 C566.983638,14.2308058 565.596083,14.688331 564.625714,15.8326019 C563.919991,16.7714908 563.478915,17.6810394 563.008433,18.6199283 C561.596987,21.9060394 562.067469,25.4268727 564.184638,28.0088171 C567.478011,27.3046505 570.271497,25.2068206 571.682943,21.9207095 C572.153425,20.9818206 572.418071,19.7788692 572.418071,18.8399803 C572.565097,16.3460567 570.49755,14.5902244 568.301354,14.365588 L568.301354,14.365588 Z M551.172872,14.5856401 C549.024919,14.7896468 546.982642,16.4927581 546.982642,18.8399803 C546.982642,19.7788692 547.247288,20.9818206 547.71777,21.9207095 C549.129216,25.2068206 552.143241,27.3046505 555.436614,28.0088171 C557.318542,25.4268727 557.803726,21.9060394 556.392281,18.6199283 C555.921799,17.6810394 555.480722,16.7568206 554.774999,16.0526539 C553.80463,14.9083831 552.461644,14.4632362 551.172872,14.5856401 L551.172872,14.5856401 Z M539.631362,25.881647 C535.921837,26.0716077 534.264927,30.7227928 537.352465,33.1433658 C538.293429,33.8475324 539.204988,34.3609873 540.145952,34.8304317 C543.439325,36.2387651 547.247288,35.7546505 550.07018,33.8768727 C549.364457,30.8254838 546.967939,28.0234873 543.674566,26.6151539 C542.498361,26.1457095 541.542695,25.881647 540.36649,25.881647 C540.101844,25.8523067 539.878664,25.868972 539.631362,25.881647 L539.631362,25.881647 Z M575.873173,40.1116817 C573.718328,40.0704176 571.535918,40.6984873 569.77161,41.8720984 C570.477333,44.9234873 572.873851,47.7254838 576.167224,49.1338171 C577.343429,49.6032616 578.299095,49.8673241 579.4753,49.8673241 C583.709637,50.1020463 585.782698,44.8794769 582.489325,42.5322546 C581.548361,41.828088 580.636802,41.3879838 579.695839,40.9185394 C578.460823,40.3904144 577.166078,40.1364379 575.873173,40.1116817 L575.873173,40.1116817 Z M543.748079,40.3317338 C542.455172,40.356497 541.160428,40.6104664 539.925413,41.1385914 C538.749208,41.6080359 537.83765,42.1214908 537.131927,42.8256574 C534.073794,45.4076019 536.132153,50.3220984 540.36649,50.0873762 C541.542695,50.0873762 542.733602,49.8233137 543.674566,49.3538692 C546.967939,47.9455359 549.305647,45.1435394 549.776128,42.0921505 C548.011821,40.9185394 545.902924,40.2904743 543.748079,40.3317338 L543.748079,40.3317338 Z M555.657153,47.5201019 C552.363779,48.2242685 549.570293,50.3220984 548.158847,53.6082095 C547.688365,54.5470984 547.423719,55.6766991 547.423719,56.615588 C547.188478,60.6058658 552.643128,62.747706 554.995537,59.6963171 C555.70126,58.7574283 556.142337,57.8478796 556.612819,56.9089908 C558.024265,53.8576019 557.53908,50.3367685 555.657153,47.5201019 L555.657153,47.5201019 Z M564.405176,47.7401539 C562.523248,50.3220984 562.038064,53.8429317 563.449509,57.1290428 C563.919991,58.0679317 564.361068,58.9921505 565.066791,59.6963171 C567.654442,62.5129838 573.094389,60.4298241 572.859148,56.9089908 C572.859148,55.9701019 572.594502,54.7671505 572.12402,53.8282616 C570.712574,50.5421505 567.698549,48.4443206 564.405176,47.7401539 L564.405176,47.7401539 Z" id="rect4005" sketch:type="MSShapeGroup"></path>
                <path d="M627.622892,96.6444444 L627.858133,96.6444444 C632.327711,91.2458333 638.914458,88.1944444 646.67741,88.1944444 C665.496687,88.1944444 676.317771,103.451389 676.317771,118.238889 C676.317771,132.322222 664.555723,148.283333 646.206928,148.283333 C637.738253,148.283333 631.151506,144.7625 628.093373,139.833333 L627.858133,139.833333 L627.858133,166.356944 L615.625602,166.356944 L615.625602,89.6027778 L627.858133,89.6027778 L627.858133,96.6444444 L627.622892,96.6444444 Z M645.030723,99.6958333 C635.385843,99.6958333 627.15241,107.911111 627.15241,118.238889 C627.15241,128.566667 635.385843,136.781944 645.030723,136.781944 C654.910843,136.781944 663.144277,128.566667 663.144277,118.238889 C663.144277,107.911111 654.910843,99.6958333 645.030723,99.6958333 L645.030723,99.6958333 Z" id="path4768" sketch:type="MSShapeGroup"></path>
                <path d="M749.477711,88.1944444 C769.473193,88.1944444 781,103.216667 781,118.238889 C781,133.261111 769.473193,148.283333 749.477711,148.283333 C729.482229,148.283333 717.955422,133.261111 717.955422,118.238889 C717.955422,103.216667 729.71747,88.1944444 749.477711,88.1944444 L749.477711,88.1944444 Z M749.477711,136.547222 C760.298795,136.547222 768.061747,128.331944 768.061747,118.004167 C768.061747,107.676389 760.298795,99.4611111 749.477711,99.4611111 C738.656627,99.4611111 730.893675,107.676389 730.893675,118.004167 C731.128916,128.331944 738.891867,136.547222 749.477711,136.547222 L749.477711,136.547222 Z" id="path4770" sketch:type="MSShapeGroup"></path>
                <path d="M712.54488,85.8472222 C705.487651,85.8472222 701.018072,89.3680556 697.724699,94.7666667 C697.724699,93.3583333 698.430422,91.7152778 698.430422,90.5416667 L698.430422,88.1944444 L686.668373,88.1944444 L686.668373,146.875 L698.430422,146.875 L698.430422,113.075 C698.430422,103.451389 703.605723,97.5833333 712.54488,97.5833333 L714.897289,97.5833333 L714.897289,85.8472222 L712.54488,85.8472222 L712.54488,85.8472222 Z" id="path4772" sketch:type="MSShapeGroup"></path>
            </g>
        </g>
    </g>
</svg>