<?xml version="1.0" encoding="UTF-8" standalone="no"?>
<svg width="224px" height="235px" viewBox="0 0 224 235" version="1.1" xmlns="http://www.w3.org/2000/svg" xmlns:xlink="http://www.w3.org/1999/xlink" xmlns:sketch="http://www.bohemiancoding.com/sketch/ns">
    <!-- Generator: Sketch 3.3.3 (12072) - http://www.bohemiancoding.com/sketch -->
    <title>Community</title>
    <desc>Created with Sketch.</desc>
    <defs></defs>
    <g id="Homepage" stroke="none" stroke-width="1" fill="none" fill-rule="evenodd" sketch:type="MSPage">
        <g id="cucumber-homepage" sketch:type="MSArtboardGroup" transform="translate(-599.000000, -713.000000)">
            <g id="Community" sketch:type="MSLayerGroup" transform="translate(553.000000, 713.000000)">
                <circle id="Oval-13-Copy" opacity="0.350000024" fill="#FFFFFF" sketch:type="MSShapeGroup" cx="167" cy="114" r="60"></circle>
                <circle id="Oval-13-Copy-2" opacity="0.350000024" fill="#FFFFFF" sketch:type="MSShapeGroup" cx="167" cy="114" r="90"></circle>
                <path d="M52.165613,250.895959 C118.439783,250.895959 172.165613,197.170129 172.165613,130.895959 C172.165613,87.9758219 149.632731,50.3185215 115.751306,29.1083954" id="Oval-13-Copy-3" stroke="#FFFFFF" stroke-width="2" opacity="0.649999976" sketch:type="MSShapeGroup" transform="translate(112.165613, 140.002177) rotate(-214.000000) translate(-112.165613, -140.002177) "></path>
                <circle id="Oval-16" stroke="#FFFFFF" stroke-width="2" fill="#B8E986" sketch:type="MSShapeGroup" cx="106.5" cy="10.5" r="7.5"></circle>
                <g id="mark" transform="translate(137.000000, 84.521739)" sketch:type="MSShapeGroup">
                    <g id="g5525" transform="translate(0.063932, 0.466383)">
                        <g id="layer1" fill="#FFFFFF">
                            <path d="M29.8061061,0.368121603 C13.3947809,0.368121603 0.113331202,13.653669 0.113331202,30.0700577 C0.113331202,44.5236783 10.4709847,56.5331823 24.139546,59.205163 L24.139546,67.7076257 C41.910049,65.0276458 57.6447554,50.9169733 58.8188939,32.3940642 C59.5256272,21.2448244 53.9684,9.86279814 44.595828,4.3359375 C44.0592093,4.01950205 43.5140064,3.70536331 42.9525256,3.42900815 C42.3804007,3.14741421 41.7929008,2.87296687 41.1958919,2.63544497 C41.006384,2.55614634 40.8206949,2.48420979 40.6292359,2.40871264 C40.107809,2.21616881 39.5816694,1.99934976 39.0425991,1.84188179 C36.1371008,0.883936037 33.0311676,0.368121603 29.8061061,0.368121603 L29.8061061,0.368121603 Z" id="path3943"></path>
                        </g>
                        <path d="M35.925991,11.3646399 C34.9102606,11.2604846 33.8406969,11.6140455 33.092711,12.4983016 C32.5487212,13.2238451 32.2087276,13.9267154 31.8460678,14.6522588 C30.7580882,17.191661 31.1207481,19.912449 32.7527174,21.9076936 C35.2913363,21.363536 37.4446292,19.7423998 38.5326087,17.2029976 C38.8952685,16.4774541 39.0992647,15.5478516 39.0992647,14.8223081 C39.2125959,12.8950832 37.6188763,11.5382318 35.925991,11.3646399 L35.925991,11.3646399 Z M22.722906,11.5346892 C21.0672079,11.6923391 19.4929668,13.0084494 19.4929668,14.8223081 C19.4929668,15.5478516 19.6969629,16.4774541 20.0596228,17.2029976 C21.1476023,19.7423998 23.4708919,21.363536 26.0095109,21.9076936 C27.4601503,19.912449 27.8341432,17.191661 26.7461637,14.6522588 C26.3835038,13.9267154 26.0435102,13.2125085 25.4995205,12.6683509 C24.7515345,11.7840948 23.7163256,11.4400994 22.722906,11.5346892 L22.722906,11.5346892 Z M13.8264066,20.2638842 C10.9670073,20.4106798 9.68981777,24.0049677 12.069773,25.8755095 C12.7950927,26.4196671 13.4977462,26.8164487 14.2230659,27.1792204 C16.7616848,28.2675357 19.6969629,27.8934273 21.872922,26.4423404 C21.3289322,24.084324 19.4816336,21.9190302 16.9430147,20.830715 C16.0363651,20.4679433 15.2997123,20.2638842 14.3930627,20.2638842 C14.1890665,20.2412109 14.0170334,20.2540893 13.8264066,20.2638842 L13.8264066,20.2638842 Z M41.762548,31.2604025 C40.1015368,31.2285149 38.4192775,31.7138672 37.0593031,32.6207965 C37.6032928,34.9788128 39.4505914,37.1441067 41.9892104,38.2324219 C42.89586,38.5951936 43.6325128,38.7992527 44.5391624,38.7992527 C47.803101,38.9806386 49.401071,34.944803 46.862452,33.1309443 C46.1371324,32.5867867 45.4344789,32.2466882 44.7091592,31.8839164 C43.7571771,31.4757982 42.7591535,31.2795333 41.762548,31.2604025 L41.762548,31.2604025 Z M16.9996803,31.4304518 C16.003074,31.449588 15.0050512,31.6458475 14.0530691,32.0539657 C13.1464194,32.4167374 12.443766,32.813519 11.8997762,33.3576766 C9.54248721,35.3529212 11.129124,39.1506878 14.3930627,38.969302 C15.2997123,38.969302 16.217695,38.7652429 16.9430147,38.4024711 C19.4816336,37.3141559 21.2835997,35.1488621 21.6462596,32.7908458 C20.2862852,31.8839164 18.6606914,31.3985678 16.9996803,31.4304518 L16.9996803,31.4304518 Z M26.1795077,36.985394 C23.6408887,37.5295516 21.4875959,39.1506878 20.3996164,41.69009 C20.0369565,42.4156335 19.8329604,43.288553 19.8329604,44.0140965 C19.6516304,47.0976562 23.856218,48.7528023 25.6695173,46.394786 C26.213507,45.6692425 26.5535006,44.9663723 26.9161605,44.2408288 C28.00414,41.8828125 27.6301471,39.1620245 26.1795077,36.985394 L26.1795077,36.985394 Z M32.9227142,37.1554433 C31.4720748,39.1506878 31.0980818,41.8714759 32.1860614,44.4108781 C32.5487212,45.1364215 32.8887148,45.8506284 33.4327046,46.394786 C35.4273338,48.5714164 39.6205882,46.9616168 39.4392583,44.2408288 C39.4392583,43.5152853 39.2352621,42.5856827 38.8726023,41.8601393 C37.7846228,39.3207371 35.4613331,37.6996009 32.9227142,37.1554433 L32.9227142,37.1554433 Z" id="rect4005" fill="#39B54A"></path>
                    </g>
                </g>
                <circle id="Oval-17" opacity="0.600000024" fill="#FFFFFF" sketch:type="MSShapeGroup" cx="261" cy="19" r="4"></circle>
                <circle id="Oval-17-Copy-3" opacity="0.300000012" fill="#FFFFFF" sketch:type="MSShapeGroup" cx="60" cy="8" r="3"></circle>
                <circle id="Oval-17-Copy-4" opacity="0.899999976" fill="#FFFFFF" sketch:type="MSShapeGroup" cx="58" cy="36" r="1"></circle>
                <circle id="Oval-17-Copy" opacity="0.400000006" fill="#FFFFFF" sketch:type="MSShapeGroup" cx="231" cy="2" r="2"></circle>
                <circle id="Oval-17-Copy-2" opacity="0.900000036" fill="#FFFFFF" sketch:type="MSShapeGroup" cx="267.5" cy="62.5" r="2.5"></circle>
                <circle id="Oval-20" opacity="0.900000036" fill="#FFFFFF" sketch:type="MSShapeGroup" cx="260" cy="199" r="3"></circle>
                <circle id="Oval-20-Copy-2" opacity="0.600000024" fill="#FFFFFF" sketch:type="MSShapeGroup" cx="48.5" cy="187.5" r="1.5"></circle>
                <circle id="Oval-20-Copy" opacity="0.900000036" fill="#FFFFFF" sketch:type="MSShapeGroup" cx="218" cy="207" r="1"></circle>
            </g>
        </g>
    </g>
</svg>