<?xml version="1.0" encoding="UTF-8" standalone="no"?>
<svg width="225px" height="279px" viewBox="0 0 225 279" version="1.1" xmlns="http://www.w3.org/2000/svg" xmlns:xlink="http://www.w3.org/1999/xlink" xmlns:sketch="http://www.bohemiancoding.com/sketch/ns">
    <!-- Generator: Sketch 3.3.3 (12072) - http://www.bohemiancoding.com/sketch -->
    <title>company</title>
    <desc>Created with Sketch.</desc>
    <defs>
        <linearGradient x1="50%" y1="58.7565104%" x2="50%" y2="100%" id="linearGradient-1">
            <stop stop-color="#FFFFFF" offset="0%"></stop>
            <stop stop-color="#FFFFFF" stop-opacity="0" offset="100%"></stop>
        </linearGradient>
        <linearGradient x1="50%" y1="0%" x2="50%" y2="36.6222994%" id="linearGradient-2">
            <stop stop-color="#FFFFFF" stop-opacity="0" offset="0%"></stop>
            <stop stop-color="#FFFFFF" offset="100%"></stop>
        </linearGradient>
    </defs>
    <g id="Homepage" stroke="none" stroke-width="1" fill="none" fill-rule="evenodd" sketch:type="MSPage">
        <g id="cucumber-homepage" sketch:type="MSArtboardGroup" transform="translate(-927.000000, -673.000000)">
            <g id="company" sketch:type="MSLayerGroup" transform="translate(928.000000, 673.000000)">
                <rect id="thread" stroke="#FFFFFF" stroke-width="2" fill-opacity="0.899999976" fill="#65696B" sketch:type="MSShapeGroup" x="0" y="195" width="223" height="23" rx="12.5"></rect>
                <rect id="Rectangle-44" fill="url(#linearGradient-1)" sketch:type="MSShapeGroup" x="28" y="219" width="7" height="60"></rect>
                <rect id="Rectangle-44-Copy" fill="url(#linearGradient-1)" sketch:type="MSShapeGroup" x="68" y="219" width="7" height="60"></rect>
                <rect id="Rectangle-44-Copy-2" fill="url(#linearGradient-1)" sketch:type="MSShapeGroup" x="108" y="219" width="7" height="60"></rect>
                <rect id="Rectangle-44-Copy-3" fill="url(#linearGradient-1)" sketch:type="MSShapeGroup" x="148" y="219" width="7" height="60"></rect>
                <rect id="Rectangle-44-Copy-4" fill="url(#linearGradient-1)" sketch:type="MSShapeGroup" x="188" y="219" width="7" height="60"></rect>
                <path d="M11.5,212 C14.5375661,212 17,209.537566 17,206.5 C17,203.462434 14.5375661,201 11.5,201 C8.46243388,201 6,203.462434 6,206.5 C6,209.537566 8.46243388,212 11.5,212 Z" id="Oval-25-Copy" stroke="#9FA9A3" stroke-width="4" fill="#C5CBC7" sketch:type="MSShapeGroup"></path>
                <path d="M51.5,212 C54.5375661,212 57,209.537566 57,206.5 C57,203.462434 54.5375661,201 51.5,201 C48.4624339,201 46,203.462434 46,206.5 C46,209.537566 48.4624339,212 51.5,212 Z" id="Oval-25-Copy-3" stroke="#9FA9A3" stroke-width="4" fill="#C5CBC7" sketch:type="MSShapeGroup"></path>
                <path d="M91.5,212 C94.5375661,212 97,209.537566 97,206.5 C97,203.462434 94.5375661,201 91.5,201 C88.4624339,201 86,203.462434 86,206.5 C86,209.537566 88.4624339,212 91.5,212 Z" id="Oval-25-Copy-4" stroke="#9FA9A3" stroke-width="4" fill="#C5CBC7" sketch:type="MSShapeGroup"></path>
                <path d="M131.5,212 C134.537566,212 137,209.537566 137,206.5 C137,203.462434 134.537566,201 131.5,201 C128.462434,201 126,203.462434 126,206.5 C126,209.537566 128.462434,212 131.5,212 Z" id="Oval-25-Copy-5" stroke="#9FA9A3" stroke-width="4" fill="#C5CBC7" sketch:type="MSShapeGroup"></path>
                <path d="M171.5,212 C174.537566,212 177,209.537566 177,206.5 C177,203.462434 174.537566,201 171.5,201 C168.462434,201 166,203.462434 166,206.5 C166,209.537566 168.462434,212 171.5,212 Z" id="Oval-25-Copy-6" stroke="#9FA9A3" stroke-width="4" fill="#C5CBC7" sketch:type="MSShapeGroup"></path>
                <path d="M211.5,212 C214.537566,212 217,209.537566 217,206.5 C217,203.462434 214.537566,201 211.5,201 C208.462434,201 206,203.462434 206,206.5 C206,209.537566 208.462434,212 211.5,212 Z" id="Oval-25-Copy-7" stroke="#9FA9A3" stroke-width="4" fill="#C5CBC7" sketch:type="MSShapeGroup"></path>
                <g id="Group-+-rect4005-copy" transform="translate(150.458012, 69.420990) rotate(-44.000000) translate(-150.458012, -69.420990) translate(95.958012, 43.420990)" sketch:type="MSShapeGroup">
                    <g id="Group" transform="translate(1.000000, 1.000000)">
                        <path d="M52,51 C75.1959595,51 107,26 107,26 C107,26 75.1959595,1 52,1 C28.8040405,1 21,12.1928813 21,26 C21,39.8071187 28.8040405,51 52,51 Z" id="Oval-39" stroke="#FFFFFF" stroke-width="2" opacity="0.649999976" fill="#FFFFFF"></path>
                        <path d="M49.1987999,39.9958137 C58.5105967,39.9958137 76.1416338,29.7193144 76.1416338,29.7193144 L76.1127996,22.3258138 C76.1127996,22.3258138 62.0679181,12.255814 49.1987999,12.255814 C36.3296816,12.255814 32,18.4656244 32,26.1258138 C32,33.7860033 36.3296816,39.9958137 49.1987999,39.9958137 Z" id="Oval-39-Copy" stroke="#FFFFFF" stroke-width="2" fill="#FFFFFF"></path>
                        <path d="M18,14 L24,13 L24,39 L18,38 L18,14 Z" id="Rectangle-53" fill="#FFFFFF"></path>
                        <path d="M13,17.9 L19,17 L19,35 L13,34.1 L13,17.9 Z" id="Rectangle-53-Copy" fill="#FFFFFF"></path>
                        <rect id="Rectangle-53-Copy-2" fill="#FFFFFF" transform="translate(15.000000, 26.000000) rotate(-90.000000) translate(-15.000000, -26.000000) " x="12" y="19" width="6" height="14"></rect>
                        <circle id="Oval-40" stroke="#FFFFFF" stroke-width="2" fill="#B8E986" cx="5" cy="26" r="5"></circle>
                    </g>
                    <path d="M50.3388026,19.0082052 C49.867133,18.9598391 49.3704652,19.1240204 49.0231268,19.5346379 C48.7705171,19.8715548 48.612636,20.1979431 48.4442295,20.53486 C47.9390099,21.7140692 48.1074164,22.9775077 48.8652457,23.9040292 C50.0440912,23.6513415 51.0440048,22.8985428 51.5492243,21.7193336 C51.7176308,21.3824166 51.8123595,20.9507418 51.8123595,20.6138249 C51.8649865,19.7188893 51.1249191,19.0888152 50.3388026,19.0082052 L50.3388026,19.0082052 Z M44.2077534,19.0871701 C43.4389053,19.1603772 42.707883,19.7715326 42.707883,20.6138249 C42.707883,20.9507418 42.8026116,21.3824166 42.9710181,21.7193336 C43.4762376,22.8985428 44.5550918,23.6513415 45.7339373,23.9040292 C46.4075633,22.9775077 46.5812325,21.7140692 46.076013,20.53486 C45.9076065,20.1979431 45.7497254,19.8662905 45.4971157,19.6136028 C45.1497773,19.2029853 44.6690626,19.0432459 44.2077534,19.0871701 L44.2077534,19.0871701 Z M40.0765314,23.1407018 C38.7487267,23.2088685 38.1556447,24.8779297 39.2608124,25.7465436 C39.5976254,25.9992313 39.923913,26.1834828 40.260726,26.3519412 C41.4395715,26.8573166 42.8026116,26.6835938 43.8130506,26.00976 C43.5604409,24.91478 42.7026203,23.9092936 41.5237747,23.4039182 C41.1027585,23.2354597 40.7606828,23.1407018 40.3396665,23.1407018 C40.2449379,23.1301732 40.1650517,23.1361534 40.0765314,23.1407018 L40.0765314,23.1407018 Z M53.0490948,28.2470989 C52.2777795,28.2322914 51.4965973,28.457672 50.8650729,28.8788182 C51.1176827,29.9737982 51.9755033,30.9792846 53.1543488,31.48466 C53.5753651,31.6531184 53.9174408,31.7478763 54.338457,31.7478763 C55.8541156,31.8321056 56.5961567,29.9580052 55.4173112,29.1157129 C55.0804982,28.8630252 54.7542106,28.7050954 54.4173976,28.5366369 C53.9753305,28.3471211 53.5118834,28.2559826 53.0490948,28.2470989 L53.0490948,28.2470989 Z M41.5500883,28.3260638 C41.0872993,28.33495 40.6238525,28.426086 40.1817854,28.6156018 C39.7607692,28.7840603 39.4344816,28.9683117 39.1818718,29.2209994 C38.0872296,30.1475209 38.824008,31.9110705 40.3396665,31.8268412 C40.7606828,31.8268412 41.1869617,31.7320834 41.5237747,31.5636249 C42.7026203,31.0582495 43.5393901,30.0527631 43.7077966,28.9577831 C43.0762722,28.5366369 42.3214035,28.311258 41.5500883,28.3260638 L41.5500883,28.3260638 Z M45.8128779,30.905584 C44.6340323,31.1582717 43.6341187,31.9110705 43.1288992,33.0902797 C42.9604927,33.4271966 42.8657641,33.8325498 42.8657641,34.1694667 C42.7815608,35.6013636 44.7340237,36.3699554 45.5760562,35.2749754 C45.828666,34.9380584 45.9865471,34.6116702 46.1549536,34.2747533 C46.6601731,33.1797733 46.4865039,31.9163348 45.8128779,30.905584 L45.8128779,30.905584 Z M48.9441863,30.9845489 C48.2705602,31.9110705 48.096891,33.1745089 48.6021105,34.3537182 C48.7705171,34.6906351 48.9283981,35.0222877 49.1810079,35.2749754 C50.1072437,36.2857261 52.0544438,35.5381917 51.9702406,34.2747533 C51.9702406,33.9378363 51.8755119,33.5061615 51.7071054,33.1692446 C51.2018859,31.9900354 50.1230318,31.2372366 48.9441863,30.9845489 L48.9441863,30.9845489 Z" id="rect4005-copy" fill="#39B54A" transform="translate(47.328676, 27.396660) rotate(45.000000) translate(-47.328676, -27.396660) "></path>
                </g>
                <g id="Rectangle-50-+-Oval-27" transform="translate(156.000000, 0.000000)" sketch:type="MSShapeGroup">
                    <rect id="Rectangle-50" fill="url(#linearGradient-2)" x="5" y="0" width="5" height="51"></rect>
                    <circle id="Oval-27" stroke="#FFFFFF" stroke-width="2" fill-opacity="0.900000036" fill="#65696B" cx="7.5" cy="58.5" r="7.5"></circle>
                </g>
                <circle id="Oval-25-Copy-2" fill-opacity="0.400000006" fill="#FFFFFF" sketch:type="MSShapeGroup" cx="163.5" cy="58.5" r="3.5"></circle>
                <g id="package" transform="translate(48.000000, 144.000000)" sketch:type="MSShapeGroup">
                    <rect id="Rectangle-49" fill="#B8E986" x="0" y="0" width="70" height="50"></rect>
                    <rect id="Rectangle-51" fill-opacity="0.649999976" fill="#FFFFFF" x="25" y="0" width="20" height="50"></rect>
                    <rect id="Rectangle-52" fill-opacity="0.65" fill="#FFFFFF" x="0" y="9" width="15" height="10"></rect>
                </g>
            </g>
        </g>
    </g>
</svg>