<?xml version="1.0" encoding="UTF-8" standalone="no"?>
<svg width="50px" height="50px" viewBox="0 0 50 50" version="1.1" xmlns="http://www.w3.org/2000/svg" xmlns:xlink="http://www.w3.org/1999/xlink" xmlns:sketch="http://www.bohemiancoding.com/sketch/ns">
    <!-- Generator: Sketch 3.3.3 (12072) - http://www.bohemiancoding.com/sketch -->
    <title>Plus sign</title>
    <desc>Created with Sketch.</desc>
    <defs></defs>
    <g id="Homepage" stroke="none" stroke-width="1" fill="none" fill-rule="evenodd" sketch:type="MSPage">
        <g id="cucumber-homepage" sketch:type="MSArtboardGroup" transform="translate(-855.000000, -802.000000)" fill="#FFFFFF" opacity="0.354186101">
            <g id="Plus-sign" sketch:type="MSLayerGroup" transform="translate(855.000000, 802.000000)">
                <path d="M20,20 L5.00003191,20 C2.24553095,20 0,22.2385763 0,25 C0,27.7558048 2.23859054,30 5.00003191,30 L20,30 L20,44.9999681 C20,47.754469 22.2385763,50 25,50 C27.7558048,50 30,47.7614095 30,44.9999681 L30,30 L44.9999681,30 C47.754469,30 50,27.7614237 50,25 C50,22.2441952 47.7614095,20 44.9999681,20 L30,20 L30,5.00003191 C30,2.24553095 27.7614237,0 25,0 C22.2441952,0 20,2.23859054 20,5.00003191 L20,20 Z" sketch:type="MSShapeGroup"></path>
            </g>
        </g>
    </g>
</svg>