<?xml version="1.0" encoding="UTF-8" standalone="no"?>
<svg width="316px" height="210px" viewBox="0 0 316 210" version="1.1" xmlns="http://www.w3.org/2000/svg" xmlns:xlink="http://www.w3.org/1999/xlink" xmlns:sketch="http://www.bohemiancoding.com/sketch/ns">
    <!-- Generator: Sketch 3.3.3 (12072) - http://www.bohemiancoding.com/sketch -->
    <title>acceptance tool</title>
    <desc>Created with Sketch.</desc>
    <defs></defs>
    <g id="Homepage" stroke="none" stroke-width="1" fill="none" fill-rule="evenodd" sketch:type="MSPage">
        <g id="cucumber-homepage" sketch:type="MSArtboardGroup" transform="translate(-232.000000, -699.000000)">
            <g id="acceptance-tool" sketch:type="MSLayerGroup" transform="translate(232.000000, 699.000000)">
                <g id="text-editor" sketch:type="MSShapeGroup">
                    <path d="M0,5.00958902 C0,2.2428694 2.23334161,0 4.99801311,0 L291.001987,0 C293.762313,0 296,2.23383942 296,5.00958902 L296,204.990411 C296,207.757131 293.766658,210 291.001987,210 L4.99801311,210 C2.23768669,210 0,207.766161 0,204.990411 L0,5.00958902 Z M294,204.996401 C294,206.655243 292.665835,208 290.990852,208 L5.00914814,208 C3.34724151,208 2,206.659277 2,204.996401 L2,18 L294,18 L294,204.996401 Z M8.98767123,12.2427984 C10.9206679,12.2427984 12.4876712,10.675795 12.4876712,8.74279835 C12.4876712,6.80980173 10.9206679,5.24279835 8.98767123,5.24279835 C7.05467461,5.24279835 5.48767123,6.80980173 5.48767123,8.74279835 C5.48767123,10.675795 7.05467461,12.2427984 8.98767123,12.2427984 Z M19.7191781,12.2427984 C21.6521747,12.2427984 23.2191781,10.675795 23.2191781,8.74279835 C23.2191781,6.80980173 21.6521747,5.24279835 19.7191781,5.24279835 C17.7861815,5.24279835 16.2191781,6.80980173 16.2191781,8.74279835 C16.2191781,10.675795 17.7861815,12.2427984 19.7191781,12.2427984 Z M30.2616438,12.2427984 C32.1946405,12.2427984 33.7616438,10.675795 33.7616438,8.74279835 C33.7616438,6.80980173 32.1946405,5.24279835 30.2616438,5.24279835 C28.3286472,5.24279835 26.7616438,6.80980173 26.7616438,8.74279835 C26.7616438,10.675795 28.3286472,12.2427984 30.2616438,12.2427984 Z" id="editor-window" fill="#FFFFFF"></path>
                    <rect id="text" fill="#FFFFFF" x="28" y="117" width="60" height="10" rx="5"></rect>
                    <rect id="text" fill="#FFFFFF" x="38" y="137" width="30" height="10" rx="5"></rect>
                    <rect id="text" opacity="0.65" fill="#FFFFFF" x="73" y="137" width="10" height="10" rx="5"></rect>
                    <rect id="text" opacity="0.65" fill="#FFFFFF" x="68" y="157" width="20" height="10" rx="5"></rect>
                    <rect id="text" opacity="0.65" fill="#FFFFFF" x="93" y="157" width="30" height="10" rx="5"></rect>
                    <rect id="text" opacity="0.65" fill="#FFFFFF" x="88" y="137" width="20" height="10" rx="5"></rect>
                    <rect id="text" opacity="0.65" fill="#FFFFFF" x="113" y="137" width="40" height="10" rx="5"></rect>
                    <rect id="text" fill="#FFFFFF" x="38" y="157" width="25" height="10" rx="5"></rect>
                    <rect id="text" fill="#FFFFFF" x="38" y="177" width="25" height="10" rx="5"></rect>
                    <rect id="text" opacity="0.65" fill="#FFFFFF" x="68" y="177" width="85" height="10" rx="5"></rect>
                    <rect id="text" opacity="0.649999976" fill="#FFFFFF" x="93" y="117" width="60" height="10" rx="5"></rect>
                    <rect id="text" fill="#FFFFFF" x="18" y="37" width="75" height="10" rx="5"></rect>
                    <rect id="text" fill="#B8E986" x="28" y="57" width="125" height="10" rx="5"></rect>
                    <rect id="text" fill="#B8E986" x="28" y="77" width="45" height="10" rx="5"></rect>
                    <rect id="text" fill="#B8E986" x="78" y="77" width="15" height="10" rx="5"></rect>
                    <rect id="text" fill="#B8E986" x="98" y="77" width="95" height="10" rx="5"></rect>
                    <rect id="text" fill="#B8E986" x="28" y="97" width="85" height="10" rx="5"></rect>
                    <rect id="text" fill="#B8E986" x="118" y="97" width="35" height="10" rx="5"></rect>
                </g>
                <g id="terminal" transform="translate(128.000000, 70.000000)">
                    <rect id="terminal-background" fill-opacity="0.899999976" fill="#65696B" sketch:type="MSShapeGroup" x="0" y="0" width="188" height="125" rx="5"></rect>
                    <path d="M0,4.99665438 C0,2.23707837 2.24229723,0 5.00430563,0 L182.995694,0 C185.759496,0 188,2.23601774 188,4.99665438 L188,120.003346 C188,122.762922 185.757703,125 182.995694,125 L5.00430563,125 C2.24050395,125 0,122.763982 0,120.003346 L0,4.99665438 Z M186,119.998801 C186,121.656318 184.650594,123 182.997674,123 L5.00232559,123 C3.34418695,123 2,121.653276 2,119.998801 L2,18 L186,18 L186,119.998801 Z M8.98767123,12.2427984 C10.9206679,12.2427984 12.4876712,10.675795 12.4876712,8.74279835 C12.4876712,6.80980173 10.9206679,5.24279835 8.98767123,5.24279835 C7.05467461,5.24279835 5.48767123,6.80980173 5.48767123,8.74279835 C5.48767123,10.675795 7.05467461,12.2427984 8.98767123,12.2427984 Z M19.7191781,12.2427984 C21.6521747,12.2427984 23.2191781,10.675795 23.2191781,8.74279835 C23.2191781,6.80980173 21.6521747,5.24279835 19.7191781,5.24279835 C17.7861815,5.24279835 16.2191781,6.80980173 16.2191781,8.74279835 C16.2191781,10.675795 17.7861815,12.2427984 19.7191781,12.2427984 Z M30.2616438,12.2427984 C32.1946405,12.2427984 33.7616438,10.675795 33.7616438,8.74279835 C33.7616438,6.80980173 32.1946405,5.24279835 30.2616438,5.24279835 C28.3286472,5.24279835 26.7616438,6.80980173 26.7616438,8.74279835 C26.7616438,10.675795 28.3286472,12.2427984 30.2616438,12.2427984 Z" id="terminal-window" fill="#FFFFFF" sketch:type="MSShapeGroup"></path>
                    <text id="&gt;-cucumber" sketch:type="MSTextLayer" font-family="Roboto" font-size="14" font-weight="normal" fill="#FFFFFF">
                        <tspan x="12" y="39">&gt; cucumber</tspan>
                    </text>
                    <text id="........" sketch:type="MSTextLayer" font-family="Roboto" font-size="20" font-weight="normal" fill="#39B54A">
                        <tspan x="12" y="51">........</tspan>
                    </text>
                </g>
            </g>
        </g>
    </g>
</svg>