<?xml version="1.0" encoding="UTF-8" standalone="no"?>
<svg width="30px" height="34px" viewBox="0 0 30 34" version="1.1" xmlns="http://www.w3.org/2000/svg" xmlns:xlink="http://www.w3.org/1999/xlink" xmlns:sketch="http://www.bohemiancoding.com/sketch/ns">
    <!-- Generator: Sketch 3.4.2 (15855) - http://www.bohemiancoding.com/sketch -->
    <title>Shape</title>
    <desc>Created with Sketch.</desc>
    <defs></defs>
    <g id="Homepage" stroke="none" stroke-width="1" fill="none" fill-rule="evenodd" sketch:type="MSPage">
        <g id="cucumber-homepage" sketch:type="MSArtboardGroup" transform="translate(-538.000000, -935.000000)">
            <rect id="Background" fill="#39B54A" sketch:type="MSShapeGroup" x="0" y="559" width="1440" height="587"></rect>
            <g id="community" sketch:type="MSLayerGroup" transform="translate(553.000000, 713.000000)" stroke="#FFFFFF" stroke-width="2" opacity="0.649999976">
                <path d="M52.165613,250.895959 C118.439783,250.895959 172.165613,197.170129 172.165613,130.895959 C172.165613,87.9758219 149.632731,50.3185215 115.751306,29.1083954" id="Oval-13-Copy-3" sketch:type="MSShapeGroup" transform="translate(112.165613, 140.002177) rotate(-214.000000) translate(-112.165613, -140.002177) "></path>
            </g>
            <g id="csharp-plain" sketch:type="MSLayerGroup" transform="translate(538.000000, 935.000000)" fill="#FFFFFF">
                <g id="Group" sketch:type="MSShapeGroup">
                    <path d="M29.4758065,8.63709677 L29.5580645,8.58225806 C29.3935484,8.28064516 29.1467742,8.00645161 28.9,7.86935484 L15.6564516,0.246774194 C15.4370968,0.109677419 15.1354839,0.0548387097 14.8064516,0.0548387097 C14.4774194,0.0548387097 14.1758065,0.137096774 13.9564516,0.246774194 L0.79516129,7.89677419 C0.329032258,8.17096774 0,8.85645161 0,9.37741935 L0,24.65 C0,24.9516129 0.0548387097,25.2806452 0.246774194,25.5822581 L0.191935484,25.6096774 C0.329032258,25.8290323 0.520967742,26.0209677 0.712903226,26.1306452 L13.9290323,33.7806452 C14.1483871,33.9177419 14.45,33.9725806 14.7790323,33.9725806 C15.1080645,33.9725806 15.4096774,33.8903226 15.6290323,33.7806452 L28.7903226,26.1306452 C29.2564516,25.8564516 29.5854839,25.1709677 29.5854839,24.65 L29.5854839,9.35 C29.6129032,9.13064516 29.5854839,8.88387097 29.4758065,8.63709677 L29.4758065,8.63709677 Z M14.8064516,27.8306452 C8.82903226,27.8306452 3.97580645,22.9774194 3.97580645,17 C3.97580645,11.0225806 8.82903226,6.16935484 14.8064516,6.16935484 C18.8370968,6.16935484 22.3467742,8.39032258 24.2112903,11.6532258 L20.6467742,13.7096774 C19.4951613,11.6532258 17.3016129,10.2822581 14.8064516,10.2822581 C11.1048387,10.2822581 8.08870968,13.2983871 8.08870968,17 C8.08870968,20.7016129 11.1048387,23.7177419 14.8064516,23.7177419 C17.3016129,23.7177419 19.4951613,22.3467742 20.6467742,20.3177419 L24.183871,22.4016129 C22.3193548,25.6370968 18.8096774,27.8306452 14.8064516,27.8306452 L14.8064516,27.8306452 Z M28.7903226,16.4516129 L27.9129032,16.4516129 L27.666129,17.5483871 L28.7903226,17.5483871 L28.7903226,18.9193548 L27.4193548,18.9193548 L27.0903226,20.5645161 L25.7467742,20.5645161 L26.0758065,18.9193548 L25.033871,18.9193548 L24.7048387,20.5645161 L23.3887097,20.5645161 L23.7177419,18.9193548 L23.0322581,18.9193548 L23.0322581,17.5483871 L23.9919355,17.5483871 L24.2387097,16.4516129 L23.0322581,16.4516129 L23.0322581,15.0806452 L24.4854839,15.0806452 L24.8145161,13.4354839 L26.1580645,13.4354839 L25.8290323,15.0806452 L26.8709677,15.0806452 L27.2,13.4354839 L28.516129,13.4354839 L28.1870968,15.0806452 L28.7903226,15.0806452 L28.7903226,16.4516129 L28.7903226,16.4516129 Z M25.3080645,17.5483871 L26.35,17.5483871 L26.5967742,16.4516129 L25.5548387,16.4516129 L25.3080645,17.5483871 Z" id="Shape"></path>
                </g>
            </g>
        </g>
    </g>
</svg>