<?xml version="1.0" encoding="UTF-8" standalone="no"?>
<svg width="31px" height="42px" viewBox="0 0 31 42" version="1.1" xmlns="http://www.w3.org/2000/svg" xmlns:xlink="http://www.w3.org/1999/xlink" xmlns:sketch="http://www.bohemiancoding.com/sketch/ns">
    <!-- Generator: Sketch 3.3.3 (12072) - http://www.bohemiancoding.com/sketch -->
    <title>Shape Copy 2</title>
    <desc>Created with Sketch.</desc>
    <defs></defs>
    <g id="Homepage" stroke="none" stroke-width="1" fill="none" fill-rule="evenodd" sketch:type="MSPage">
        <g id="cucumber-homepage" sketch:type="MSArtboardGroup" transform="translate(-305.000000, -929.000000)" fill="#FFFFFF">
            <g id="Languages" sketch:type="MSLayerGroup" transform="translate(250.000000, 929.000000)">
                <path d="M64.8836592,32.1807721 C58.4857085,33.9682779 68.7763682,37.6609676 76.9231544,34.1706308 C75.5886923,33.6519141 74.6315999,33.053523 74.6315999,33.053523 C70.998916,33.7402559 69.3137534,33.7942611 66.0161018,33.4175581 C63.2945059,33.1058614 64.8836592,32.1807721 64.8836592,32.1807721 L64.8836592,32.1807721 Z M75.9477269,28.6937689 C71.1325956,29.6201917 68.3513272,29.5905221 64.8286539,29.2271537 C62.1047244,28.9454599 63.8878965,27.6253325 63.8878965,27.6253325 C56.8415498,29.9642249 67.8106084,32.6181476 77.658892,29.7375363 C76.6121244,29.3688341 75.9477269,28.6937689 75.9477269,28.6937689 L75.9477269,28.6937689 Z M79.721091,8.5001536 C79.7214244,8.5001536 65.4760497,12.0568301 72.2793729,19.89692 C74.2875667,22.2088098 71.7526554,24.2873437 71.7526554,24.2873437 C71.7526554,24.2873437 76.8494806,21.6567565 74.5092548,18.3611052 C72.3227104,15.2891421 70.6465487,13.7629948 79.721091,8.5001536 L79.721091,8.5001536 Z M81.7579543,37.2705966 C77.0568339,38.694734 62.187399,39.1241088 58.0573338,37.3276021 C56.5738573,36.6815398 59.3571259,35.7857867 60.2328771,35.5967684 C61.1459652,35.3990827 61.6673489,35.4350861 61.6673489,35.4350861 C60.0165229,34.2726406 50.995319,37.7186398 57.0862401,38.7070686 C73.6948428,41.3993284 87.361495,37.4946182 83.0540793,35.550764 C83.330045,35.9834528 84.2305262,36.5208576 81.7579543,37.2705966 Z M77.3458618,25.4387882 C78.1442722,24.8940689 79.2470453,24.4210233 79.2470453,24.4210233 C79.2470453,24.4210233 76.1054088,24.9827442 72.9754401,25.2457695 C69.143737,25.5671339 65.0336737,25.6304733 62.9704746,25.3544467 C58.0860033,24.7013837 65.6483997,22.904877 65.6483997,22.904877 C65.6483997,22.904877 62.7107829,22.7061911 59.0997678,24.4530264 C54.8286889,26.5182257 69.6644539,27.4596498 77.3458618,25.4387882 L77.3458618,25.4387882 Z M79.2157089,30.4876087 C79.1797055,30.5842847 79.0596939,30.6929619 79.0596939,30.6929619 C89.4850333,27.9523641 85.6519967,21.032363 80.6671823,22.7838653 C80.2298068,22.9385469 80.0004513,23.2982483 80.0004513,23.2982483 C80.0004513,23.2982483 80.2768113,23.1869042 80.8932042,23.0582251 C83.413114,22.5331744 87.0234624,26.4315506 79.2157089,30.4876087 L79.2157089,30.4876087 Z M70.4055254,22.8295364 C68.867377,19.3528675 63.6515403,16.3112407 70.407859,10.9753925 C78.8323386,4.32575077 74.5095881,0 74.5095881,0 C76.2530897,6.86999629 68.3586612,8.94519654 65.5090529,13.2236094 C63.5685323,16.1388907 66.4614782,19.2715264 70.4055254,22.8295364 L70.4055254,22.8295364 Z M79.4977362,40.0805344 C73.1014523,41.2846506 65.2116909,41.1443037 60.5335728,40.3718959 C60.5335728,40.3718959 61.4916652,41.1653058 66.4161405,41.4823364 C73.9088635,41.9613826 85.4179741,41.215644 85.6900004,37.6699685 C85.6903337,37.6699685 85.1666165,39.0140982 79.4977362,40.0805344 L79.4977362,40.0805344 Z" id="Shape-Copy-2" sketch:type="MSShapeGroup"></path>
            </g>
        </g>
    </g>
</svg>