<?xml version="1.0" encoding="UTF-8" standalone="no"?>
<svg width="34px" height="35px" viewBox="0 0 34 35" version="1.1" xmlns="http://www.w3.org/2000/svg" xmlns:xlink="http://www.w3.org/1999/xlink" xmlns:sketch="http://www.bohemiancoding.com/sketch/ns">
    <!-- Generator: Sketch 3.3.3 (12072) - http://www.bohemiancoding.com/sketch -->
    <title>Shape Copy 3</title>
    <desc>Created with Sketch.</desc>
    <defs></defs>
    <g id="Homepage" stroke="none" stroke-width="1" fill="none" fill-rule="evenodd" sketch:type="MSPage">
        <g id="cucumber-homepage" sketch:type="MSArtboardGroup" transform="translate(-410.000000, -934.000000)" fill="#FFFFFF">
            <g id="Languages" sketch:type="MSLayerGroup" transform="translate(250.000000, 929.000000)">
                <path d="M160,5.80643449 L160,39.8064345 L194,39.8064345 L194,5.80643449 L160,5.80643449 L160,5.80643449 Z M177.984368,34.7779705 C177.482528,35.7976985 176.524544,36.4676345 175.414512,36.7910425 C173.7088,37.1827225 172.077344,36.9594105 170.86368,36.2309945 C170.051488,35.7326905 169.417184,34.9656505 168.986608,34.0819225 L171.576048,32.4961625 C171.598624,32.5056825 171.666624,32.6286265 171.757472,32.7874745 C172.08768,33.3407225 172.372464,33.7324025 172.93224,34.0073945 C173.482224,34.1950745 174.689632,34.3150265 175.15584,33.3472505 C175.440624,32.8549305 175.350048,31.2724345 175.350048,29.5215705 C175.349776,26.7702905 175.36256,24.0304345 175.36256,21.3104345 L178.547408,21.3104345 C178.547408,24.3024345 178.563728,27.1361305 178.547408,30.0557785 C178.554208,31.8455385 178.70952,33.4410905 177.984368,34.7779705 L177.984368,34.7779705 Z M191.196496,33.8781945 C190.089456,37.6649785 183.917232,37.7879225 181.450736,35.2860665 C180.929584,34.6971865 180.602912,34.3895545 180.292016,33.7098265 C181.602784,32.9558425 181.602784,32.9558425 182.878192,32.2179065 C183.570976,33.2827865 184.211536,33.8684025 185.364,34.1080345 C186.927456,34.2989785 188.500432,33.7617785 188.147648,32.1012185 C187.785072,30.7450265 184.946208,30.4150905 183.014192,28.9647865 C181.0528,27.6474905 180.59312,24.4465945 182.204992,22.6176665 C182.742192,21.9412025 183.658288,21.4363705 184.619536,21.1937465 L185.622672,21.0640025 C187.548704,21.0251065 188.752576,21.5337465 189.636304,22.5205625 C189.882192,22.7697145 190.082928,23.0384505 190.458288,23.6208025 C189.432304,24.2746905 189.435568,24.2684345 187.965952,25.2198905 C187.652064,24.5436985 187.131184,24.1193785 186.580656,23.9349625 C185.726032,23.6760185 184.648368,23.9575385 184.424784,24.8605785 C184.347264,25.1388345 184.363312,25.3977785 184.486528,25.8574585 C184.832784,26.6470745 185.994768,26.9903385 187.037072,27.4693305 C190.037504,28.6862585 191.050704,29.9910425 191.299856,31.5441625 C191.53976,32.8813145 191.24192,33.7487225 191.196496,33.8781945 L191.196496,33.8781945 Z" id="Shape-Copy-3" sketch:type="MSShapeGroup"></path>
            </g>
        </g>
    </g>
</svg>