<?xml version="1.0" encoding="UTF-8" standalone="no"?>
<svg width="68px" height="34px" viewBox="0 0 68 34" version="1.1" xmlns="http://www.w3.org/2000/svg" xmlns:xlink="http://www.w3.org/1999/xlink" xmlns:sketch="http://www.bohemiancoding.com/sketch/ns">
    <!-- Generator: Sketch 3.4.2 (15855) - http://www.bohemiancoding.com/sketch -->
    <title>Shape</title>
    <desc>Created with Sketch.</desc>
    <defs></defs>
    <g id="Homepage" stroke="none" stroke-width="1" fill="none" fill-rule="evenodd" sketch:type="MSPage">
        <g id="cucumber-homepage" sketch:type="MSArtboardGroup" transform="translate(-463.000000, -936.000000)">
            <rect id="Background" fill="#39B54A" sketch:type="MSShapeGroup" x="0" y="559" width="1440" height="587"></rect>
            <g id="Languages" sketch:type="MSLayerGroup" transform="translate(250.000000, 929.000000)" fill="#FFFFFF">
                <path d="M246.545364,7 C228.019476,7 213,14.6113175 213,24 C213,33.3886825 228.019476,41 246.545364,41 C265.071251,41 280.090727,33.3886825 280.090727,24 C280.090727,14.6113175 265.071251,7 246.545364,7 L246.545364,7 Z M237.816673,27.3120377 C237.016117,28.0609799 236.12716,28.3701108 235.148154,28.688576 C234.169148,29.0075902 232.923291,28.9417008 231.408385,28.9417008 L227.975001,28.9417008 L227.023449,34.4324796 L223.014631,34.4324796 L226.591874,15.7638319 L234.300927,15.7638319 C236.620232,15.7638319 238.311941,16.4309615 239.375505,17.6482672 C240.439069,18.8655728 240.758632,20.5935209 240.334744,22.7750073 C240.159588,23.6738477 239.864733,24.5095443 239.448532,25.2540939 C239.031782,25.9991925 238.487646,26.6948742 237.816673,27.3120377 L237.816673,27.3120377 Z M249.518071,28.9417008 L251.099964,21.0239979 C251.280062,20.0971545 251.214173,19.4086108 250.901747,19.0720261 C250.588773,18.7348923 249.923291,18.5092213 248.905849,18.5092213 L245.726688,18.5092213 L243.678079,28.9417008 L239.700559,28.9417008 L243.277801,10.8221311 L247.255321,10.8221311 L246.304318,15.7638319 L249.847518,15.7638319 C252.077323,15.7638319 253.614741,16.2113304 254.46087,16.9888247 C255.306999,17.7663189 255.560673,18.83153 255.222441,20.573205 L253.558186,28.9417008 L249.518071,28.9417008 L249.518071,28.9417008 Z M271.623397,22.8041084 C271.44879,23.7029489 271.153387,24.5243694 270.737735,25.2683699 C270.321534,26.0134686 269.777946,26.6948742 269.106424,27.3120377 C268.305869,28.0609799 267.416363,28.3701108 266.437906,28.688576 C265.459449,29.0075902 264.212493,28.9417008 262.697587,28.9417008 L259.264203,28.9417008 L258.3132,34.4324796 L254.304383,34.4324796 L257.881076,15.7638319 L265.590679,15.7638319 C267.909984,15.7638319 269.601692,16.4309615 270.664707,17.6482672 C271.727173,18.8655728 272.047285,20.6231711 271.623397,22.8041084 L271.623397,22.8041084 Z M264.07138,18.5092213 L261.325442,18.5092213 L259.828106,26.1963115 L262.26711,26.1963115 C263.882497,26.1963115 265.087174,26.0370789 265.877846,25.4276025 C266.669617,24.8192242 267.202771,23.8748102 267.480056,22.4510513 C267.745809,21.0832983 267.625012,20.01644 267.117664,19.4541843 C266.609767,18.8919286 265.594522,18.5092213 264.07138,18.5092213 L264.07138,18.5092213 Z M232.782178,18.5092213 L230.03569,18.5092213 L228.538355,26.1963115 L230.97681,26.1963115 C232.592746,26.1963115 233.796873,26.0370789 234.588095,25.4276025 C235.379316,24.8192242 235.91302,23.8748102 236.189755,22.4510513 C236.455509,21.0832983 236.334711,20.01644 235.827363,19.4541843 C235.320016,18.8919286 234.30532,18.5092213 232.782178,18.5092213 L232.782178,18.5092213 Z" id="Shape" sketch:type="MSShapeGroup"></path>
            </g>
        </g>
    </g>
</svg>