<?xml version="1.0" encoding="UTF-8" standalone="no"?>
<svg width="32px" height="33px" viewBox="0 0 32 33" version="1.1" xmlns="http://www.w3.org/2000/svg" xmlns:xlink="http://www.w3.org/1999/xlink" xmlns:sketch="http://www.bohemiancoding.com/sketch/ns">
    <!-- Generator: Sketch 3.3.3 (12072) - http://www.bohemiancoding.com/sketch -->
    <title>Shape Copy</title>
    <desc>Created with Sketch.</desc>
    <defs></defs>
    <g id="Homepage" stroke="none" stroke-width="1" fill="none" fill-rule="evenodd" sketch:type="MSPage">
        <g id="cucumber-homepage" sketch:type="MSArtboardGroup" transform="translate(-357.000000, -938.000000)" fill="#FFFFFF">
            <g id="Languages" sketch:type="MSLayerGroup" transform="translate(250.000000, 929.000000)">
                <path d="M119.127531,24.655871 L126.840786,24.655871 C128.987927,24.655871 130.679294,22.8391201 130.679294,20.682985 L130.679294,13.3297468 C130.679294,11.2368329 128.924971,9.66450227 126.829147,9.31533059 C125.502824,9.09445305 124.132325,8.99393393 122.811821,9.0002825 C121.491846,9.00636656 120.269216,9.11878926 119.160067,9.31533059 C115.891873,9.89225744 115.336902,11.1011321 115.336902,13.3297468 L115.336902,16.1911029 L123.008098,16.1911029 L123.008098,17.2491989 L112.367884,17.2491989 C110.123663,17.2491989 108.158249,18.6003875 107.54376,21.1670639 C106.834571,24.1085708 106.803093,25.9070695 107.54376,28.9784577 C108.092647,31.2644741 109.403364,32.856115 111.64785,32.856115 L114.278806,32.856115 L114.278806,29.4046058 C114.278806,26.855388 116.508214,24.655871 119.127531,24.655871 L119.127531,24.655871 Z M118.641335,14.3103373 C117.840886,14.3103373 117.192273,13.6545823 117.192273,12.8435517 C117.192273,12.0290823 117.840621,11.3672433 118.641335,11.3672433 C119.438875,11.3672433 120.090662,12.0290823 120.090662,12.8435517 C120.090398,13.6545823 119.438611,14.3103373 118.641335,14.3103373 L118.641335,14.3103373 Z M138.424821,21.1670639 C137.86985,18.9323652 136.810431,17.2491989 134.563035,17.2491989 L131.73739,17.2491989 L131.73739,20.682985 C131.73739,23.3414512 129.411166,25.449443 126.840786,25.449443 L119.127531,25.449443 C117.014513,25.449443 115.336902,27.3873458 115.336902,29.5035378 L115.336902,36.857305 C115.336902,38.9496899 117.121116,40.1807846 119.162448,40.7812541 C121.607179,41.4999658 123.922293,41.6298471 126.847135,40.7812541 C128.791121,40.2180825 130.679294,39.0853907 130.679294,36.857305 L130.679294,33.914211 L123.008098,33.914211 L123.008098,32.856115 L134.563035,32.856115 C136.807257,32.856115 137.643946,31.3282244 138.424821,28.9781931 C139.230826,26.5591212 139.196173,24.2699305 138.424821,21.1670639 L138.424821,21.1670639 Z M127.326717,35.8761855 C128.127431,35.8761855 128.776044,36.5319405 128.776044,37.3435001 C128.776044,38.157176 128.127695,38.8192795 127.326717,38.8192795 C126.529177,38.8192795 125.877654,38.1574405 125.877654,37.3435001 C125.877654,36.5319405 126.529177,35.8761855 127.326717,35.8761855 L127.326717,35.8761855 Z" id="Shape-Copy" sketch:type="MSShapeGroup"></path>
            </g>
        </g>
    </g>
</svg>