<?xml version="1.0" encoding="UTF-8" standalone="no"?>
<svg width="35px" height="33px" viewBox="0 0 35 33" version="1.1" xmlns="http://www.w3.org/2000/svg" xmlns:xlink="http://www.w3.org/1999/xlink" xmlns:sketch="http://www.bohemiancoding.com/sketch/ns">
    <!-- Generator: Sketch 3.3.3 (12072) - http://www.bohemiancoding.com/sketch -->
    <title>Shape Copy 4</title>
    <desc>Created with Sketch.</desc>
    <defs></defs>
    <g id="Homepage" stroke="none" stroke-width="1" fill="none" fill-rule="evenodd" sketch:type="MSPage">
        <g id="cucumber-homepage" sketch:type="MSArtboardGroup" transform="translate(-251.000000, -938.000000)" fill="#FFFFFF">
            <g id="Languages" sketch:type="MSLayerGroup" transform="translate(250.000000, 929.000000)">
                <path d="M10.3034747,38.3274452 C17.8455395,39.3571817 25.2536013,40.3685203 32.8088468,41.3996298 C30.2347801,37.1142783 27.7268911,32.9384908 25.1989566,28.7286533 L10.3034747,38.3274452 L10.3034747,38.3274452 Z M34.9375181,14.606984 C34.2727202,15.6054165 33.6065494,16.6030252 32.9425752,17.602007 C30.6623267,21.0325398 28.3823528,24.4630727 26.104301,27.8952532 C25.9774374,28.0863723 25.8129542,28.2379495 25.9917165,28.5325914 C28.1928812,32.1674241 30.3767464,35.8129659 32.5661036,39.4552126 C32.9115459,40.0304921 33.2608325,40.6035748 33.7076008,41.1555136 C34.1502502,32.3154315 34.592625,23.4750749 35.0349998,14.6349928 L34.9375181,14.606984 L34.9375181,14.606984 Z M4.88870818,25.9404014 C4.99168183,26.0378831 5.24870406,26.0947246 5.3684281,26.0356863 C7.47979985,24.9979865 9.60462683,23.9833528 11.6698664,22.8602535 C12.3434514,22.4942165 12.8613402,21.8379311 13.4415624,21.3057633 C15.3629134,19.5436781 17.2812439,17.7780233 19.1987506,16.0120938 C19.3160033,15.9036282 19.454949,15.7987324 19.5249711,15.6619834 C20.2136589,14.3159118 20.8905391,12.9629753 21.5913091,11.5710461 C20.7557122,11.2569078 19.9635016,10.9496345 19.1614055,10.6700953 C19.0526653,10.632201 18.8813172,10.7074404 18.7635153,10.773069 C16.906969,11.8102196 15.015549,12.7921763 13.2180409,13.9232389 C12.3187377,14.4891821 11.5861145,15.3231314 10.7897849,16.0494389 C9.50632131,17.2208672 8.2245053,18.3950414 6.95971426,19.5867898 C6.62415745,19.9031248 6.31825706,20.2644937 6.05684128,20.6450843 C5.19186261,21.904658 4.35269599,23.1823551 3.47508589,24.4962989 C3.96551506,25.0034785 4.41145963,25.4884157 4.88870818,25.9404014 L4.88870818,25.9404014 Z M12.6054163,24.2184073 C11.5550851,28.6556106 10.5110696,33.0678257 9.43218029,37.6250276 C14.4910698,34.3652937 19.4332559,31.1807992 24.342765,28.0177232 C20.4358074,26.7532067 16.5414812,25.4925347 12.6054163,24.2184073 L12.6054163,24.2184073 Z M33.6480134,14.649821 C29.3736458,15.3640463 25.201428,16.0609719 20.9753893,16.7669593 C22.4148237,20.2683381 23.8254254,23.6994201 25.2761182,27.2279839 C28.0827681,23.0104578 30.8339495,18.8775073 33.6480134,14.649821 L33.6480134,14.649821 Z M12.7817072,23.3108662 C16.630725,24.5602799 20.4031304,25.7849798 24.2850998,27.0453773 C22.8434687,23.5332893 21.4512649,20.1439459 20.0302285,16.6829328 C17.6096612,18.8959052 15.2253406,21.0762007 12.7817072,23.3108662 L12.7817072,23.3108662 Z M5.04769949,28.5279233 C3.68268077,31.7909524 2.36406883,34.9430445 1.02156701,38.1519781 C3.60167483,38.0756403 6.10269888,38.0017739 8.68967161,37.9254361 C7.47513171,34.7917419 6.2844817,31.7195573 5.04769949,28.5279233 L5.04769949,28.5279233 Z M8.78028842,35.6937911 L8.87529878,35.6729218 C9.79602052,31.8447733 10.7299229,28.0429861 11.6698664,24.0651825 C9.57304824,25.1550557 7.57288803,26.1944031 5.51808314,27.2625831 C6.5667668,29.988227 7.68492336,32.8635259 8.78028842,35.6937911 L8.78028842,35.6937911 Z M32.1009373,14.0289586 C30.8765119,13.7046602 29.6520865,13.3792635 28.427112,13.0571619 C26.6663998,12.5941923 24.9043147,12.1369893 23.1447009,11.6699008 C22.9247492,11.6114118 22.7657579,11.5732429 22.636423,11.8382284 C22.0144621,13.1123558 21.3732795,14.3768722 20.7414332,15.6463314 C20.7219369,15.6855987 20.7260558,15.736399 20.710953,15.8349791 C24.5239987,15.2572283 28.3115069,14.6830472 32.0984659,14.1091407 L32.1009373,14.0289586 L32.1009373,14.0289586 Z M24.9974029,11.1308681 L34.97706,13.8916603 C34.4048011,12.2608323 33.8740062,10.7486299 33.3281086,9.19331587 L25.0119565,11.0372307 L24.9974029,11.1308681 L24.9974029,11.1308681 Z M9.62631994,39.0625398 C8.39036153,38.9200242 7.12145154,39.0510067 5.86791895,39.0726998 C4.83818244,39.0899994 3.80844592,39.1292667 2.7787094,39.1613945 C2.67271519,39.1646896 2.56699558,39.1861081 2.46127596,39.3003403 C10.9745883,40.0873335 19.487626,40.8743268 28.0006638,41.6618693 L28.0179633,41.5481864 C25.2890243,41.1755591 22.5598106,40.8029318 19.8308715,40.4305791 C16.4302697,39.9662365 13.0354343,39.4554872 9.62631994,39.0625398 L9.62631994,39.0625398 Z M1.18989461,35.2146204 C2.28690724,32.6691117 3.37925174,30.1219554 4.48065792,27.5783689 C4.59077108,27.3232689 4.58225859,27.1499985 4.36670041,26.9446004 C3.90592764,26.50607 3.47783185,26.0334896 2.97422204,25.5095596 C2.29349756,28.8706196 1.62952345,32.1484769 0.965000153,35.4260596 L1.03941578,35.4609333 C1.09021611,35.3793782 1.1522749,35.3022166 1.18989461,35.2146204 L1.18989461,35.2146204 Z M22.8116155,10.4589307 C24.6615715,9.98168215 26.5384379,9.60850563 28.4043205,9.19221748 C28.5251429,9.16503244 28.6432193,9.12521596 28.7621196,9.09116601 L28.7437216,9 C26.1155594,9.35340557 23.4876718,9.70708574 20.7271542,10.0786147 C21.4798229,10.4073066 22.0597705,10.6527958 22.8116155,10.4589307 L22.8116155,10.4589307 Z" id="Shape-Copy-4" sketch:type="MSShapeGroup"></path>
            </g>
        </g>
    </g>
</svg>