<?xml version="1.0" encoding="utf-8"?>
<!-- Generator: Adobe Illustrator 22.0.1, SVG Export Plug-In . SVG Version: 6.00 Build 0)  -->
<!DOCTYPE svg PUBLIC "-//W3C//DTD SVG 1.1//EN" "http://www.w3.org/Graphics/SVG/1.1/DTD/svg11.dtd">
<svg version="1.1" id="Layer_1" xmlns="http://www.w3.org/2000/svg" xmlns:xlink="http://www.w3.org/1999/xlink" x="0px" y="0px"
	 width="425.3px" height="117.7px" viewBox="0 0 425.3 117.7" style="enable-background:new 0 0 425.3 117.7;" xml:space="preserve"
	>
<style type="text/css">
	.st0{fill-rule:evenodd;clip-rule:evenodd;fill:#FFFFFF;}
	.st1{fill-rule:evenodd;clip-rule:evenodd;fill:#1F1F1F;}
	.st2{fill:#1F1F1F;}
	.st3{fill-rule:evenodd;clip-rule:evenodd;}
</style>
<path class="st0" d="M302.4,81.1c0,0.6,0,1,0,1.4c0,4.2,0,8.3,0,12.5c0.1,4.3,2.4,7.2,6.6,8.3c3.5,0.9,6.6,0.2,9.4-1.9
	c0.3-0.2,0.6-0.5,1.2-0.9c0,1.2,0,2.1,0,3.1c4.1,0,8.1,0,12.1,0c-1.5-0.7-2-2-2.1-3.5c-0.1-0.6-0.1-1.1-0.1-1.7c0-6.9,0-13.8,0-20.8
	c0-0.5,0-0.9-0.1-1.5c-4.1,0.2-8,0.3-12,0.5c1.9,0.9,2.1,2.5,2.1,4.1c0.1,3.9,0,7.8,0,11.8c0,0.9-0.2,1.9-0.5,2.8
	c-0.5,1.3-1.5,2.1-2.9,2.2c-2.3,0.2-3.8-1.3-3.8-3.9c0-5.4,0-10.7,0-16.1c0-0.4,0-0.9,0-1.4c-0.5,0-0.9-0.1-1.3-0.1
	c-8.8,0-17.7,0-26.5,0c-3.1,0-6.1,0.5-8.8,2.2c-5.1,3.2-5.9,9.6-1.6,13.9c1.2,1.2,2.7,2.1,4.1,3.1c-0.8,0.2-1.7,0.5-2.6,0.8
	c-0.9,0.3-1.3,0.9-1.2,1.9c0.3,3.3,2.5,5.4,5.8,5.6c0.8,0,1.5-0.1,2.3,0c1.9,0.2,3.8,0.3,5.5,0.8c1.6,0.4,2.4,1.8,2.5,3.6
	c0.1,1.8-0.7,3.2-2.4,3.9c-2.2,0.9-4.5,1.1-6.8,0.2c-1.4-0.5-2.5-1.3-2.9-2.8c-0.3-1.5,0.3-2.6,1.8-3.4c-2.8-0.4-5.3-0.5-7.6,0.6
	c-3.5,1.7-3.9,5.7-0.7,8c1.3,0.9,2.8,1.6,4.3,2.1c4.1,1.4,8.4,1.2,12.7,0.8c3-0.3,5.9-1,8.4-2.8c5-3.6,4.6-10.8-0.7-13.8
	c-1.3-0.7-2.7-1.2-4.2-1.4c-2.8-0.3-5.6-0.2-8.4-0.3c-1,0-2.2,0-2.3-1.3c-0.1-1.3,1.2-1.1,2-1.2c3.3-0.5,6.5-1.2,9.5-2.8
	c4.5-2.6,5.6-7.7,2.5-11.9c-0.2-0.2-0.3-0.5-0.6-0.8c0.3,0,0.5-0.1,0.7-0.1C298,81.1,300.1,81.1,302.4,81.1z"/>
<path class="st0" d="M212.1,83.4c2.1-0.6,4.1-1.2,6.1-1.6c1.7-0.4,3.4-0.3,5,0.8c1.4,1,1.5,2.6,0,3.5c-0.9,0.5-2,0.8-3,1.1
	c-2.6,0.8-5.4,1.2-7.9,2.2c-2.7,1.1-4.3,3.3-4.4,6.3c-0.1,3,1.9,5.6,5.2,6.9c3,1.2,6.1,1,9.2,1c0.2,0,0.5-0.1,0.6-0.3
	c0.6-1.2,1.3-2.5,1.8-3.7c-1.4-0.2-2.6-0.2-3.8-0.6c-2.6-0.9-3.1-4-1.1-5.7c1.3-1.1,3-1.5,4.8-1.8c0,1.3,0,2.5,0,3.6
	c0,4.5,2.3,7.3,6.7,8.2c0.9,0.2,1.8,0.2,2.7,0.2c5.9,0,11.8,0,17.6,0c0.4,0,0.8,0,1.3,0c-1.8-1-2.2-2.7-2.2-4.4c0-4.1,0-8.2,0-12.2
	c0-0.4,0-0.8,0.1-1.2c0.4-2.3,2-3.6,4.2-3.5c2,0.1,2.9,1.4,2.9,3.9c0,4.4,0,8.9,0,13.3c0,1.3,0,2.6,0,4c4.1,0,8,0,12.1,0
	c-1.8-1.2-2.3-2-2.4-4.1c0-0.4,0-0.8,0-1.2c0-4.4,0-8.9,0-13.3c-0.1-4.6-2.6-7.6-7.1-8.5c-3.2-0.7-6.1,0.1-8.7,2
	c-0.3,0.2-0.6,0.4-1.1,0.8c0-1.1-0.1-2-0.1-3c-4.1,0.2-8,0.3-12,0.5c2,0.9,2.1,2.7,2.2,4.4c0,5.8,0,11.6,0,17.4c0,0.3-0.1,0.7-0.1,1
	c-4.1,0.8-6.4-1.1-6.4-5.2c0-2.7,0-5.4-0.1-8c-0.1-5.1-2.3-8-7.2-9.4c-4.1-1.1-8.2-0.9-12.3,0.1c-0.3,0.1-0.7,0.4-0.8,0.7
	C213.3,79.5,212.8,81.4,212.1,83.4z"/>
<path class="st0" d="M363.9,76.6c1.6,0.7,2,2.1,2.1,3.6c0,0.4,0,0.7,0,1.1c0,5.7,0,11.4,0,17c0,0.4,0,0.8-0.1,1.1
	c-4.3,0.8-6.5-1.1-6.5-5.3c0-2.9,0-5.8-0.2-8.6c-0.2-3.7-1.7-6.6-5.3-8.1c-4.7-1.9-9.5-1.6-14.3-0.5c-0.3,0.1-0.6,0.3-0.7,0.6
	c-0.7,2-1.3,3.9-1.9,5.9c2.1-0.6,4-1.2,6-1.6c1.6-0.3,3.3-0.3,4.8,0.6c1.7,1,1.8,2.8,0.1,3.8c-0.8,0.5-1.8,0.8-2.8,1
	c-2.2,0.6-4.5,1-6.7,1.7c-3.7,1.2-5.7,3.9-5.6,7.2c0,3,2.2,5.5,5.7,6.7c2.8,1,5.8,0.8,8.7,0.8c0.2,0,0.6-0.1,0.7-0.3
	c0.6-1.2,1.2-2.5,1.8-3.6c-1.4-0.2-2.6-0.2-3.8-0.5c-1.3-0.4-2.1-1.5-2.3-2.8c-0.2-1.3,0.4-2.5,1.5-3.1c1.4-0.7,2.9-1.2,4.6-1.9
	c0,1.9-0.1,3.3,0,4.8c0.1,3.2,1.6,5.5,4.7,6.6c1.4,0.5,2.9,0.8,4.3,0.8c6.2,0.1,12.3,0,18.5,0c0.3,0,0.6,0,0.9-0.1
	c-1.9-0.8-2.1-2.5-2.1-4.1c-0.1-3.9-0.1-7.8,0-11.8c0.1-2.8,1.8-4.6,4.6-4.9c1.1-0.1,2.1,0,3.4,0c0-1.9,0-3.8,0-5.6
	c0-0.8-0.3-1.1-1.1-1.2c-2.5-0.2-4.6,0.6-6.2,2.7c-0.2,0.2-0.4,0.4-0.8,0.9c0-1.3,0-2.3,0-3.4C371.7,76.3,367.8,76.5,363.9,76.6z"/>
<path class="st0" d="M403.1,77.9c-0.2,0-0.3,0-0.3,0c-0.4-0.2-0.7-0.4-1.1-0.5c-4.1-2-8.1-1.7-11.9,0.9c-6.6,4.6-7.5,15.9-1.9,21.8
	c2.7,2.9,6,4.3,10,3.9c0.6-0.1,1.4-0.2,1.7-0.6c0.9-1.4,1.7-2.9,2.5-4.4c-4.1,0-6.1-1.5-7.1-5.4c-0.7-2.5-0.7-5.1,0-7.6
	c0.3-1,0.8-2,1.4-2.7c1.9-2.2,5.1-1.6,6.1,1c0.4,1,0.5,2.1,0.5,3.2c0.1,5,0,9.9,0,14.9c0,0.4,0,0.8,0.1,1.3c4.2,0,8.2,0,12.2,0
	c-1.3-0.5-1.9-1.5-2.1-2.8c-0.1-0.7-0.2-1.3-0.2-2c0-11,0-22.1,0-33.1c0-0.5,0-0.9,0-1.5c-4.2,0.2-8.2,0.3-12.2,0.5
	c1.4,0.7,2,1.9,2.1,3.2C403.2,71.2,403.1,74.5,403.1,77.9z"/>
<path class="st0" d="M175.8,64.2c0,0.1,0,0.2-0.1,0.3c1.9,1,2.6,2.7,3.3,4.5c3,8.3,6,16.6,8.9,24.9c2.1,6,6.8,8.4,12.5,9.8
	c4.5-13.2,8.9-26.3,13.4-39.5c-3.5,0-7,0-10.6,0c2.8,2,3.2,3.1,2.2,6.2c-1.1,3.5-2.2,6.9-3.3,10.4c-1.2,3.7-2.3,7.4-3.6,11.4
	c-0.3-0.8-0.5-1.2-0.6-1.6c-2.9-8.5-5.8-16.9-8.6-25.4c-0.3-0.8-0.6-1.1-1.5-1.1c-2.8,0.1-5.6,0-8.4,0
	C178.2,64.2,177,64.2,175.8,64.2z"/>
<path class="st1" d="M302.4,81.1c-2.3,0-4.5,0-6.6,0c-0.2,0-0.4,0-0.7,0.1c0.2,0.3,0.4,0.6,0.6,0.8c3.1,4.2,2,9.3-2.5,11.9
	c-2.9,1.7-6.2,2.4-9.5,2.8c-0.9,0.1-2.1-0.1-2,1.2c0.1,1.2,1.3,1.2,2.3,1.3c2.8,0.1,5.6,0,8.4,0.3c1.4,0.1,2.9,0.7,4.2,1.4
	c5.4,3,5.7,10.2,0.7,13.8c-2.5,1.8-5.4,2.5-8.4,2.8c-4.3,0.4-8.6,0.6-12.7-0.8c-1.5-0.5-3-1.2-4.3-2.1c-3.1-2.2-2.7-6.2,0.7-8
	c2.4-1.2,4.9-1,7.6-0.6c-1.5,0.8-2.2,1.9-1.8,3.4c0.4,1.5,1.5,2.3,2.9,2.8c2.3,0.8,4.6,0.7,6.8-0.2c1.7-0.7,2.5-2,2.4-3.9
	c-0.1-1.7-0.9-3.1-2.5-3.6c-1.8-0.5-3.7-0.6-5.5-0.8c-0.8-0.1-1.5,0-2.3,0c-3.3-0.2-5.5-2.3-5.8-5.6c-0.1-1,0.3-1.6,1.2-1.9
	c0.9-0.3,1.8-0.5,2.6-0.8c-1.3-1-2.8-1.9-4.1-3.1c-4.3-4.2-3.5-10.7,1.6-13.9c2.7-1.7,5.7-2.2,8.8-2.2c8.8,0,17.7,0,26.5,0
	c0.4,0,0.8,0,1.3,0.1c0,0.5,0,0.9,0,1.4c0,5.4,0,10.7,0,16.1c0,2.6,1.5,4.1,3.8,3.9c1.4-0.1,2.4-0.8,2.9-2.2
	c0.3-0.9,0.5-1.9,0.5-2.8c0.1-3.9,0.1-7.8,0-11.8c0-1.6-0.3-3.2-2.1-4.1c3.9-0.2,7.9-0.3,12-0.5c0,0.5,0.1,1,0.1,1.5
	c0,6.9,0,13.8,0,20.8c0,0.6,0,1.1,0.1,1.7c0.1,1.5,0.6,2.8,2.1,3.5c-4,0-8,0-12.1,0c0-0.9,0-1.8,0-3.1c-0.6,0.4-0.9,0.6-1.2,0.9
	c-2.8,2.1-6,2.8-9.4,1.9c-4.2-1.1-6.6-3.9-6.6-8.3c-0.1-4.2,0-8.3,0-12.5C302.4,82.1,302.4,81.6,302.4,81.1z M287.9,86
	c-0.3-0.9-0.4-2.1-0.9-3c-1-2-3.7-2.2-5-0.5c-1.3,1.6-1.5,5.4-0.3,7.2c0.7,1.1,1.8,1.6,3.1,1.5c1.3-0.1,2.1-0.9,2.5-2.1
	C287.6,88.1,287.7,87.1,287.9,86z"/>
<path class="st1" d="M212.1,83.4c0.6-1.9,1.2-3.8,1.9-5.7c0.1-0.3,0.5-0.6,0.8-0.7c4.1-0.9,8.2-1.2,12.3-0.1
	c4.9,1.4,7.2,4.3,7.2,9.4c0,2.7,0.1,5.4,0.1,8c0,4,2.3,5.9,6.4,5.2c0-0.3,0.1-0.7,0.1-1c0-5.8,0-11.6,0-17.4c0-1.7-0.1-3.5-2.2-4.4
	c4-0.2,7.9-0.3,12-0.5c0,1,0.1,1.9,0.1,3c0.5-0.3,0.8-0.6,1.1-0.8c2.6-1.9,5.5-2.6,8.7-2c4.5,0.9,7,3.9,7.1,8.5
	c0.1,4.4,0,8.9,0,13.3c0,0.4,0,0.8,0,1.2c0.1,2.1,0.6,3,2.4,4.1c-4.1,0-8.1,0-12.1,0c0-1.4,0-2.7,0-4c0-4.4,0-8.9,0-13.3
	c0-2.5-0.9-3.7-2.9-3.9c-2.2-0.2-3.8,1.2-4.2,3.5c-0.1,0.4-0.1,0.8-0.1,1.2c0,4.1,0,8.2,0,12.2c0,1.8,0.4,3.4,2.2,4.4
	c-0.4,0-0.8,0-1.3,0c-5.9,0-11.8,0-17.6,0c-0.9,0-1.8,0-2.7-0.2c-4.4-0.9-6.7-3.7-6.7-8.2c0-1.2,0-2.3,0-3.6
	c-1.8,0.4-3.5,0.7-4.8,1.8c-2,1.7-1.5,4.8,1.1,5.7c1.1,0.4,2.4,0.4,3.8,0.6c-0.6,1.2-1.2,2.4-1.8,3.7c-0.1,0.2-0.4,0.3-0.6,0.3
	c-3.1,0-6.2,0.2-9.2-1c-3.4-1.3-5.3-3.9-5.2-6.9c0.1-3,1.7-5.3,4.4-6.3c2.5-1,5.3-1.5,7.9-2.2c1-0.3,2.1-0.6,3-1.1
	c1.5-0.9,1.4-2.5,0-3.5c-1.5-1-3.3-1.1-5-0.8C216.2,82.2,214.2,82.8,212.1,83.4z"/>
<path class="st1" d="M363.9,76.6c3.9-0.2,7.9-0.3,12-0.5c0,1.1,0,2,0,3.4c0.4-0.5,0.6-0.7,0.8-0.9c1.6-2.1,3.7-2.9,6.2-2.7
	c0.8,0.1,1.1,0.4,1.1,1.2c-0.1,1.9,0,3.7,0,5.6c-1.2,0-2.3-0.1-3.4,0c-2.8,0.3-4.5,2.1-4.6,4.9c-0.1,3.9-0.1,7.8,0,11.8
	c0,1.6,0.3,3.2,2.1,4.1c-0.3,0-0.6,0.1-0.9,0.1c-6.2,0-12.3,0.1-18.5,0c-1.4,0-3-0.3-4.3-0.8c-3-1.1-4.5-3.4-4.7-6.6
	c-0.1-1.5,0-2.9,0-4.8c-1.7,0.7-3.2,1.1-4.6,1.9c-1.1,0.6-1.6,1.7-1.5,3.1c0.2,1.4,0.9,2.5,2.3,2.8c1.2,0.3,2.4,0.4,3.8,0.5
	c-0.6,1.2-1.1,2.4-1.8,3.6c-0.1,0.2-0.5,0.3-0.7,0.3c-2.9,0-5.8,0.2-8.7-0.8c-3.6-1.2-5.7-3.7-5.7-6.7c0-3.3,1.9-6,5.6-7.2
	c2.2-0.7,4.5-1.1,6.7-1.7c1-0.3,2-0.5,2.8-1c1.7-1,1.6-2.8-0.1-3.8c-1.5-0.9-3.2-0.9-4.8-0.6c-2,0.4-4,1.1-6,1.6
	c0.6-1.9,1.2-3.9,1.9-5.9c0.1-0.2,0.4-0.5,0.7-0.6c4.8-1.1,9.6-1.4,14.3,0.5c3.7,1.4,5.2,4.4,5.3,8.1c0.1,2.9,0.1,5.8,0.2,8.6
	c0,4.2,2.2,6,6.5,5.3c0-0.4,0.1-0.7,0.1-1.1c0-5.7,0-11.4,0-17c0-0.4,0-0.7,0-1.1C365.8,78.7,365.4,77.4,363.9,76.6z"/>
<path class="st1" d="M403.1,77.9c0-3.4,0.1-6.7,0-10c0-1.4-0.6-2.5-2.1-3.2c4-0.2,8-0.3,12.2-0.5c0,0.5,0,1,0,1.5
	c0,11,0,22.1,0,33.1c0,0.7,0,1.4,0.2,2c0.2,1.2,0.7,2.3,2.1,2.8c-4,0-8.1,0-12.2,0c0-0.4-0.1-0.9-0.1-1.3c0-5,0-9.9,0-14.9
	c0-1.1-0.1-2.2-0.5-3.2c-1-2.7-4.3-3.2-6.1-1c-0.6,0.8-1.1,1.8-1.4,2.7c-0.7,2.5-0.7,5.1,0,7.6c1,3.9,3,5.4,7.1,5.4
	c-0.8,1.5-1.6,3-2.5,4.4c-0.3,0.4-1.1,0.5-1.7,0.6c-4,0.4-7.2-1-10-3.9c-5.6-5.9-4.7-17.1,1.9-21.8c3.8-2.7,7.7-3,11.9-0.9
	c0.4,0.2,0.7,0.4,1.1,0.5C402.9,77.9,402.9,77.9,403.1,77.9z"/>
<path class="st1" d="M175.8,64.2c1.2,0,2.4,0,3.7,0c2.8,0,5.6,0,8.4,0c0.9,0,1.2,0.3,1.5,1.1c2.8,8.5,5.7,17,8.6,25.4
	c0.1,0.4,0.3,0.9,0.6,1.6c1.3-4.1,2.4-7.7,3.6-11.4c1.1-3.5,2.2-6.9,3.3-10.4c1-3.2,0.6-4.3-2.2-6.2c3.6,0,7,0,10.6,0
	c-4.5,13.2-8.9,26.3-13.4,39.5c-5.7-1.5-10.4-3.8-12.5-9.8C185,85.6,182,77.3,179,69c-0.7-1.8-1.4-3.6-3.3-4.5
	C175.7,64.4,175.8,64.3,175.8,64.2z"/>
<path class="st1" d="M420.9,63.6c-2.4,0-4.4,2-4.4,4.4c0,2.4,2,4.4,4.4,4.4c2.4,0,4.4-2,4.4-4.4C425.3,65.5,423.3,63.6,420.9,63.6z
	 M420.9,71.8c-2.1,0-3.8-1.7-3.8-3.8c0-2.1,1.7-3.8,3.8-3.8c2.1,0,3.8,1.7,3.8,3.8C424.7,70.1,423,71.8,420.9,71.8z"/>
<g>
	<g>
		<path class="st2" d="M419.2,70V66h1.7c0.4,0,0.6,0,0.8,0.1c0.2,0.1,0.3,0.2,0.4,0.4c0.1,0.2,0.2,0.4,0.2,0.6
			c0,0.3-0.1,0.5-0.3,0.7c-0.2,0.2-0.5,0.3-0.8,0.4c0.1,0.1,0.2,0.1,0.3,0.2c0.2,0.1,0.3,0.3,0.4,0.5l0.7,1.1H422l-0.5-0.8
			c-0.2-0.2-0.3-0.4-0.4-0.5c-0.1-0.1-0.2-0.2-0.3-0.3c-0.1-0.1-0.2-0.1-0.2-0.1c-0.1,0-0.2,0-0.3,0h-0.6V70H419.2z M419.7,67.8h1.1
			c0.2,0,0.4,0,0.6-0.1c0.1,0,0.2-0.1,0.3-0.2c0.1-0.1,0.1-0.2,0.1-0.4c0-0.2-0.1-0.3-0.2-0.5c-0.1-0.1-0.3-0.2-0.6-0.2h-1.2V67.8z"
			/>
	</g>
</g>
<path class="st3" d="M80.3,97.8c1.2,0,2.5,0,3.8,0c0.1-0.3,0.1-0.7,0.2-1.1c0.5,0,0.9,0,1.5,0c0.1,0.4,0.1,0.7,0.2,1.1
	c1.3,0,2.5,0,3.8,0c0.1-0.3,0.2-0.7,0.2-1c0.7-0.5,1.5,0,1.7,1c1.2,0,2.5,0,3.8,0c0.1-0.3,0.2-0.7,0.2-1c0.8-0.1,1.6-0.3,1.5,1
	c1.3,0,2.6,0,3.9,0c0.1-0.3,0.1-0.7,0.2-1c0.5,0,0.9,0,1.4,0c0.1,0.3,0.2,0.6,0.3,1.1c3.2,0.1,6.6,0.5,9.3-2.3
	c-4.4,0.9-8.6,0.5-12.8,0.5c-26.8,0-53.7,0-80.5,0.1c-1.3,0-2.1-0.2-2.4-1.6c-0.2-1-0.8-1.8-2-2c-0.2,0-0.5-0.5-0.9-1
	c3.2,0,5.9,0,8.7,0c0-0.1,0-0.2,0.1-0.4c-0.4-0.1-0.7-0.3-1.1-0.3c-1.7,0-3.4,0-5.2,0c-0.7,0-1.1-0.2-1.3-0.9
	c-0.3-0.9-0.7-1.7-1.7-2c-0.3-0.1-0.5-0.5-0.8-1c1.3,0,2.3,0,3.4,0c-0.9-1.2-1.6-2.2-2.4-3.3c-0.2-0.3-0.7-0.3-1.1-0.4
	c-3.7-0.5-7.4-1-11.2-1.5c-0.4-0.1-0.8-0.2-1.2-0.2c0-0.1,0-0.3,0-0.4c0.4,0,0.8,0,1.1,0c1.7,0.2,3.4,0.4,5.1,0.6
	C7.3,82,8.3,82,9.1,81.1c0.2-0.2,0.4-0.3,0.6-0.5c1.5-1.2,1.5-1.2,0.8-3c-3.3-8.8-3.2-17.5,1-26c0.3-0.5,0.6-1,0.9-1.6
	c2.3,1.5,4.5,3.1,6.8,4.5c0.5,0.3,1.2,0.5,1.9,0.5c2.5-0.1,5-0.3,7.6-0.7c-0.6-0.3-1.3-0.7-1.7-0.9c0.4-0.4,1-0.8,1.4-1.3
	c3.2-3.5,3.5-8.1,4.5-12.4c0.2-0.7,0.3-1.5,0.4-2c-1.4-0.6-2.7-1.2-3.8-1.7c2.2-2.2,4.8-4.1,5.9-7.1c-1.5-0.6-2.7-1.1-3.8-1.6
	c0.5-0.4,1-0.6,1.2-1c1.6-2.1,3.1-4.2,4.5-6.1c1.2,0.3,2.4,0.5,3.6,0.9c1.6,0.6,2.6,0.1,3.7-1.1C50.2,13.6,56,7.5,61.7,1.3
	c0.4-0.4,0.7-0.9,1-1.3c0.7,0.4,1.4,0.8,2.2,1.1c10.9,4.7,21.9,9.4,32.8,14.2c0.8,0.3,1.2,0.3,1.7-0.4c1.3-1.8,2.6-3.6,4.2-5.7
	c3.8,4,7.6,8.1,11.6,12c14.3,14.1,28.7,28.1,43,42.2c0.9,0.9,1.7,1.6,2.9,0.6c0.1-0.1,0.2,0,0.3,0c0,0,0.1,0,0,0
	c-5.5,4.6-10.1,10.1-15.1,15.2c-5.1,5.1-10,10.3-15,15.5c-0.3,0.3-0.6,0.7-0.8,1c-0.3-0.2-0.6-0.5-1-0.6c-3-0.7-6.1-1.4-9.1-2.2
	c-1.1-0.3-1.7,0.3-2.3,1c-1.2,1.6-2.2,3.3-3.5,4.8c-1,1.3-2.1,2.5-2.4,4.2c0,0.2-0.4,0.5-0.7,0.6c-0.2,0.1-0.6,0-0.8,0
	c-30.2,0-60.5,0-90.7,0c-0.4,0-0.9,0-1.2,0c-0.5-2.4,1.2-4.7-0.5-7c1.8,0,3.6,0,5.4,0c-0.2,0.3-0.4,0.7-0.7,1.1c1.4,0,2.7,0,4,0
	c0-0.1-0.1-0.1-0.1-0.2c0.4-0.3,0.8-0.7,1.3-0.8c0.3,0,0.6,0.5,0.8,1c1.2,0,2.5,0,3.8,0c0.1-0.3,0.2-0.6,0.3-1c0.4,0,0.9,0,1.4,0
	c0.1,0.3,0.1,0.7,0.2,1c1.3,0,2.5,0,3.8,0c0.1-0.3,0.2-0.6,0.3-1c0.4,0,0.9,0,1.5,0c0.1,0.3,0.1,0.6,0.2,1c1.3,0,2.5,0,3.9,0
	c0-0.3,0.1-0.7,0.1-1c0.9-0.1,1.8-0.4,1.6,1c1.3,0,2.6,0,3.9,0c0.1-0.3,0.1-0.6,0.2-0.9c0.7-0.5,1.5,0,1.7,0.9c1.3,0,2.5,0,3.8,0
	c0-0.1-0.1-0.2-0.1-0.2c0.4-0.3,0.8-0.8,1.2-0.8c0.3,0,0.7,0.5,1.1,0.8c-0.1,0.1-0.1,0.2-0.2,0.3c1.2,0,2.5,0,3.8,0
	c0.1-0.3,0.2-0.6,0.3-1c0.4,0,0.9,0,1.4,0c0.1,0.3,0.2,0.7,0.2,1c1.3,0,2.5,0,3.8,0c-0.1-1.2,0.6-1.3,1.6-1c0.1,0.3,0.2,0.6,0.3,1
	c1.3,0,2.5,0,3.9,0c0.1-0.3,0.1-0.7,0.2-1c0.5,0,0.9,0,1.4,0c0.1,0.3,0.1,0.7,0.2,1c1.3,0,2.5,0,3.8,0c-0.1-0.1-0.1-0.2-0.2-0.3
	c0.4-0.3,0.8-0.7,1.3-0.7c0.3,0,0.6,0.5,1,0.8C80.4,97.5,80.3,97.6,80.3,97.8z M131,77.5c0.6,0.1,1.2,0.5,1.7,0.3
	c2.2-1,4.3-2.1,6.4-3.1c0-0.1-0.1-0.2-0.1-0.3C136.3,75.4,133.7,76.5,131,77.5c-1,0.4-2,0.8-3.1,1.2c0.3,0.4,0.4,0.8,0.6,1.1
	C130.8,79,131,78.9,131,77.5z M115.7,90.1c0.9-0.2,1.8-0.4,2.8-0.6c0,0.8,0,1.3,0,2.1c1.6-0.4,2-1.8,3-2.7c-1,0-2,0-3,0.2
	C117.5,89.3,116.6,89.7,115.7,90.1c-2,1-4.1,2-6.4,3.2C112.1,93.7,113.7,92.8,115.7,90.1z M55.9,8.5c-0.1,0.1-0.3,0.1-0.4,0.2
	c-3.9,4.2-7.7,8.4-11.6,12.6c0,0.1,0,0.1-0.1,0.3c1.8,0.4,3.6,0.8,5.5,1.2c2.8,0.6,2.8,0.6,4.2-1.8c0.2-0.3,0.1-0.8,0.1-1.3
	c1.9-0.2,5.8-5.8,6.3-9.6C58.1,10.5,57,9.3,55.9,8.5c1.2-0.1,2.5-0.1,3.8-0.1c0.3,0,0.8-0.3,0.9-0.5c0.6-2,1.1-4.1,1.7-6.2
	c-1.4,1.1-2.5,2.4-3.7,3.6C57.7,6.4,56.8,7.4,55.9,8.5z M84.5,91.2c0.2-3.8,0.5-7.3,0.7-10.9c0-0.4-0.4-0.8-0.7-1.1
	c-2.2-1.9-4.5-3.7-6.6-5.8c-1.9-1.9-3.8-2.4-6.5-2.3c-3.5,0.1-7,0.2-10,2.3c0,0-0.1,0-0.1,0.1c-0.6,0.2-0.8,0.6-0.8,1.3
	c0,2,0,3.9,0,5.9c0,3.1,0,6.2,0,9.3c0.5,0.2,0.9,0.3,1.3,0.6c0.4,0.2,0.6,0.6,1,0.8c0.3,0.2,0.7,0.4,1.1,0.4
	C70.7,91.4,77.5,92.2,84.5,91.2z M112.7,51.8c2.1,3.7,4.1,7.2,6,10.7c0.8,1.5,1.7,2.3,3.4,2c0.2,0,0.5,0.1,0.8,0.1
	c0,0.1,0,0.2,0.1,0.2c-0.6,0.3-1.1,0.5-1.8,0.9c0,0.4-0.1,0.9,0.1,1.3c2.1,3.8,4.2,7.5,6.3,11.4c5.3-2.1,10.6-4.1,16-6.3
	c-13.1-12.3-26-24.4-39-36.6c2.7,3.8,5.5,7.4,8.3,11.1c1.1,1.5,2.2,2.7,4.2,2.3c0,0,0.1,0.1,0.1,0.1
	C115.8,49.9,114.3,50.8,112.7,51.8z M110.9,28.6c0.4,0.5,0.8,1,1.2,1.4c11.1,12.9,22.2,25.8,33.2,38.7c1.8,2.1,1.8,2.1,4.3,0.9
	c2.3-1.2,4.7-2.3,7.1-3.5c-0.4-0.3-0.6-0.6-0.9-0.8c-14.2-12.2-28.3-24.4-42.5-36.7C112.5,27.7,111.8,27.6,110.9,28.6z M146.7,70.8
	c-12.1-14-24.1-28-35.9-41.7c-2.2,0.7-4.2,1.3-6.3,1.9c-0.4,0.1-0.9,0.4-0.9,0.7c-0.1,0.4,0.3,0.8,0.5,1.2c0,0.1,0,0.2,0,0.4
	c-0.2,0.1-0.4,0.3-0.7,0.5c0.3,0.3,0.5,0.5,0.7,0.7c12.8,12,25.7,24.1,38.5,36.1C144.3,72.2,144.3,72.2,146.7,70.8z M101,91.1
	c1.2-0.1,2.4,0.1,3.4-0.2c1.9-0.6,3.8-1.3,5.5-2.3c4.4-2.5,8.6-5.1,13.1-7.8c-0.4-0.3-0.7-0.6-1-0.8c-3-2.7-6.1-5.3-9-8.1
	c-1.2-1.1-2.3-1.6-3.9-1c-0.6,0.2-1.3,0.2-2,0.3c-2,0.2-4,0.5-6.1,0.7C101,78.2,101,84.5,101,91.1z M104.9,20.7
	c0.2,0.2,0.4,0.4,0.6,0.5c17,14.6,33.9,29.2,50.9,43.9c1,0.9,1.6,0.3,2.5-0.3c-17.4-17.1-34.8-34.1-52.1-51.1
	c-0.1,0.1-0.1,0.1-0.2,0.2c1.2,1.3,2,3.1,3.8,4.3C108.5,19,106.8,19.8,104.9,20.7z M65.5,27.1c0.1,0.1,0.2,0.1,0.3,0.2
	c8.9,2.2,17.9,2.6,26.9,0.8c0.8-0.2,1.7-0.4,2.3-0.9c1.7-1.5,3.2-3.1,4.7-4.8c0.2-0.2,0.3-0.6,0.5-1.1c-0.9,0.1-1.6,0.2-2.2,0.1
	c-3.5-0.1-7,0-10.5-0.5c-7.3-1-13.9-3.8-20.2-7.5c-0.3-0.2-0.7-0.2-1-0.3c0.1,0.4,0.2,0.8,0.4,1.1c1.3,1.6,2.6,3.1,3.9,4.7
	c0.4,0.4,0.9,0.7,1.2,1C69.9,22.2,67.7,24.6,65.5,27.1z M89,48.8c0-0.1,0.1-0.2,0.1-0.3C80.7,41.9,72.4,35.3,64,28.7
	c0,0.4,0.2,0.7,0.4,1c2.9,4.3,5.8,8.6,8.6,13c0.9,1.5,1.8,2.7,3.8,2.2c0.1,0,0.1,0.1,0.1,0.1c-3.5,2.2-7,4.5-10.6,6.8
	c2.4,2.1,4.6,4.1,6.8,6.1c0.2,0.2,0.6,0.2,0.9,0.2c5.5-1.4,10.4-4,14.8-7.5c-0.3-0.4-0.4-0.8-0.7-1.1c-0.3-0.2-0.8-0.3-1.2-0.4
	c0-0.1,0-0.2,0.1-0.3C87.6,48.8,88.3,48.8,89,48.8z M67.3,11.9c0.3,0.1,0.5,0.3,0.8,0.4c5,2.3,10.2,4.1,15.6,4.9
	c3.7,0.6,7.5,0.7,11.2,0.9c1.4,0.1,2.9-0.3,3.4-2.1C86.8,11.1,75.4,6.2,64,1.2c0.8,1.5,1.7,2.7,2.7,3.9c1,1.1,1.5,2.7,3,3.4
	c-0.2,0.1-0.4,0.2-0.5,0.4C68.5,9.9,67.9,10.9,67.3,11.9z M12.6,50.7C7.2,59.5,7.7,71.4,11.7,79c1.1-0.9,2.2-1.8,3.4-2.7
	c0.7-0.5,0.9-1,0.8-1.8c-0.3-6.6-0.6-13.2-0.7-19.7C15.1,52.7,14.4,51.5,12.6,50.7z M65.9,29.3c0,0.1-0.1,0.2-0.1,0.2
	c8.1,6.4,16.2,12.9,24.4,19.3c1.5-2.1,3-4.1,4.5-6.2C85,38.1,75.5,33.7,65.9,29.3z M67,29.3c9.3,4.3,18.6,8.7,28.2,13.1
	c0.8-3.4,1.6-6.6,2.4-10.1C87.1,33.7,76.9,32.7,67,29.3z M16.2,53.2c0.6,7,1.2,13.7,1.9,20.7c2.7-2.1,5.2-4.1,7.5-6
	c-1.8-0.8-3.6-1.6-5.4-2.4c0-0.1,0.1-0.2,0.1-0.3c0.4,0,0.8,0,1.3,0c0.6,0,1.4,0.1,1.7-0.2c1.4-1.3,2.6-2.8,4-4.2
	C23.8,58.4,20.1,55.9,16.2,53.2z M105.1,92.8c-27.3,0-54.6,0-82.1,0c0.4,0.6,0.7,1.1,0.9,1.6c0.2-0.3,0.5-0.7,0.8-1.1
	c0.3,0,0.7,0,1.2,0c0.1,0.4,0.1,0.7,0.2,1.1c1.3,0,2.5,0,3.8,0c0.1-0.4,0.2-0.8,0.3-1.1c0.5,0,0.9,0,1.4,0c0.1,0.4,0.2,0.7,0.2,1.1
	c1.3,0,2.6,0,3.8,0c0.1-0.4,0.2-0.7,0.2-1.1c0.5,0,0.9,0,1.4,0c0.1,0.4,0.2,0.8,0.3,1.1c1.3,0,2.6,0,3.8,0c0.1-0.4,0.2-0.8,0.3-1.1
	c0.5,0,0.9,0,1.4,0c0.1,0.4,0.1,0.7,0.1,1.1c1.4,0,2.6,0,3.9,0c0.1-0.4,0.1-0.7,0.2-1c0.5,0,1,0,1.5,0c0.1,0.4,0.1,0.7,0.2,1
	c1.4,0,2.6,0,3.9,0c0.1-0.4,0.2-0.7,0.3-1.1c0.5,0,0.9,0,1.4,0c0.1,0.4,0.1,0.7,0.2,1.1c1.3,0,2.6,0,3.9,0c0.1-0.4,0.2-0.7,0.2-1.1
	c0.5,0,0.9,0,1.4,0c0.1,0.4,0.2,0.7,0.3,1.1c1.3,0,2.6,0,3.8,0c0.1-0.4,0.2-0.7,0.3-1.1c0.5,0,0.9,0,1.4,0c0.1,0.4,0.1,0.7,0.2,1.1
	c1.3,0,2.6,0,3.9,0c0.1-0.4,0.2-0.7,0.2-1.1c0.5,0,1,0,1.4,0c0.1,0.4,0.2,0.7,0.2,1c1.3,0,2.6,0,3.9,0c0.1-0.4,0.2-0.7,0.2-1.1
	c0.5,0,0.9,0,1.4,0c0.1,0.4,0.2,0.8,0.3,1.1c1.3,0,2.6,0,3.9,0c0.1-0.4,0.1-0.7,0.2-1.1c0.5,0,1,0,1.5,0c0.1,0.4,0.1,0.7,0.1,1.1
	c1.4,0,2.6,0,3.9,0c0.1-0.4,0.1-0.7,0.2-1.1c0.5,0,0.9,0,1.4,0c0.1,0.4,0.2,0.7,0.2,1.1c1.3,0,2.6,0,3.8,0c0.1-0.4,0.1-0.7,0.2-1.1
	c0.5,0,0.9,0,1.4,0c0.1,0.4,0.2,0.7,0.3,1.1c1.3,0,2.5,0,3.8,0c0.1-0.4,0.2-0.7,0.2-1.1c0.5,0,1,0,1.4,0c0.1,0.4,0.2,0.7,0.3,1.1
	c1.7,0,3.3,0,4.9,0C105.3,93.8,105.2,93.3,105.1,92.8z M74,44.9c-3.6-5.4-7.1-10.6-10.5-15.8c-0.1,0-0.3,0-0.4,0
	c-0.2,0.5-0.5,1.1-0.5,1.6c0,2.5,0.1,5,0.1,7.5c0,2.4,0,4.8,0,7.4c1.8,0,3.3,0,4.8,0c0.2,0,0.5,0,0.6-0.1c0.5-1,1.4-0.6,2.1-0.6
	C71.3,44.9,72.5,44.9,74,44.9z M93,52.1c-1.2-0.5-2.3-1-3.5-1.5c-4.5,3.7-9.6,6.5-15.5,8c1.4,1.5,2.5,2.8,4.7,2.5
	c1.7-0.2,3.5-0.2,5.3-0.3c0.9-0.1,1.7-0.2,2.9-0.4c-1-0.9-1.8-1.6-2.7-2.3c0.1-0.1,0.2-0.2,0.3-0.3c1,0.8,2,1.5,3,2.3
	c1.4-1,2.7-1.9,4-2.8c0.2-0.2,0.5-0.5,0.5-0.7C92.3,55.1,92.6,53.6,93,52.1z M158,66.1c-0.3,0-0.4,0-0.5,0.1c-3.2,1.7-6.4,3.3-9.5,5
	c-0.3,0.2-0.6,0.5-0.9,0.8c-5.3,6.6-10.7,13.3-16,19.9c-0.6,0.8-0.6,1.6-0.4,2.7C139.8,85,148.9,75.6,158,66.1z M111.9,70.4
	c3.7,3.3,7.4,6.6,11,9.8c0.2,0.2,0.7,0.2,0.9,0.1c1.1-0.5,2.2-1.2,3.3-1.8c-1.8-3.3-3.7-6.5-5.5-9.8c-1.2-2.2-1.2-2.2-3.3-0.9
	c-0.6,0.4-1.3,0.8-2,1C114.9,69.3,113.5,69.8,111.9,70.4z M103,62c0,0.1,0,0.3,0.1,0.4c1.6,1.5,3,3.3,5.6,2.8c0.8-0.2,1.6,0,2.4,0
	c0.2,0,0.6,0.1,0.7-0.1c0.7-1.1,1.8-0.6,2.7-0.6c1.3-0.1,2.6,0,3.9,0c-3.7-3.2-7.4-6-11.2-8.9c-0.2-0.2-0.6-0.3-0.8-0.2
	c-1,0.3-1.9,0.8-2.9,1.2c-0.2,0.1-0.4,0.3-0.4,0.5c0,1.2,0,2.4,0,3.5c0.6,0.1,1,0.2,1.4,0.3c0,0.1,0.1,0.2,0.1,0.3
	C104,61.4,103.6,61.7,103,62z M98.1,29.9c-1-0.4-2-0.5-2.7-1c-0.7-0.6-1.3-0.7-2.2-0.5c-7,1.5-14,1.6-21.1,0.6
	c-2.2-0.3-4.4-0.8-7-1.3c0.6,0.3,0.9,0.4,1.2,0.5c9.5,3.8,19.4,5,29.6,3.9C98,31.9,97.9,31.8,98.1,29.9z M100.5,20
	c-1-0.3-1.9-0.6-2.7-0.9c-0.6-0.2-1.2-0.5-1.8-0.6c-1.7,0-3.4,0.2-5.1,0.1c-8-0.4-15.6-2.5-22.8-5.8c-0.3-0.2-0.7-0.3-1-0.4
	c0.2,0.4,0.5,0.7,0.8,0.8c2.4,1.2,4.8,2.6,7.3,3.7c7.7,3.4,15.8,4.9,24.3,4C100.1,20.9,100.6,20.8,100.5,20z M42.3,70.3
	c-1.4,1.3-2.6,2.7-4.2,3.8c-2,1.4-2.8,3.1-2.4,5.4c0.1,1,0,2,0,3.1c1.4-0.4,2.6-0.8,3.8-1.1c0.8-0.2,1.2-0.6,1.4-1.4
	c0.7-2.4,1.4-4.8,2.2-7.2C43.6,71.8,43.4,71,42.3,70.3z M26.2,68c-1.5,1.2-3.1,2.4-4.6,3.7c-1.1,0.9-2.7,1.6-3.2,2.8
	c-0.5,1.2,0,2.8,0.2,4.2c0.1,1.3,0.3,2.6,0.4,4.3C22.1,78.1,26.3,74.1,26.2,68z M85.2,79.2c0.3-3.1,0.5-6.1,0.7-9
	c-1-0.2-1.8-0.6-2.6-0.5c-2.5,0.3-5,0.9-7.6,1.4C78.9,73.7,82,76.4,85.2,79.2z M102.9,35.1c0,3.6,0,6.9,0,10.1c0,0.4,0.4,0.9,0.7,1
	c1.5,0.8,3.1,1.5,4.7,2.2c0.6,0.3,1.3,0.3,2.4,0.5C107.9,44.2,105.5,39.8,102.9,35.1z M107.1,55c4,3.1,7.9,6.1,11.8,9.2
	c0.1-0.1,0.1-0.1,0.2-0.2c-2.2-3.9-4.4-7.9-6.6-11.8C110.6,53.1,108.9,54,107.1,55z M37.4,52.8c2.3-0.6,4.4-1.1,6.7-1.6
	c-2.3-3.5-4.4-6.8-6.7-10.2C37.4,45,37.4,48.8,37.4,52.8z M63.5,58.5c3.1,0.5,6.2,0.6,9.4-0.2c-1.3-1.2-2.4-2.2-3.5-3.2
	c-1.1-1-2.2-2-3.3-3c-3.5,2.1-3.5,2.1-3.1,4.8c0.5,0.1,1,0.1,1.7,0.2C64.2,57.6,63.9,58,63.5,58.5z M60.5,70
	c4.2,1.6,7.4-0.1,10.4-2.4c-0.9-1.3-2.1-1.7-3.6-1.6c-1.3,0.1-2.7,0-4.1,0c-0.9,0-1.8,0-2.7,0C60.5,67.5,60.5,68.8,60.5,70z
	 M45.8,79.9c-1.6,0.5-3,1-4.3,1.4c-0.3,0.1-0.5,0.4-0.6,0.6c-0.7,2.2-1.3,4.3-2,6.6c1.6,0.1,3,0.2,4.6,0.3
	C44.2,85.9,45,83.1,45.8,79.9z M38.9,28.8c1.5,1.3,3,2.8,4.7,4.2c0.2,0.2,0.7,0.2,1,0.1c2.5-0.7,2.6-3.2,4.2-4.7
	c-2.1-0.3-3.8-0.6-5.5-0.8c-0.2,0-0.4,0-0.6,0C41.4,27.9,40.2,28.3,38.9,28.8z M130.6,91.4c0.1,0,0.2,0.1,0.2,0.1
	c4.6-5.7,9.2-11.4,13.8-17.2c-4.6,4.2-9.1,8.5-13.5,12.8c-0.2,0.2-0.3,0.5-0.3,0.7C130.7,89,130.6,90.2,130.6,91.4z M51.7,41
	c-0.5-0.5-1.1-0.9-1.5-1.4c-0.6-0.7-1.1-0.6-1.9-0.3c-1.6,0.8-3.3,1.4-5,2c-0.7,0.3-1.5,0.5-2.5,0.8c2.8,0.8,5.3,1.6,7.8,2.2
	c0.3,0.1,0.8-0.1,1-0.3C50.2,43.1,50.9,42.1,51.7,41z M121,91.6c3.1,0.3,6,0.5,9,0.8c0-1.7,0-3.2,0-4.6
	C126.3,87.5,123.4,88.9,121,91.6z M57,45.3c1-4.5,1.9-8.7,2.9-13c-0.1-0.1-0.2-0.2-0.3-0.2c-0.9,0.9-2.2,1.6-2.6,2.7
	C56,37.3,55.5,40,55,42.7c-0.1,0.3,0,0.7,0.2,0.9C55.7,44.1,56.3,44.6,57,45.3z M51.5,23.9c-2.8-0.6-5.3-1.2-7.9-1.8
	c-0.2,0-0.6,0.1-0.7,0.2c-0.7,0.7-1.3,1.5-2,2.2c0.5,0.7,0.9,1.3,1.4,1.9c0.2,0.2,0.6,0.4,0.8,0.3C46,26.3,48.6,25.2,51.5,23.9z
	 M65.8,13.9c-1.8,1.6-3.5,3.1-2.5,5.8c2.3,0,4.7,0,7.3,0C69,17.6,67.4,15.8,65.8,13.9z M48,48.7c-3.3-2.5-6.3-4.8-9.4-7.2
	c1.6,2.9,3.3,5.6,5.1,8.2c0.9,1.4,1.3,1.6,2.8,0.8C47,50.3,47.4,49.4,48,48.7z M124.2,82.1c-0.5-0.9-1.1-1-1.9-0.4
	c-2.2,1.4-4.5,2.7-6.8,4.1c-2,1.2-4.1,2.5-6.1,3.7c0,0.1,0.1,0.2,0.1,0.3c1.2-0.2,2.6-0.1,3.7-0.6c2.9-1.4,5.7-3,8.5-4.6
	c-0.1-0.4-0.1-0.7-0.2-1C122.5,83,123.3,82.5,124.2,82.1z M89.6,83.2c0.1,0,0.3,0,0.4-0.1c1.6-3.8,3.2-7.6,4.8-11.4
	c-1.8,0.2-0.8,2.1-2,3c0.2-1.2,0.4-2.1,0.6-3.2c-0.7-0.1-1.3-0.1-1.8-0.2c-0.1,0.2-0.2,0.3-0.2,0.4c-0.8,3.3-1.5,6.7-2.2,10.1
	C89,82.2,89.4,82.7,89.6,83.2z M88.6,81.9c0.8-3.6,1.6-7.1,2.4-10.7c-0.7-0.1-1.3-0.2-1.9-0.3c-0.4,1.8-0.8,3.4-1.2,5.1
	c-0.1,0-0.2-0.1-0.3-0.1c0.3-1.7,0.7-3.4,1.1-5.2c-0.5-0.1-0.8-0.1-1.4-0.2c0,3,0.1,5.9,0,8.7C87.1,80.5,87.3,81.3,88.6,81.9z
	 M43.9,71.9c-0.9,3.1-1.8,6-2.7,9c0.4-0.1,0.6-0.2,0.8-0.2c4-1.3,4-1.3,4.1-5.4c0-0.4-0.1-0.8-0.3-1.1
	C45.3,73.4,44.6,72.8,43.9,71.9z M49.8,77.8c0.5-2.2,0.9-4.2,1.4-6.3c0.6-2.7,0.6-2.7-2.2-3.6c-0.3,1.7-0.8,3.3-1,5
	C47.7,74.8,47.7,76.6,49.8,77.8z M49.1,38.7c-1-1-1.9-1.7-2.7-2.5c-0.6-0.7-1.2-0.5-1.8-0.1c-2,1.3-2.8,3.5-4.2,5.3
	c0.1,0.1,0.2,0.3,0.3,0.4C43.4,40.8,46.2,39.8,49.1,38.7z M71.9,67.7c1,0.9,1.9,1.7,2.9,2.5c0.2,0.2,0.5,0.3,0.8,0.3
	c2.2-0.3,4.5-0.6,6.7-0.9c-2.5-1.2-5-2.2-7.6-3.2c-0.2-0.1-0.5,0-0.8,0.1C73.2,66.8,72.6,67.2,71.9,67.7z M35.9,75.6
	c2.2-2,4.2-3.8,6.2-5.7c-0.6-0.7-1.1-1.2-1.5-1.8c-4.8,2.2-5,2.6-4.8,7C35.8,75.2,35.8,75.2,35.9,75.6z M35.8,88.3
	c2.6,0.5,2.6,0.5,3.3-1.8c0.2-0.6,0.3-1.1,0.5-1.7c0.3-1,0.6-1.9,0.9-3c-1.5,0.4-2.8,0.8-4,1.2c-0.3,0.1-0.6,0.4-0.7,0.7
	C35.8,85.1,35.8,86.7,35.8,88.3z M69.8,21.8c-2.4,0-4.4,0-6.6,0c0,1.2-0.1,2.4,0,3.5c0.1,0.6,0.5,1.1,0.9,1.5c0.1,0.2,0.8,0.1,1-0.1
	C66.7,25.1,68.2,23.5,69.8,21.8z M109.4,27.5c-2-2.3-3.9-4.5-5.9-6.8c0,2.4,0,4.6,0,6.8C105.5,27.5,107.3,27.5,109.4,27.5z
	 M114,48.6c-3.3-4.3-6.6-8.5-9.9-12.7c0,0.4,0.1,0.7,0.3,1c1.8,3.2,3.7,6.4,5.4,9.7C110.7,48.5,111.8,49.3,114,48.6z M46.5,32.4
	c0.1,0.1,0.1,0.2,0.2,0.3c2.2-0.7,4.4-1.4,6.6-2c1.3-0.4,1.9-1.1,1.9-2.4c-1.8,0-3.7,0-5.5,0c-0.2,0-0.5,0.1-0.6,0.3
	C48.1,29.9,47.3,31.2,46.5,32.4z M23.2,84c1.2-0.4,2.1-0.6,2.3-1.8c0.4-2,0.9-4.1,1.3-6.1c0.3-1.6,0.7-3.3,1-4.9
	c-1,1.1-2.1,2.2-2.4,3.5C24.5,77.7,24,80.7,23.2,84z M28,81.2c1.3-0.5,1.9-1.2,2.1-2.4c0.1-1.3,0.5-2.6,0.8-3.9
	c0.5-2.4,1-4.7,1.5-7.1c-0.1-0.1-0.2-0.2-0.3-0.3c-0.5,0.3-1.2,0.5-1.3,0.8C29.8,72.5,29,76.8,28,81.2z M103.5,10.7
	c0,2.6,0,4.8,0,7.1c1.8,0,3.5,0,5.4,0C107.1,15.4,105.4,13.1,103.5,10.7z M63.1,8.3c1.8,0,3.4,0,5.3,0c-1.8-2.4-3.5-4.6-5.3-7.1
	C63.1,3.7,63.1,5.9,63.1,8.3z M46.5,35.7c0.9,0.8,1.7,1.6,2.6,2.3c0.1,0.1,0.4,0.2,0.6,0.1c2.5-0.6,4.1-2.7,4.1-5.3
	C51.4,33.8,49,34.7,46.5,35.7z M143.3,74.7c0-0.1-0.1-0.1-0.1-0.2c-3.6,2.7-7.1,5.5-10.8,8.1c-1.5,1-1.7,2.3-1.5,4
	C135.1,82.6,139.2,78.7,143.3,74.7z M30.3,67.8c-0.1-0.1-0.3-0.2-0.4-0.3c-0.1,0.2-0.1,0.5-0.3,0.6c-1.2,1.3-1.3,2.9-1.6,4.4
	c-0.7,3.3-1.4,6.6-2.1,10c1.1-0.3,1.7-1,1.9-2.1c0.7-3.7,1.5-7.4,2.2-11C30.1,68.9,30.2,68.3,30.3,67.8z M16,76.2
	c-1.6,1.3-2.9,2.3-4.2,3.3c1.4,3.3,1.8,3.5,4.2,3.3C16,80.7,16,78.6,16,76.2z M46,55.3c0.1-0.1,0.1-0.2,0.2-0.3c0.5,0.3,1,0.6,1.6,1
	c0.3-1.1,0.5-2.1,0.8-3.2C48,53,47.5,53.1,47,53.3c-0.6,0.2-1.4,0.3-1.7,0.7c-1.1,1.7-2,3.4-3,5.2c0.4,0.3,0.7,0.6,1,0.8
	c1.4-1.1,2.8-2.2,4.3-3.3C47.1,56.2,46.5,55.7,46,55.3z M37.5,61.1c0.5,0.1,0.8,0.2,1.1,0.2c0.6,0.1,1.5,0.5,1.8,0.2
	c0.6-0.5,0.9-1.4,1.3-2.2c0-0.1-0.1-0.3-0.2-0.4c-1.3-1.2-2.6-2.4-4-3.8C37.5,57.3,37.5,59.2,37.5,61.1z M110.6,70.2
	c0-0.1,0.1-0.3,0.1-0.4c-0.5-0.3-0.9-0.8-1.4-0.8c-2.7-0.1-5.5,0-8.2,0c0,0.9,0,1.6,0,2.5C104.3,71,107.5,70.6,110.6,70.2z
	 M49.4,27.9c2-0.1,3.7-0.2,5.3-0.3c0.2,0,0.6-0.3,0.7-0.5c0.2-0.7,0.4-1.4,0.6-2.3c-1.2-0.3-2.3-0.6-3.5-0.8c-0.2,0-0.6,0.1-0.8,0.3
	C51,25.5,50.4,26.6,49.4,27.9z M53.1,52.8c-0.4,0.7-0.8,1.3-1,2c-0.2,0.7-0.2,1.4-0.5,2.1c-0.6,1.2-0.1,1.9,1,2.6
	c0.8,0.5,1.2,0.4,1.4-0.5c0.3-1.1,0.4-2.3,0.8-3.4C55.2,54.3,54.7,53.5,53.1,52.8z M143.2,74c0-0.1-0.1-0.1-0.1-0.2
	c-3.1,1.6-6.1,3.2-9.2,4.8c-1.8,1-2,1.3-1.4,3.5C136,79.4,139.6,76.7,143.2,74z M66.1,51.5c1.7-1.1,3.3-2.2,5-3.3
	c-2.9,0-5.6,0-8.3,0c0,0.1-0.1,0.2-0.1,0.3C63.8,49.4,64.9,50.4,66.1,51.5z M24.6,75.9c-0.1,0-0.1-0.1-0.2-0.1
	c-1.7,2.5-3.3,4.9-5.1,7.5c1.3,0.2,2.3,0.3,3.5,0.4C23.4,81.1,24,78.5,24.6,75.9z M45,34.1c0,0.2,0.1,0.4,0.1,0.6
	c0.5,0.1,1.2,0.3,1.6,0.2c2.2-0.8,4.3-1.6,6.5-2.4c0.8-0.3,1.2-0.9,1.1-1.7c-2.5,0.7-4.9,1.4-7.4,2.2C46.3,33.2,45.7,33.7,45,34.1z
	 M15.7,52.8c-0.1,0-0.2,0-0.3,0c0.4,7.3,0.8,14.7,1.1,22c0.1,0,0.3,0,0.4,0.1c0.1-0.4,0.4-0.9,0.4-1.3c-0.5-6.6-1-13.3-1.5-19.9
	C15.9,53.4,15.8,53.1,15.7,52.8z M44.4,54.8c-2.2,0-4.2,0-6.3,0c0,0.1-0.1,0.2-0.1,0.3c1.3,1.2,2.7,2.5,4.1,3.8
	C42.9,57.4,43.7,56.1,44.4,54.8z M84.6,68.9c-1.2-0.5-2.2-0.8-3-1.2c-0.9-0.4-1.7-1-2.4-1.4c-0.8-0.6-1.5-1.1-2.2-1.6
	c1.6-0.5,3.4,0.4,4.8-0.7c-2.4-0.1-5-0.7-6.8,2c2.8,1,5.5,2,8.3,2.9C83.5,69.1,84,68.9,84.6,68.9z M38.1,39.9c0,0-0.2,0.2-0.4,0.4
	c0.7,0.5,1.3,1,1.9,1.5c1-1.5,2-3,3-4.5c-1.7,0-3.3,0-5,0C37.9,38.2,38,39,38.1,39.9z M35.7,41.9c-2.8,3.1-2.4,7.3-3.6,10.9
	c0.8,0.3,1.3,0.3,1.5-0.6C34.3,48.8,35,45.4,35.7,41.9z M49.5,78.7c-0.1-0.1-0.2-0.2-0.3-0.3c-0.5,0.4-1.4,0.8-1.4,1.2
	c-0.1,2.8-0.1,5.7-0.1,8.7c1-2.8,1.9-5.5,2.8-8.2c0.1-0.2-0.3-0.6-0.5-1.1c-0.5,2.1-0.9,3.9-1.3,5.6c-0.1,0-0.2-0.1-0.4-0.1
	C48.7,82.5,49.1,80.6,49.5,78.7z M101.1,35.1c-1.2,1.3-2.4,2.5-2.6,4.3c-0.1,0.9-0.4,1.8-0.6,2.7c-0.3,1.5-0.3,1.5,1.3,1.9
	C99.8,41.1,100.4,38.1,101.1,35.1z M50.3,77.5c0.1,0.1,0.2,0.1,0.3,0.2c0.3-0.2,0.8-0.4,1-0.8c0.9-2.4,1.7-4.8,2.5-7.3
	c-0.7-0.2-1.3-0.4-1.9-0.6C51.5,72,50.9,74.7,50.3,77.5z M37.8,34.3c1.5-0.3,2.8-0.5,4.4-0.7c-1.5-1.7-2.9-3.2-4.4-4.9
	C37.8,30.7,37.8,32.4,37.8,34.3z M57.9,19.9c1.2-0.6,2.1-0.9,2.4-2c0.6-2.2,1.1-4.3,1.6-6.6C59.1,13.5,58.7,16.6,57.9,19.9z
	 M119.9,92c0,0.2,0,0.3-0.1,0.5c3.4,0.8,6.7,1.6,10.1,2.4c0-0.7,0-1.3,0-2C126.6,92.6,123.3,92.3,119.9,92z M76.3,61.7
	c0-0.1,0-0.2,0-0.2c-2.2-0.2-4.4-0.4-6.6-0.7c-2.2-0.3-4.4-0.8-6.5-1.3c1.5,1,3,2,4.6,2.8c0.6,0.3,1.8,0.4,2,0.1
	c0.6-0.9,1.3-0.6,2-0.6C73.3,61.7,74.8,61.7,76.3,61.7z M49,46.6c-0.9-0.6-1.7-1.1-2.7-1.7c0.6,0,1,0,1.3-0.1c0-0.1,0-0.1,0-0.2
	c-2-0.6-4-1.2-6.1-1.8c0,0.1-0.1,0.2-0.1,0.3c2.2,1.6,4.3,3.3,6.6,5C48.4,47.6,48.7,47.1,49,46.6z M21.1,55.4c0,0.1,0,0.2,0,0.3
	c0.8,0.6,1.6,1.1,2.5,1.6c0.3,0.2,0.7,0.2,1,0.1c1.5-0.5,2.9-1.2,4.3-1.8c0.3-0.1,0.5-0.2,0.8-0.2c-0.1-0.2-0.3-0.4-0.4-0.6
	C26.5,55.1,23.8,55.3,21.1,55.4z M103.7,52c0,0.1-0.1,0.2-0.1,0.3c0.9,0.7,1.7,1.4,2.6,2c0.2,0.1,0.5,0.3,0.6,0.2
	c1.5-0.7,3.1-1.5,4.6-2.3c0-0.1-0.1-0.1-0.1-0.2C108.8,52,106.2,52,103.7,52z M61.3,31c-0.9,0.5-3.6,11.3-3.6,14.6
	c0.3-0.2,0.6-0.5,0.7-0.8c0.7-3.4,1.3-6.9,1.9-10.3c0.1-0.4,0.2-0.8,0.3-1.1c0.1,0,0.2,0.1,0.3,0.1c-0.2,1.1-0.4,2.2-0.5,3.3
	c0.1,0.1,0.2,0.1,0.3,0.2c0.2-0.2,0.6-0.5,0.6-0.7C61.3,34.5,61.3,32.8,61.3,31z M75.4,61.1c-1-1.8-2.3-2.8-4.3-2
	c-0.2,0.1-0.4,0.1-0.6,0.1c-2,0-3.9,0-5.9,0c0,0.1,0,0.2,0,0.4C68.2,60,71.8,60.6,75.4,61.1z M74.2,70.6c0-0.1,0.1-0.2,0.1-0.3
	c-0.8-0.7-1.6-1.4-2.5-2.1c-0.1-0.1-0.5-0.2-0.6-0.1c-1.4,0.8-2.8,1.6-4.3,2.5C69.5,70.6,71.8,70.6,74.2,70.6z M88,86.3
	c-0.1,0-0.2-0.1-0.3-0.1c0.2-0.8,0.3-1.7,0.6-2.5c0.4-1.1-0.1-1.7-1.2-2.2c0,2.9,0,5.7,0,8.7c0.9-2.2,1.8-4.1,2.5-6.1
	c0.1-0.3-0.2-0.8-0.3-1.2c-0.1,0-0.2,0.1-0.3,0.1C88.6,84.2,88.3,85.2,88,86.3z M46.3,73.7c0.2-2.2,0.4-4.3,0.5-6.4
	c-0.9,0.1-1.5,0.2-1.9,1.1C44.1,70.4,43.8,72.3,46.3,73.7z M99.6,32.3c-0.1-0.1-0.2-0.2-0.3-0.4c-0.5,0.3-1.2,0.5-1.3,0.9
	c-0.7,2.4-1.2,4.9-1.8,7.5C98.9,38.2,98.9,35.1,99.6,32.3z M34.1,67.4c-0.6,0.3-1.3,0.5-1.3,0.8c-0.5,1.8-0.8,3.6-1.2,5.5
	c0.1,0.1,0.3,0.1,0.4,0.2c1.3-0.5,0.4-2.1,1.3-3.1c-0.1,1.2-0.1,2.1-0.2,3c0.1,0.1,0.3,0.1,0.4,0.2c0.2-0.3,0.6-0.5,0.6-0.8
	C34.2,71.3,34.1,69.6,34.1,67.4z M56.8,71.3c0.2-1.8,0.4-3.5,0.6-5.5c-0.8,0.3-1.6,0.3-1.8,0.7C55,68,54.5,69.6,54,71.2
	c0.9,0.3,1.2,0,1.3-0.8c0.1-0.8,0.4-1.7,0.6-2.5c0.1,0,0.2,0.1,0.3,0.1c-0.2,1.1-0.4,2.1-0.6,3.2C56.1,71.3,56.4,71.3,56.8,71.3z
	 M58.8,48.1c-2,0.1-2.2,0.2-2.3,1.8c0.6-0.4,1.2-0.9,1.9-1.3c0.1,0.1,0.1,0.2,0.2,0.2c-0.2,0.2-0.4,0.5-0.7,0.6
	c-1.5,0.8-2,2-2.2,3.6c-0.1,0.9,0.1,1.3,1,1.6c0.3-1.4,0.6-2.8,0.9-4.1c0.1,0,0.2,0,0.3,0.1c-0.1,0.5-0.1,1-0.2,1.5
	c0.4,0,0.7,0,1.1,0C58.8,50.7,58.8,49.4,58.8,48.1z M35,37.4c-0.1-0.1-0.2-0.2-0.3-0.3c-0.3,0.2-0.9,0.3-1,0.6
	c-0.7,2.9-1.4,5.8-2.1,8.9C34.4,43.9,34.1,40.5,35,37.4z M56.1,35.7c-0.1,0-0.1-0.1-0.2-0.1c-1.2,1.8-2.4,3.5-3.7,5.3
	c0.7,0.7,1.4,1.3,2.2,2C55,40.4,55.6,38.1,56.1,35.7z M77.5,61.5c0,0.1,0,0.1-0.1,0.2c1.2,0,2.3,0,3.5,0c0,0.1,0.1,0.2,0.1,0.3
	c-0.6,0.4-1.3,0.7-2.1,1.2c2.9,0.8,5-0.2,6.9-2.1C83,61.2,80.3,61.4,77.5,61.5z M98.1,49.5c0.3-1.6,0.6-3.2,1-4.8
	c-0.6-0.3-1-0.5-1.6-0.7c-0.4,1.9-0.8,3.7-1.2,5.5C96.9,49.5,97.5,49.5,98.1,49.5z M108.4,49.4c0-0.1,0.1-0.2,0.1-0.4
	c-1.8-0.8-3.6-1.7-5.5-2.6c0,1.1,0,2,0,2.9C104.9,49.4,106.6,49.4,108.4,49.4z M29.1,56.1c-1.6,0.7-3.1,1.3-4.6,1.9
	c1.3,0.9,2.4,1.6,3.7,2.4C28.5,59,28.8,57.7,29.1,56.1z M95.5,43.2c-0.4,1.8-0.9,3.7-1.3,5.5c0.6,0.1,1.1,0.2,1.7,0.2
	c0.3-1.3,0.5-2.6,0.9-3.9C97.2,43.8,96.7,43.3,95.5,43.2z M127.2,83.2c-1.5,1.7-2.8,3.1-4.3,4.8c2.5,0.2,3.7-1.7,5.4-2.7
	C128,84.6,127.7,84.1,127.2,83.2z M58,58c-2,0.2-3,1.5-4.4,2.3c1.1,0.8,1.9,1.4,2.9,2.2C57,61,57.5,59.6,58,58z M30.3,53.3
	c0.7-0.3,1.4-0.4,1.5-0.7c0.6-2.2,1-4.5,1.5-7C31.1,47.7,30.8,50.4,30.3,53.3z M35.3,47.7c0.1,0,0.2,0,0.3,0c0,0.6-0.1,1.1-0.2,2
	c0.5-0.4,0.8-0.6,0.8-0.7c0-2.2,0-4.4,0-6.6c-0.1,0-0.2,0-0.3,0c-0.7,3.5-1.4,7-2.2,10.5c0.1,0,0.3,0.1,0.4,0.1
	C34.7,51.2,35,49.5,35.3,47.7z M95,43.4c-0.1-0.1-0.1-0.1-0.2-0.2c-1.3,1.8-2.6,3.5-4,5.4c1.1,0,2,0,2.9,0
	C94.2,46.9,94.6,45.2,95,43.4z M46.5,89.2c0.2-0.1,0.3-0.1,0.5-0.2c0-3.1,0-6.3,0-9.6c-0.2,0.3-0.5,0.5-0.6,0.8
	c-0.2,2.7-0.4,5.5-0.5,8.3C45.8,88.6,46.3,88.9,46.5,89.2z M44.2,27.1c0,0.1,0,0.1,0,0.2c1.5,0.2,3,0.3,4.6,0.4
	c0.1,0,0.4-0.2,0.5-0.3c0.6-0.8,1.1-1.7,1.8-2.7C48.6,25.6,46.4,26.4,44.2,27.1z M102.1,20.9c-2.6,1.8-2,4.4-2.8,6.7
	c0.5,0,1.3-0.1,1.3-0.4C101.2,25.2,101.6,23.2,102.1,20.9z M48.2,56.3c1.3-1,2.4-1.8,3.4-2.6c0.7-0.6,0.7-2,0.3-1.9
	c-1,0.3-2.2,0.7-2.8,1.4C48.5,53.9,48.5,55.1,48.2,56.3z M99.6,23.8c-1.1,1-2.5,2.3-4.1,3.7c1,0,1.7,0.1,2.5,0
	c0.3,0,0.7-0.4,0.8-0.7C99.2,25.7,99.5,24.5,99.6,23.8z M40.3,24.5c-0.8-1.1-1.6-2.2-2.5-3.3c0,2,0,3.8,0,6
	C38.8,26.1,39.5,25.4,40.3,24.5z M97.1,53.9c-2.6,0.9-2.6,2.9-2.9,4.9c1.4,0,2.2-0.5,2.3-1.9C96.6,55.9,96.9,55,97.1,53.9z
	 M54.5,89.6c0.2-1,0.3-1.9,0.5-2.8c-1.1,0-1.9,0-2.8,0c-0.2,0.9-0.3,1.7-0.5,2.6C52.6,89.4,53.4,89.5,54.5,89.6z M18.1,83
	c-0.2-2.7-0.4-5.3-0.6-7.9c-0.1,0-0.3-0.1-0.4-0.1c-0.2,0.4-0.5,0.9-0.5,1.3c0.1,2,0.2,4,0.3,6C17,83.1,17.3,83.3,18.1,83z
	 M112.1,27.4c-2.5-2.1-4.8-4.1-7.1-6.2c1.3,1.9,2.9,3.6,4.3,5.4C109.9,27.6,110.8,27.7,112.1,27.4z M53.8,35.6
	c2.2-0.8,3.4-2.3,3.3-4.7C54.6,32.1,54.2,32.5,53.8,35.6z M33,26.9c0.9,0,1.5,0.1,2.1,0c0.3-0.1,0.8-0.4,0.9-0.7
	c0.4-1.4,0.7-2.9,1-4.4c-0.3,0-0.4,0.2-0.5,0.3C35.3,23.7,34.2,25.2,33,26.9z M51.5,86.8c-3.1-0.2-2.8-0.6-3.4,2.3
	C51.7,89.6,50.9,89.6,51.5,86.8z M99.8,44.6c0.1,0,0.3,0,0.4,0c0.3-1.7,0.5-3.3,0.8-5c0.1,0,0.2,0,0.3,0.1c-0.1,0.8-0.1,1.7-0.2,2.6
	c0.8-0.6,0.9-7,0.4-8c0,0.5,0,1-0.1,1.5c-0.5,2.6-1,5.2-1.5,7.7C99.7,43.9,99.8,44.3,99.8,44.6z M99,15.9c0.8,0.3,1.5,0.6,2.2,1
	c0.4-1.9,0.8-3.6,1.2-5.3c-0.1,0-0.2-0.1-0.2-0.1C101.2,12.9,100.2,14.3,99,15.9z M86.2,80.5c-0.1,0-0.2,0.1-0.4,0.1
	c-0.2,3.3-0.4,6.5-0.5,9.8c0,0.2,0.2,0.4,0.3,0.6c0.2-0.3,0.4-0.5,0.4-0.8c0.1-2.9,0.2-5.7,0.3-8.6C86.4,81.2,86.3,80.9,86.2,80.5z
	 M47.3,57.9c-0.1,0-0.1-0.1-0.2-0.1c-1.1,0.9-2.2,1.7-3.4,2.6c0.5,0.4,0.8,0.9,1.2,1.1c0.5,0.3,1.2,0.6,1.5-0.3
	C46.8,60.1,47,59,47.3,57.9z M48.5,57.5c0,1.5,0,2.8,0,4c0.5,0.3,0.9,0.5,1.3,0.7C50.9,59.2,50.8,58.7,48.5,57.5z M55.4,86.8
	c-0.1,1-0.2,1.9-0.3,2.8c0.9,0.1,1.6,0.1,2.3,0.2c0.2,0,0.4,0,0.6,0C58.3,88.1,57,86.7,55.4,86.8z M118.4,88.4
	c3.2,0.6,5.1-1.1,6.7-3.6C122.7,86.1,120.6,87.2,118.4,88.4z M90,66.7c0.3,0.6,0.4,1.3,0.7,1.3c1.1,0.1,2.2,0.1,3.2,0
	c0.2,0,0.3-0.8,0.6-1.3C92.9,66.7,91.6,66.7,90,66.7z M95.1,52.1c-0.6,0-1.1,0-1.7,0c-0.3,1.4-0.7,2.8-1,4.2
	C94.6,55.6,95,54,95.1,52.1z M96,59c-2.2,0.3-2.4,0.5-2.6,3.6c1.8,0.1,1.8,0.1,2.2-1.5C95.8,60.5,95.9,59.8,96,59z M109.7,66.7
	c-1.6,0-2.9,0-4.5,0c0.3,0.6,0.5,1.3,0.7,1.3c1.1,0.1,2.2,0.1,3.2-0.1C109.4,67.9,109.5,67.2,109.7,66.7z M109.8,66.6
	c0.3,0.6,0.5,1.4,0.7,1.4c1.1,0.1,2.2,0.1,3.2,0c0.2,0,0.4-0.6,0.4-0.9c0-0.2-0.4-0.5-0.6-0.5C112.3,66.6,111.2,66.6,109.8,66.6z
	 M55.3,66.1c-0.9,0-1.6,0-2.4,0c-0.2,0.8-0.4,1.7-0.6,2.6c0.7,0.2,1.3,0.4,2,0.6C54.6,68.1,54.9,67.2,55.3,66.1z M100.7,66.6
	c0.3,0.7,0.5,1.4,0.8,1.4c1,0.1,2.1,0.1,3.1-0.1c0.2,0,0.3-0.6,0.4-1c0-0.1-0.5-0.4-0.7-0.4C103.2,66.6,102.2,66.6,100.7,66.6z
	 M51.2,45c1.1-0.5,2.2,0.6,2.9-0.7c0.4-0.9-0.2-1.7-2-2.6C51.8,42.7,51.5,43.7,51.2,45z M38.5,20.9c-0.1,0.1-0.1,0.1-0.2,0.2
	c0.7,1,1.5,2,2.3,3c0.7-0.8,1.3-1.5,2.1-2.3C41.1,21.5,39.8,21.2,38.5,20.9z M58.6,25c0.3-1.1,0.5-2.1,0.7-3.1
	c-2.1-0.4-2.2-0.3-2.6,2.6C57.3,24.7,57.9,24.9,58.6,25z M27.9,61.6c-0.1,0-0.1-0.1-0.2-0.1c-1.1,1.2-2.3,2.4-3.5,3.7
	c0.8,0,1.6,0,2.3,0c0.2,0,0.6-0.3,0.7-0.6C27.4,63.6,27.6,62.6,27.9,61.6z M61.2,21.8c-1.5-0.1-1.8,0.5-2,3.3c0.6,0.1,1.3,0.3,2,0.4
	C61.2,24.3,61.2,23.1,61.2,21.8z M63.3,63.8c0.3,0.6,0.5,1.3,0.7,1.4c1.1,0.1,2.2,0,3.4-0.1c0.2,0,0.3-0.7,0.5-1.3
	c-1.4,0-2.5,0-3.6,0C64,63.8,63.8,63.8,63.3,63.8z M32.7,56.8c-1.6,1.1-1.6,1.1-2.2,4.1c-0.2,0.9,0,1.4,1,1.6
	C31.9,60.6,32.2,58.8,32.7,56.8z M64.4,62.4c0-0.1,0.1-0.2,0.1-0.3c-1.4-0.4-1.9-2.6-4-1.7c0,0.7,0,1.3,0,2
	C61.9,62.4,63.1,62.4,64.4,62.4z M47.1,63.9c0.3,0.6,0.4,1.2,0.6,1.3c1.1,0.1,2.2,0.1,3.3,0c0.2,0,0.3-0.8,0.5-1.3
	C50,63.9,48.7,63.9,47.1,63.9z M51.7,63.9c0.3,0.6,0.5,1.3,0.7,1.3c1.1,0.1,2.2,0.1,3.2-0.1c0.2,0,0.3-0.8,0.4-1.3
	C54.5,63.9,53.3,63.9,51.7,63.9z M106.2,54.8c-1.1-0.9-2.1-1.6-3.1-2.4c0,1.4,0,2.5,0,3.8C104.1,55.7,105.1,55.3,106.2,54.8z
	 M65.5,13.5c-0.8-0.9-1.5-1.7-2.2-2.6c0,1.7,0,3.2,0,5C64.1,15,64.7,14.3,65.5,13.5z M65.7,51.8c-1-0.9-1.8-1.7-2.8-2.5
	c0,1.5,0,2.9,0,4.4C63.9,52.9,64.7,52.4,65.7,51.8z M25.8,72.5c1.1-1.5,2.7-2.7,2.7-5c-0.6,0.2-1.5,0.3-1.6,0.6
	C26.4,69.5,26.2,71,25.8,72.5z M93.4,59.7c-2,0.2-2.4,0.7-2.3,3.2C93,63,93.2,62.7,93.4,59.7z M52.3,84.1c-2.6-0.4-2.8-0.2-3.2,2.1
	c0.9,0,1.8,0,2.7,0C52,85.5,52.1,84.8,52.3,84.1z M95,65.2c1.5,0,2.8,0,4.1,0c0-0.9,0-1.7,0-2.6C97.7,63.5,96.5,64.3,95,65.2z
	 M98.8,71.3c0.1-0.9-0.9-2.3-1.7-2.3c-1.4,0-1,1.4-1.7,2.3C96.7,71.3,97.8,71.3,98.8,71.3z M60.5,73.3c1.5-0.7,2.7-1.4,4-2
	c0-0.1,0-0.1-0.1-0.2c-1.3-0.1-2.6-0.2-4-0.4C60.5,71.6,60.5,72.4,60.5,73.3z M102.6,21.3c-0.1,0-0.1,0-0.2-0.1
	c-0.4,2.1-0.9,4.1-1.4,6.3c0.6,0,1-0.1,1.5-0.1C102.6,25.4,102.6,23.3,102.6,21.3z M130,84.5c-1.4,1.1-2.6,2-3.8,2.9
	c0,0.1,0.1,0.2,0.1,0.2c1.2-0.1,2.5-0.3,3.7-0.4C130,86.4,130,85.6,130,84.5z M102.7,62.8c-0.4,0.9-2.3,0.6-1.6,2.3
	c1.4,0,2.7,0,4.2,0C104.4,64.2,103.6,63.6,102.7,62.8z M98.9,54.6c0.1,0,0.2,0,0.4,0c0-0.7,0.1-1.4,0.1-2.3c-2.7,1.4-1.8,4-2.4,5.9
	c1.2-1.1,0.8-2.8,1.5-4.1C98.6,54.2,98.7,54.4,98.9,54.6z M55,19.7c0.8,0,1.3,0.1,1.7,0c0.3-0.1,0.8-0.3,0.8-0.6
	c0.4-1.2,0.7-2.4,1-3.8c-0.4,0.4-0.6,0.6-0.7,0.8C57,17.2,56.1,18.4,55,19.7z M52.4,66.1c-0.5,0-0.8-0.1-1.1-0.1c-0.6,0-1.2,0-1.7,0
	c-0.6,1.5-0.4,1.7,2.3,2.4C52,67.7,52.2,67,52.4,66.1z M43.9,35.3c-0.7-0.5-1.2-1.3-1.6-1.3c-1.4,0.1-2.9,0.4-4.3,0.7
	c-0.1,0-0.1,0.2-0.3,0.5C39.7,35.3,41.6,35.3,43.9,35.3z M86.9,70.5c-0.2,0-0.4,0-0.6,0c-0.1,3.2-0.3,6.4-0.4,9.6c0.2,0,0.4,0,0.5,0
	C86.6,76.8,86.7,73.6,86.9,70.5z M11.3,79.8c-0.9,0.8-1.8,1.4-2.8,2.3c1.6,0.2,2.8,0.3,4.2,0.5C12.3,81.6,11.8,80.8,11.3,79.8z
	 M91.8,59.4c2-0.2,2.3-0.6,2.4-3.5C92.7,56.5,91.7,57.6,91.8,59.4z M34.5,34.5c0.1,0.1,0.2,0.2,0.3,0.3c0.3-0.3,0.8-0.5,0.9-0.8
	c0.4-1.5,0.7-3.1,1-4.9C34.8,30.6,35.1,32.7,34.5,34.5z M56.2,24.5c0.2-1,0.5-1.8,0.7-2.7c-0.1-0.1-0.2-0.1-0.2-0.2
	c-1.2,0.7-2.3,1.3-3.7,2.1C54.1,24,55,24.2,56.2,24.5z M39.3,52.8c0,0.1,0,0.1,0,0.2c1.9,0,3.8,0,5.7,0c0.1-0.1,0.1-0.2,0.2-0.3
	c-0.4-0.3-0.9-1-1.3-1C42.3,52,40.8,52.4,39.3,52.8z M51.7,54.6c-0.1-0.1-0.2-0.1-0.2-0.2c-0.9,0.7-1.8,1.4-2.8,2.2
	c0.8,0.6,1.5,1.1,2.2,1.6C51.1,56.9,51.4,55.7,51.7,54.6z M52.3,86.3c0.8,0,1.4,0,2.1,0c0.8,0,1-0.6,0.7-1c-0.3-0.5-0.9-1-1.5-1.3
	c-0.9-0.3-1,0.4-1.1,1.1C52.5,85.4,52.4,85.8,52.3,86.3z M55.4,54.5c-0.3,1.5-0.7,3-1,4.7c0.8-0.5,1.3-0.8,1.5-1
	c0.2-0.7,0.2-1.2,0.4-1.6C56.5,55.8,56.7,55,55.4,54.5z M34.7,31.5c-0.1,0-0.1-0.1-0.2-0.1c-1.1,1.1-2.1,2.3-3.4,3.7
	c1-0.1,1.6-0.1,2.3-0.3c0.2,0,0.6-0.3,0.6-0.5C34.3,33.4,34.5,32.5,34.7,31.5z M58.5,66.1c-0.2,0-0.3-0.1-0.5-0.1
	c-0.5,1.7-0.5,3.5-0.5,5.4c0.4-0.1,1-0.4,1-0.7C58.5,69.2,58.5,67.6,58.5,66.1z M28.3,61.6c-0.3,1.2-0.5,2.3-0.8,3.5
	c0.7-0.1,1.5,0.4,1.8-0.6C29.9,62.4,29.9,62.4,28.3,61.6z M87.4,90.9c2.4,0.3,2.6,0.1,2.8-1.9C88,88.7,87.9,88.8,87.4,90.9z
	 M58.2,86.1c0-0.7,0-1.4,0-2.1c-0.8,0-1.6,0-2.4,0C55.6,85.6,56.5,86.4,58.2,86.1z M101.9,32.1c-0.2-0.2-0.3-0.4-0.5-0.5
	c-0.5,0.4-1.2,0.6-1.3,1.1c-0.4,1.2-0.6,2.4-0.9,3.8c1.7-1.7,2.1-2.5,1.8-3.4C101.3,32.6,101.6,32.3,101.9,32.1z M31,88.1
	c0.1-0.8,0.1-1.5,0.2-2.3c-0.8-0.1-1.4-0.2-2.1-0.2c-0.1,0.8-0.3,1.5-0.4,2.3C29.5,88,30.2,88,31,88.1z M52.9,36.9
	c-1.2,0.7-2.1,1.2-3.1,1.8c0.7,0.7,1.3,1.2,2.1,1.9C52.2,39.3,52.5,38.3,52.9,36.9z M61,48.1c-0.6,0.3-0.8,4.3-0.4,6.8
	C61.3,54.5,61.6,49.9,61,48.1z M68.4,63.6c-0.1,0.2-0.3,0.3-0.4,0.5c0.2,0.4,0.3,1,0.6,1.2c1.1,0.6,2.2,0.5,3.3-0.4
	C70.7,64.4,69.5,64,68.4,63.6z M95.3,91c0.1-0.7,0.2-1.4,0.3-2.1c-2.3-0.2-2.3-0.2-2.4,2c0.3,0,0.6,0,0.9,0C94.5,91,94.9,91,95.3,91
	z M55.9,27.5c2.3-0.2,2.3-0.2,2.5-2c-0.6-0.2-1.3-0.3-1.9-0.5c-0.2,0.7-0.4,1.3-0.5,2C55.9,27.1,55.9,27.3,55.9,27.5z M46.1,52.9
	c2.3,0,3-0.6,3-2.4C47,50.8,46.7,51,46.1,52.9z M28.9,59.4c1.9-1.4,2.2-1.9,2.2-4.1C28.6,55.8,29.5,58,28.9,59.4z M39.9,62.8
	c-0.9-0.3-1.9-1.4-2.6-0.2c-0.7,1.2,0.7,1.6,1.4,2.4C39.1,64.2,39.5,63.5,39.9,62.8z M40.1,63.3c-0.4,0.7-0.6,1.2-0.9,1.7
	c1.5,0,2.9,0,4.3,0c0-0.1,0-0.2,0.1-0.3C42.4,64.3,41.3,63.8,40.1,63.3z M27.4,84.6c0.7-0.3,1.4-0.4,1.5-0.7
	c0.3-0.9,0.4-1.9,0.6-2.9C27.8,81.4,27.6,82.8,27.4,84.6z M31.5,88.1c0.8,0,1.6,0,2.3,0c0-0.6,0-1.2,0-1.9c-0.7-0.1-1.3-0.2-2.1-0.3
	C31.6,86.7,31.6,87.3,31.5,88.1z M92.9,89c-2.1-0.3-2.2-0.2-2.4,1.9C92.5,91.2,92.6,91.2,92.9,89z M58.2,83.5c0-0.7,0-1.3,0-1.8
	c-0.8,0-1.4,0-2.2,0c0,0.6-0.1,1.2-0.1,1.8C56.7,83.5,57.4,83.5,58.2,83.5z M50,83.4c2.1,0.4,2.5,0.2,2.6-0.7c0-0.4-0.4-1-0.7-1.1
	C50.6,81.3,50.3,81.6,50,83.4z M36.2,54.9c-0.1,0-0.2,0-0.3,0c0,2.1,0,4.1,0,6.2c0.1,0,0.2,0,0.3,0C36.2,59.1,36.2,57,36.2,54.9z
	 M56.4,79.2c-0.1,0.6-0.1,1.2-0.2,1.9c0.8,0,1.4,0,2.1,0c0-0.7,0-1.2,0-1.9C57.6,79.2,57.1,79.2,56.4,79.2z M55.6,81.1
	c0.1-0.7,0.2-1.2,0.2-1.8c-2-0.4-2.3-0.2-2.3,1.8C54.2,81.1,54.9,81.1,55.6,81.1z M114.3,66.7c0.2,0.5,0.3,1.1,0.6,1.2
	c0.8,0.4,2.6-0.3,3.2-1.2C117,66.7,115.8,66.7,114.3,66.7z M29.6,84.2c2.1-0.4,2.3-0.6,2-2.5C29.7,81.5,29.5,81.8,29.6,84.2z
	 M34.4,42.4c0.4-0.9,2-1.4,1.4-2.5c0.2-0.7,0.5-1.2,0.5-1.7c0-0.3-0.3-0.6-0.4-0.9c-0.2,0.3-0.5,0.5-0.6,0.8
	C35,39.5,34.7,40.9,34.4,42.4z M98.1,39.2c-0.1,0-0.1-0.1-0.2-0.1c-0.5,0.7-1,1.4-1.5,2.1c-1,1.3-0.9,1.5,0.8,2
	C97.5,41.8,97.8,40.5,98.1,39.2z M50.5,47.5c-0.2,0.7-0.4,1.4-0.5,2.1c1.1-0.5,2.6,0.1,3.2-1.4C52.2,47.9,51.4,47.7,50.5,47.5z
	 M85.5,66.7c-1.6,0-2.7,0-3.9,0c0.6,0.9,2.2,1.6,3.1,1.2C85,67.8,85.2,67.3,85.5,66.7z M87,60.9c-1.1,0.8-2.1,1.5-3.1,2.2
	c0,0.1,0.1,0.2,0.1,0.3c1-0.1,2-0.1,3-0.2C87,62.4,87,61.8,87,60.9z M98.6,88.4c0-0.7,0-1.3,0-1.9c-0.7,0-1.4,0-2.1,0
	c-0.1,0.7-0.2,1.2-0.2,1.9C97.1,88.4,97.8,88.4,98.6,88.4z M90.2,63.5c-0.6,0-1.2,0-1.6,0.1c-0.4,0.1-0.7,0.3-1.1,0.5
	c0.3,0.5,0.3,1.1,1.2,1.2C90,65.4,90.1,64.6,90.2,63.5z M50.4,62.4c1.6,0,3,0,4.6,0c-0.9-0.7-1.5-1.2-2.2-1.7
	C52.1,61.3,51.4,61.8,50.4,62.4z M87.4,66.7c0,0.6,0,1.1,0,1.6c1.8,0.3,2.5-0.2,2.2-1.6C88.9,66.7,88.3,66.7,87.4,66.7z M91.1,86.5
	c-2.2-0.2-2.3-0.1-2.6,1.8C90.6,88.7,90.6,88.6,91.1,86.5z M62.3,8.3c0-1.6,0-3.1,0-4.7c0,0-0.1,0-0.1,0c-0.4,1.5-0.8,3.1-1.3,4.7
	C61.4,8.3,61.8,8.3,62.3,8.3z M91.9,69c-0.1,0.6-0.2,1.2-0.4,1.8c0.7,0.1,1.3,0.2,1.9,0.3c0.1-0.8,0.3-1.4,0.4-2.1
	C93.2,69,92.6,69,91.9,69z M55.9,78.7c0.1-0.7,0.2-1.3,0.2-1.9c-1.9-0.3-2-0.2-2,1.9C54.7,78.7,55.2,78.7,55.9,78.7z M47.4,67.1
	c-0.7,1.9-0.8,7.3,0,7.8C47.4,72.3,47.4,69.7,47.4,67.1z M98.6,83.8c-0.7,0-1.2,0.1-1.8,0.1c-0.1,0.8-0.1,1.4-0.2,2c0.7,0,1.3,0,2,0
	C98.6,85.3,98.6,84.6,98.6,83.8z M63,63.9c-0.9,0-1.7,0-2.5,0c0,0.6,0,1.1,0,1.6C62.6,65.6,63.1,65.3,63,63.9z M96.2,85.9
	c0.1-0.4,0.1-0.8,0.1-1.1c0-0.3,0.1-0.6,0.1-0.9c-1.8-0.3-1.9-0.2-2.1,2C94.9,85.9,95.5,85.9,96.2,85.9z M58.6,62.4
	c0-1.4,0-2.8,0-4.2c-0.1,0-0.1,0-0.2,0c-0.5,1.4-0.9,2.7-1.4,4.2C57.6,62.4,58.1,62.4,58.6,62.4z M61.2,44.1
	c-2.3-0.4-2.5-0.2-2.3,1.4c0.7,0,1.5,0,2.3,0C61.2,45,61.2,44.6,61.2,44.1z M82.3,64.2c0,0.1,0.1,0.2,0.1,0.3c1.3,0,2.5,0,3.8,0
	c0.3,0,0.6-0.3,0.8-0.4c-0.3-0.1-0.6-0.4-0.9-0.4c-0.9,0-1.7,0-2.6,0.1C83.1,63.9,82.7,64.1,82.3,64.2z M58.3,78.7
	c0-0.7,0-1.3,0-1.9c-0.6,0-1,0-1.6,0c-0.1,0.7-0.2,1.3-0.3,1.9C57.1,78.7,57.6,78.7,58.3,78.7z M27.2,85.3c-0.2,0.9-0.3,1.6-0.5,2.5
	c0.6,0,1.1,0,1.6,0.1c0.1-0.8,0.3-1.6,0.4-2.3C28.1,85.4,27.7,85.4,27.2,85.3z M91,88.5c1-0.2,2.1,0.6,2.4-0.9
	c0.1-0.6,0.1-1-0.6-1.1C91.2,86.2,91.4,87.4,91,88.5z M47.1,63.9c-1.5,0-2.7,0-3.9,0c0.9,1,2.5,1.5,3.3,1.1
	C46.8,64.9,46.9,64.4,47.1,63.9z M98.6,49.3c0.1,0.1,0.2,0.2,0.2,0.3c0.3-0.2,0.6-0.3,0.7-0.5c0.6-1.5,0.5-3.6-0.1-4.1
	C99.2,46.5,98.9,47.9,98.6,49.3z M34.4,55.9c0,0-0.1,0-0.1,0c-0.3,1.7-0.6,3.5-0.9,5.2c0.1,0.1,0.2,0.2,0.3,0.3
	c0.2-0.2,0.7-0.5,0.7-0.7C34.5,59,34.4,57.5,34.4,55.9z M33.7,55.7c-0.9,1.7-1,3.6-1.2,5.5C33.5,59.5,33.5,57.6,33.7,55.7z
	 M59.4,41.7c-0.1,0.6-0.2,1.2-0.3,1.8c0.8,0,1.4,0,2.1,0c0-0.6,0-1.2,0-1.8C60.5,41.7,60,41.7,59.4,41.7z M62.2,12.6
	c-0.1,0-0.1,0-0.2,0c-0.4,1.7-0.8,3.4-1.2,5.1c0.1,0,0.2,0.1,0.3,0.1c0.4-0.4,1-0.8,1-1.3C62.3,15.2,62.2,13.9,62.2,12.6z
	 M98.1,50.3c-0.9,0-1.6,0-2.4,0c-0.2,0-0.4,0.4-0.6,0.6c0.6,0.2,1.2,0.5,1.8,0.5C97.5,51.5,98.3,51.5,98.1,50.3z M97.1,71.9
	c-1.9-0.4-1.9-0.4-2.4,1.5C96.8,73.7,96.9,73.7,97.1,71.9z M97.4,58.7c-0.1-0.1-0.3-0.1-0.4-0.2c-0.9,1.1-0.8,2.4-1.1,3.9
	c0.9-0.2,1.6-0.3,2.5-0.5c-1.1-0.3-2.1-0.3-1.2-1.6C97.3,59.9,97.3,59.2,97.4,58.7z M34,79.2c-0.5,0-1,0-1.5,0
	c-0.1,0.6-0.1,1.2-0.2,1.9c0.6,0,1.1,0,1.7,0C34,80.4,34,79.8,34,79.2z M95.7,66.7c0.7,0.5,1,0.9,1.5,1.1c0.4,0.2,1,0.3,1.3,0.2
	c0.3-0.2,0.3-0.8,0.5-1.3C97.8,66.7,96.9,66.7,95.7,66.7z M107.7,50.1c0,0.1-0.1,0.1-0.1,0.2c-0.2,0-0.4-0.1-0.6,0
	c-0.3,0.1-0.7,0.3-1,0.5c0.3,0.2,0.6,0.5,0.9,0.7c0.2,0.1,0.4,0.1,0.6,0.1c0.5-0.2,1-0.5,1.5-0.8C108.6,50.6,108.2,50.3,107.7,50.1z
	 M42,26.9c-0.6-0.8-1-1.3-1.5-2c-0.6,0.7-1.1,1.3-1.8,2C39.9,26.9,40.8,26.9,42,26.9z M98.8,74.1c-1.8-0.3-1.9-0.2-2,1.6
	c0.6,0,1.3,0,2,0C98.8,75.2,98.8,74.6,98.8,74.1z M76.3,63.9c-1.3,0-2.4,0-3.9,0c0.3,0.5,0.5,1,0.8,1.2C74,65.4,75.5,64.9,76.3,63.9
	z M19.2,86.3c1-0.5,2-1,2.9-1.4c0-0.1,0-0.2-0.1-0.3c-1-0.1-2-0.2-3-0.3C19.1,85,19.2,85.5,19.2,86.3z M16.2,83.8
	c-0.8-0.1-1.4-0.2-2.4-0.3c0.9,1.1,1.5,2,2.4,3.1C16.2,85.5,16.2,84.8,16.2,83.8z M64.4,10.2c0,0.1-0.1,0.1-0.1,0.2
	c0.8,0.4,1.7,0.8,2.5,1.3c0.4-0.7,0.8-1.2,1.1-1.7C66.6,10.1,65.5,10.2,64.4,10.2z M92.9,63.3c0.2,0.6,0.2,1.1,0.5,1.5
	c0.1,0.2,0.8,0.3,0.9,0.2c0.4-0.5,0.7-1.2,1.2-2C94.5,63.1,93.9,63.1,92.9,63.3z M95.3,54.5c0.8-0.8,2.1-1,2.1-2.4
	C95.5,51.9,95.4,52.1,95.3,54.5z M65.8,46.4c-0.2,1.3,0.7,1.2,1.4,1.2c0.7,0,1.7,0.2,1.6-1.2C67.8,46.4,66.8,46.4,65.8,46.4z
	 M94.2,83.9c-1-0.1-2-0.4-2,0.9c0,0.8,0.6,1.1,1.5,1.2C93.9,85.3,94.1,84.7,94.2,83.9z M91.5,69c-2.1-0.2-2.2-0.2-2.1,1.5
	c0.5,0.1,1.1,0.1,1.7,0.2C91.2,70.1,91.3,69.6,91.5,69z M32.2,81.6c-0.1,0.7-0.2,1.3-0.2,1.9c2.1-0.4,2.1-0.4,1.9-1.9
	C33.3,81.6,32.8,81.6,32.2,81.6z M101,56.8c0.1,0,0.2,0,0.4,0.1c0.7-1.1,0.2-2.4,0.3-3.6c0-0.4-0.1-0.8-0.2-1.2
	c-0.1,0-0.3,0.1-0.4,0.1C101,53.6,101,55.2,101,56.8z M107.7,95c0.6-1.4-0.9-1.9-1-2.9C105.6,93.3,105.9,94.2,107.7,95z M55.6,81.7
	c-0.8,0-1.5,0-2.3,0c0.4,1.4,1,1.9,2.1,1.7C55.4,82.9,55.5,82.3,55.6,81.7z M88.1,60.7c0.9,0.7,1.6,1.2,2.4,1.9
	c0.2-0.9,0.3-1.6,0.5-2.4C90.1,60.3,89.3,60.5,88.1,60.7z M97,83.4c0.6,0,1.1,0,1.7,0c0-0.7,0-1.3,0-1.9c-0.5,0-1,0-1.4,0
	C97.2,82.1,97.1,82.6,97,83.4z M53.4,79.1c-0.6,0-1.1-0.1-1.6,0c-0.2,0.1-0.6,0.6-0.5,0.6c0.4,0.5,0.9,1,1.5,1.8
	C53.1,80.5,53.2,79.9,53.4,79.1z M28.4,65.9c-0.2,1.2,0.7,1.2,1.3,1.2c0.7,0,1.6,0.1,1.5-1.2C30.2,65.9,29.3,65.9,28.4,65.9z
	 M92.7,81.5c-1.6-0.2-1.8-0.1-2.1,1.9C92.3,83.5,92.4,83.5,92.7,81.5z M34.4,66.2c-0.1-0.1-0.1-0.2-0.2-0.3c-0.7,0-1.5,0-2.2,0
	c-0.2,0-0.3,0.5-0.4,0.7c0.7,0.1,1.3,0.4,2,0.4C33.8,67,34.1,66.5,34.4,66.2z M38.6,65.9c-1,0-1.9,0-2.8,0c0,1.3,0.9,1.1,1.6,1.1
	C38,67,38.8,67.1,38.6,65.9z M56.1,50.2c-0.1-0.1-0.2-0.3-0.3-0.4c-0.9,0.4-1.7,0.7-2.5,1.2c-0.2,0.1-0.3,0.6-0.3,0.9
	c0,0.1,0.5,0.3,0.6,0.3C54.4,51.5,55.3,50.8,56.1,50.2z M129.9,82.2c-0.6,0.4-1.2,0.7-1.9,1c0.3,0.6,0.6,1.1,0.8,1.5
	C130.2,84.3,130.2,83.3,129.9,82.2z M57.6,46.4c-1,0-2,0-2.9,0c-0.1,1.3,0.9,1.1,1.5,1.1C56.9,47.6,57.8,47.7,57.6,46.4z M57.5,32.6
	c1.1-1.5,2.1-3,3.2-4.4C59.3,29.4,57.2,30,57.5,32.6z M45.4,84.2c-0.1,0-0.2,0-0.2,0c-0.4,1.5-0.8,3-1.2,4.6
	c0.1,0.1,0.2,0.2,0.3,0.3c0.3-0.2,0.7-0.4,0.8-0.7C45.2,87,45.3,85.6,45.4,84.2z M97.7,17.7c1.2,0,2.3,0,3.3,0
	c0-0.1,0.1-0.2,0.1-0.3c-0.8-0.4-1.5-0.7-2.3-1.1C98.4,16.8,98.1,17.2,97.7,17.7z M55.6,35.4c-2.1,0.6-2.6,2-2.8,4
	C53.8,37.9,54.6,36.7,55.6,35.4z M40.5,65.6c-0.5,0.3-1,0.5-1.5,0.7c0.5,0.3,0.9,0.7,1.4,0.7c0.5,0,1-0.5,1.5-0.7
	C41.5,66.1,41,65.9,40.5,65.6z M92.8,83.3c1.6,0.3,1.7,0.3,1.9-1.8C93.2,81.2,93.2,81.2,92.8,83.3z M17,84.1c0.1,1,0.1,1.8,0.2,2.7
	c1.1,0.1,1.3-0.4,1.1-1.2C18.1,85,18.7,83.8,17,84.1z M26.7,65.6c-0.6,0.3-1,0.5-1.5,0.7c0.5,0.3,0.9,0.7,1.4,0.7
	c0.4,0,0.9-0.4,1.3-0.7C27.6,66.1,27.2,65.9,26.7,65.6z M91.4,80.8c1.8,0.2,1.8,0.1,2.1-1.9C91.8,78.4,92,79.9,91.4,80.8z
	 M57.8,27.8c-2.2,0.1-2.2,0.1-2.4,1.8C57.2,29.2,57.7,28.8,57.8,27.8z M102.8,17.4c0-1.5,0-2.9,0-4.4c-0.4,1.1-0.6,2.2-1,3.3
	C101.6,17.1,101.9,17.3,102.8,17.4z M100.1,29.7c-1.5-0.2-1.7,0.1-1.6,2C99.9,31.7,99.9,31.6,100.1,29.7z M52.4,76.1
	c1.7,0.2,1.7,0.2,1.9-1.8C52.9,74.1,52.9,74.1,52.4,76.1z M101.6,49.5c0-0.7,0-1.3,0-1.9c-1.5-0.2-1.6,0-1.4,1.9
	C100.6,49.5,101.1,49.5,101.6,49.5z M91.6,57.7c-1.1,0.8-2.1,1.5-3.2,2.3C91.1,60,91.2,59.9,91.6,57.7z M107.8,92.1
	c1.3-0.7,2.5-1.3,3.8-2.1C109.2,89.9,108,90.3,107.8,92.1z M59.8,39.5c-0.1,0.6-0.1,1.2-0.2,1.7c0.6,0,1.1,0,1.6,0
	c0-0.6,0-1.1,0-1.7C60.7,39.5,60.3,39.5,59.8,39.5z M28.4,52.8c0.1,0.1,0.1,0.3,0.2,0.4c0.5-0.2,1.1-0.4,1.3-0.7
	c0.3-0.8,0.4-1.7,0.6-2.5c-0.1-0.1-0.2-0.1-0.3-0.2c-0.1,0.1-0.1,0.3-0.2,0.4C29.5,51.1,28.9,52,28.4,52.8z M95.5,78.9
	c-1.4-0.2-1.5,0-1.8,1.9c0.4,0,0.9,0,1.3,0C95.1,80.2,95.3,79.6,95.5,78.9z M42.2,65.9c-0.1,1.4,0.9,1.2,1.6,1.2
	c0.7,0,1.2-0.2,0.9-1.2C43.9,65.9,43.2,65.9,42.2,65.9z M51.6,78.6c1.9,0.4,2.2,0.1,2-1.7C52.9,77.3,51.6,77.2,51.6,78.6z
	 M62.7,46.4c0.3,1.3,1.1,1.3,2,1c0.3-0.1,0.6-0.6,1-1C64.5,46.4,63.6,46.4,62.7,46.4z M96.7,81.4c-1.5-0.1-1.6,0-1.7,1.9
	C96.7,83.5,96.7,83.5,96.7,81.4z M24.7,86c-1.9,0-2.1,0.1-2.1,1.5c0.6,0,1.1,0.1,1.7,0.1C24.5,87,24.6,86.5,24.7,86z M98.8,80.9
	c0-0.8,0-1.4,0-2c-1.3-0.1-1.4,0.2-1.2,2C97.9,80.9,98.3,80.9,98.8,80.9z M48,57.6c0,0-0.1,0-0.1,0c-0.4,1.4-0.7,2.7-1.1,4.2
	c0.5,0,0.8,0,1.2-0.1C48,60.2,48,58.9,48,57.6z M73.7,65.7c-1.3,0.1-2.4,0.2-3.6,0.3C71.5,67.6,71.8,67.6,73.7,65.7z M25,87.5
	c1.4,0.3,1.7-0.1,1.5-2C25.1,85.7,25,85.7,25,87.5z M36.6,69.9c1.2-0.8,2.3-1.4,3.5-2.2C37.6,67.5,37.5,67.6,36.6,69.9z M87.6,61
	c0,0.9,0,1.5,0,2.3c0.8,0,1.5-0.1,2.6-0.1C89.2,62.3,88.5,61.7,87.6,61z M30.7,78.6c1.5,0.2,1.7-0.1,1.4-1.9
	C30.8,76.7,30.8,76.7,30.7,78.6z M94,71.2c1.7,0,1.4-1.4,2-2.1c-0.6,0-1.1,0-1.6,0C94.3,69.7,94.1,70.3,94,71.2z M103,50.3
	c0.6,1.1,1.3,1.5,2.3,1.1c0.2-0.1,0.4-0.4,0.4-0.6c0-0.1-0.3-0.4-0.4-0.4C104.5,50.3,103.7,50.3,103,50.3z M52.8,23
	c0.1,0.1,0.2,0.1,0.2,0.2c0.9-0.5,1.7-1,2.7-1.5c-0.6-0.4-1-0.6-1.4-1C53.7,21.5,53.2,22.2,52.8,23z M95.5,80.8c0.5,0,0.9,0,1.3,0
	c0.1-0.4,0.1-0.7,0.2-1c0-0.3,0.1-0.6,0.1-0.9C95.9,78.8,95.9,78.8,95.5,80.8z M112.1,50.3c-0.9,0-1.5,0-2.2,0
	c-0.2,0-0.4,0.2-0.5,0.4c0,0.2,0.1,0.5,0.2,0.6C110.3,51.7,111.5,51.3,112.1,50.3z M44,67.8c-1.1,0-2,0-3.1,0c0.6,0.7,1,1.2,1.5,1.7
	C43,68.9,43.5,68.4,44,67.8z M66.8,62.2c-1.4-0.8-2.8-1.7-4.2-2.5c-0.1,0.1-0.1,0.2-0.2,0.3C63.9,60.8,64.7,62.6,66.8,62.2z
	 M92.1,50.3c0.6,1,1.8,1.4,2.4,1c0.2-0.1,0.3-0.4,0.3-0.6c0-0.2-0.3-0.3-0.5-0.4C93.6,50.3,92.9,50.3,92.1,50.3z M67.1,9.1
	c-1.5,0-2.7,0-4.1,0C63.8,9.9,66.1,10,67.1,9.1z M103.7,30.8c1.2-0.3,2.4-0.6,3.5-0.9c0-0.1,0-0.1,0-0.2c-1.1,0-2.3,0-3.5,0
	C103.7,30,103.7,30.4,103.7,30.8z M89.4,85.8c0.1,0.1,0.1,0.2,0.2,0.3c0.6-0.2,1.3-0.4,1.9-0.5c-0.4-0.5-0.7-1.1-1.2-1.8
	C89.8,84.7,89.6,85.3,89.4,85.8z M58.4,73.7c0-0.6,0-1.2,0-1.8c-0.4,0-0.8,0-1.2,0c0,0.6-0.1,1.2-0.1,1.8
	C57.6,73.7,57.9,73.7,58.4,73.7z M120.2,91.1c0.1,0.1,0.1,0.2,0.2,0.2c1.2-0.9,2.4-1.8,3.7-2.8C121.8,88.3,121.3,90.1,120.2,91.1z
	 M55.5,71.9c-0.1,0.6-0.2,1.2-0.4,1.9c0.6,0,1,0,1.5-0.1c0.1-0.7,0.1-1.3,0.2-1.9C56.3,71.9,55.9,71.9,55.5,71.9z M57.5,29.4
	c-1,0.6-2.6,0.4-2.7,2.3C55.8,31,57.1,30.7,57.5,29.4z M69.2,46.4c-0.3,0.9,0.3,1.1,0.8,1.1c0.7,0,1.6,0.1,1.7-1.1
	C70.9,46.4,70,46.4,69.2,46.4z M30.1,62.8c-0.1,0.8-0.3,1.5-0.4,2.3c0.5,0,0.8,0,1.2,0C31.2,64.2,31.6,63.3,30.1,62.8z M60.3,19.4
	c0.1,0.1,0.2,0.2,0.3,0.3c0.5,0,1,0,1.5,0c0-0.7,0-1.3,0-2.3C61.3,18.2,60.8,18.8,60.3,19.4z M53.2,73.7c1.6,0.2,1.7,0.1,1.7-1.8
	C53.3,71.5,53.6,72.8,53.2,73.7z M59.7,13.1c0.9-1.1,1.5-1.9,2.2-2.8C60.3,10.1,60.3,10.1,59.7,13.1z M125.5,79.7
	c-0.7,0.4-1.2,0.7-1.7,1c0.8,1.3,1.5,0.9,2.3,0.2C126,80.6,125.8,80.2,125.5,79.7z M52.6,60.4c-0.5-0.4-1-0.8-1.5-1.2
	c-0.2,0.9-0.4,1.6-0.6,2.6C51.2,61.3,51.9,60.9,52.6,60.4z M36.9,30.4c-0.3,1.3-0.5,2.6-0.8,4C37.2,34.3,37.2,34.3,36.9,30.4z
	 M46.5,79c0.1,0,0.2,0.1,0.3,0.1c0.2-0.3,0.5-0.6,0.4-0.8c-0.1-0.9,0.4-2-0.6-2.7C46.6,76.7,46.5,77.8,46.5,79z M58.7,52.7
	c-1.6-0.5-1.3,0.7-1.5,1.6c0.5,0,1,0,1.5,0C58.7,53.7,58.7,53.2,58.7,52.7z M53.2,50.6c1.1-0.6,2.1-1.1,3-1.6
	C53.7,49,53.4,49.2,53.2,50.6z M51.8,46.4c0.2,0.8,0.9,1.3,1.7,1c0.3-0.1,0.6-0.5,0.8-0.8c-0.1-0.1-0.2-0.2-0.2-0.2
	C53.4,46.4,52.6,46.4,51.8,46.4z M29.9,80.8c0.1,0.1,0.1,0.2,0.2,0.3c0.5,0,1,0,1.6,0c0.1-0.6,0.1-1.2,0.2-1.7
	c-0.1,0-0.2-0.1-0.2-0.1C31.1,79.8,30.5,80.3,29.9,80.8z M48.4,48.5c0.4,0.3,0.7,0.5,1.1,0.8c0.7-2,0.7-2-0.2-2.5
	C49.1,47.3,48.8,47.8,48.4,48.5z M114.6,68.8c-1.3,0.1-2.6,0.1-4,0.2C111.4,70,112.8,69.9,114.6,68.8z M92.6,78.2
	c1.9,0.4,1.5-1,1.9-1.8C92.8,76,93.1,77.4,92.6,78.2z M98.9,71.9c-1.5-0.4-1.3,0.7-1.5,1.6c0.5,0,1,0,1.5,0
	C98.9,72.9,98.9,72.4,98.9,71.9z M101.3,60.6c0.6-1,0.4-2.2,0.2-3.3C100.7,58.3,101,59.4,101.3,60.6z M44.6,68.1
	c-0.1,0-0.1-0.1-0.2-0.1c-0.5,0.6-1.1,1.2-1.7,1.9c0.3,0.4,0.6,0.7,1,1.1C44,69.9,44.3,69,44.6,68.1z M56.6,63.6
	c-0.2,1.7,0.4,2.1,2.3,1.7C58,64.7,57.4,64.2,56.6,63.6z M33.3,55c-1.7-0.1-1.9,0.2-1.8,2.2C32.1,56.5,32.6,55.9,33.3,55z
	 M101.6,50.8c0-0.1,0-0.2,0-0.3c-1.1,0-2.1,0-3.2,0c0,0.1,0,0.2,0,0.3C99.5,50.8,100.6,50.8,101.6,50.8z M29.9,61.6
	c0.2-1,0.4-1.8,0.5-2.6c-0.1,0-0.1-0.1-0.2-0.1c-0.5,0.6-1.1,1.2-1.7,1.9C29,61,29.3,61.3,29.9,61.6z M33.8,83.3
	c-0.8,0.5-1.4,0.9-2,1.3c0.6,0.2,1.2,0.4,2,0.7C33.8,84.6,33.8,84.1,33.8,83.3z M94.4,78.2c1.3,0.3,1.5,0.1,1.5-1.8
	C94.4,76.2,94.9,77.6,94.4,78.2z M102,31.1c-0.3-0.6-0.6-1.4-0.8-1.4c-1.1,0.1-0.6,1-0.9,1.8C100.9,31.3,101.3,31.3,102,31.1z
	 M34,76.2c0-0.7,0-1.3,0-2c-0.4,0.2-1,0.2-1,0.4c-0.2,0.5-0.1,1-0.2,1.6C33.3,76.2,33.6,76.2,34,76.2z M95.8,88.3
	c0.1-0.8,0.1-1.3,0.2-1.8c-0.7,0-1.3,0-2.2,0C94.6,87.2,95.1,87.7,95.8,88.3z M32.6,74.2c-1.7,0-1.2,1.1-1.5,1.9
	C33,76.4,32.2,75.1,32.6,74.2z M54.9,74.3c-0.1,0.5-0.2,1-0.3,1.7c1.8-0.6,1.8-0.6,1.7-1.7C55.9,74.3,55.5,74.3,54.9,74.3z
	 M58.1,32.4c1.3-0.6,2.4-1.4,2.2-3.2C59.6,30.4,58.8,31.4,58.1,32.4z M36.2,26.8c1.1-0.1,1.2-1,0.9-3.7
	C36.7,24.5,36.5,25.6,36.2,26.8z M90.7,63.6c-0.1,0.6-0.2,1.1-0.3,1.6c0.8,0,1.4,0,2.2,0c-0.5-0.4-0.7-0.7-1-0.9
	C91.4,64.1,91.1,63.9,90.7,63.6z M98.4,62.5c-2.8,0.2-2.9,0.3-2.7,1.8C96.5,63.7,97.3,63.2,98.4,62.5z M108.1,28.3c-1,0-1.7,0-2.6,0
	C106.3,29.4,107.1,29.4,108.1,28.3z M99.5,58.8c-0.4-0.8-0.6-1.3-0.8-1.8c-0.3,0.5-0.7,1-1.2,1.8C98.3,58.8,98.7,58.8,99.5,58.8z
	 M19.4,86.9c1.9,0.8,2.5,0.6,2.7-0.5C21.2,86.6,20.3,86.8,19.4,86.9z M96.1,78.2c1.2,0.2,1.4-0.1,1.2-1.9
	C95.9,76.4,96.5,77.6,96.1,78.2z M95.3,74c-1.6-0.1-1.3,1.1-1.8,1.9C95.3,76.1,94.8,74.8,95.3,74z M98,28.3c0,0.2-0.1,0.3-0.1,0.5
	c0.5,0.1,1.1,0.3,1.6,0.3c0.3,0,0.5-0.3,0.8-0.5c0-0.1-0.1-0.2-0.1-0.3C99.4,28.3,98.7,28.3,98,28.3z M52.9,49.7
	c-0.1-0.1-0.2-0.1-0.2-0.2c-0.6,0.2-1.3,0.3-1.9,0.5c0,0.1,0,0.2-0.1,0.3c0.5,0.2,1,0.6,1.5,0.6C52.4,50.9,52.7,50.1,52.9,49.7z
	 M96,90.9c0.7,0,1.3,0,2.2,0c-0.7-0.6-1.3-1.1-1.9-1.7C96.1,89.9,96.1,90.4,96,90.9z M37.8,65.1c0.1-0.1,0.1-0.2,0.2-0.3
	c-0.5-0.3-0.9-0.7-1.5-0.8c-0.2,0-0.6,0.6-0.9,0.9c0.1,0.1,0.1,0.2,0.2,0.3C36.5,65.1,37.2,65.1,37.8,65.1z M37.8,27.6
	c0,0.1,0,0.2,0,0.3c1,0,2.1,0,3.1,0c0-0.1,0-0.2,0-0.3C39.9,27.6,38.8,27.6,37.8,27.6z M98.7,76.4c-1.3,0.1-0.7,1.3-1,1.8
	C98.9,78.4,99,78.3,98.7,76.4z M96.6,88.9c0.7,0.6,1.2,1.1,1.9,1.7c0-0.7,0-1.2,0-1.7C97.9,88.9,97.4,88.9,96.6,88.9z M31.6,90.7
	c0-0.4,0-0.7,0-1c-1.6-0.2-1.6-0.2-1.4,1C30.6,90.7,31.1,90.7,31.6,90.7z M87.4,69c-0.3,1.3,0.5,1.3,1.3,1.3
	c0.1-0.4,0.2-0.8,0.2-1.3C88.4,69,88,69,87.4,69z M61.2,37.3c-1.5-0.2-1.1,0.8-1.2,1.6c0.5,0,0.8,0,1.2,0
	C61.2,38.3,61.2,37.9,61.2,37.3z M102.1,47c-0.5-0.7-0.9-1.2-1.2-1.7c-0.1,0.1-0.2,0.1-0.3,0.2c-0.1,0.5-0.2,1-0.3,1.5
	C100.9,47,101.2,47,102.1,47z M27.4,82.2c-0.8,0.7-1.8,0.7-1.6,1.9c0.4,0,0.8,0.1,1.2,0.1C27.1,83.6,27.2,83.1,27.4,82.2z
	 M37.5,90.7c-0.1-0.4-0.2-0.9-0.4-1c-0.3-0.1-0.8-0.1-1.1,0c-0.2,0.1-0.1,0.6-0.2,1C36.3,90.7,36.8,90.7,37.5,90.7z M25.7,91
	c0.3-1.1,0.1-1.5-0.7-1.3c-0.3,0.1-0.5,0.4-0.7,0.6C24.8,90.5,25.2,90.7,25.7,91z M127,80.8c0.4-0.3,0.7-0.4,1.1-0.7
	c-0.2-0.4-0.4-0.8-0.7-1.2c-0.4,0.2-0.8,0.3-1.1,0.5C126.5,79.9,126.7,80.3,127,80.8z M41.6,90.7c0.5,0,1,0,1.4,0
	c0.1-0.1,0.1-0.2,0.2-0.3c-0.3-0.2-0.6-0.6-0.9-0.7C41.6,89.5,41.4,89.9,41.6,90.7z M86.5,68.4c0.1-0.1,0.3-0.2,0.4-0.3
	c0-0.5,0-0.9,0-1.4c-0.4,0-0.8,0-1.6,0C85.8,67.4,86.2,67.9,86.5,68.4z M95.1,75.9c1.7,0,1.2-1.2,1.6-2C95.3,74,95.6,75.1,95.1,75.9
	z M34.7,52.6c0.1,0.1,0.2,0.2,0.2,0.3c0.4,0,0.9,0,1.3,0c0.1-0.1,0.2-0.2,0.3-0.3c-0.3-0.3-0.6-0.9-0.8-0.8
	C35.4,51.9,35,52.4,34.7,52.6z M23,65.8c0,0.1-0.1,0.3-0.1,0.4c0.5,0.2,0.9,0.4,1.4,0.5c0.2,0,0.5-0.3,0.7-0.4
	c-0.2-0.2-0.4-0.5-0.6-0.5C23.9,65.8,23.4,65.8,23,65.8z M33.2,63.7c0.1-0.4,0.2-0.8,0.3-1.3c-0.5-0.1-1-0.3-1.4-0.4
	C31.9,63.1,31.9,63.1,33.2,63.7z M57.4,9.1c1.9,1,2.6,1,3,0C59.4,9.1,58.5,9.1,57.4,9.1z M51.4,51.3c-0.6-0.4-1-0.7-1.5-1.2
	c-0.2,0.7-0.3,1.2-0.5,1.9C50.1,51.8,50.7,51.6,51.4,51.3z M53.8,52.6c0.5,0.4,0.9,0.6,1.3,1c0.2-0.8,0.3-1.4,0.5-2.4
	C54.9,51.8,54.4,52.1,53.8,52.6z M58.9,25.5c-0.1,0.6-0.2,1-0.3,1.6c0.7-0.3,1.3-0.5,1.8-0.7c0-0.1,0-0.2,0-0.4
	C60,25.9,59.5,25.7,58.9,25.5z M35.9,67.7c0,0.8,0,1.4,0,2.4c0.5-1,0.9-1.6,1.3-2.4C36.6,67.7,36.3,67.7,35.9,67.7z M49.5,44.9
	c2,0,1.3-1.6,1.7-2.4C50.7,43.2,50.2,43.9,49.5,44.9z M56.6,45.5c-0.7-0.6-1.3-1.1-1.8-1.7C54.5,45,55.2,45.6,56.6,45.5z M99.1,60.6
	c0-0.5,0-0.8,0-1.2c-0.5,0-0.9,0-1.4,0c-0.1,0.4-0.1,0.7-0.2,1.2C98.1,60.6,98.5,60.6,99.1,60.6z M34.2,54.1c0-0.2-0.1-0.4-0.1-0.6
	c-0.7,0.1-1.4,0.2-2.2,0.3c0,0.2,0.1,0.4,0.1,0.7C32.7,54.3,33.5,54.2,34.2,54.1z M100.6,44.3c1.3,0.4,1.2-0.3,1.2-0.9
	c0-0.3-0.2-0.5-0.4-0.7C101.1,43.2,100.9,43.7,100.6,44.3z M47.3,66.3c0-0.2-0.1-0.3-0.1-0.5c-0.5,0-1,0-1.5,0
	c-0.2,0-0.3,0.3-0.5,0.5c0.2,0.1,0.4,0.4,0.5,0.4C46.3,66.7,46.8,66.5,47.3,66.3z M39.4,53.7c1,1,1.7,1,2.4,0
	C41,53.7,40.3,53.7,39.4,53.7z M35,51c0.2,0.2,0.4,0.3,0.5,0.5c0.3-0.3,0.6-0.5,0.8-0.8c0.1-0.1-0.3-0.5-0.5-0.7
	C35.6,50.3,35.3,50.6,35,51z M58.7,56.3c0-0.6,0-1,0-1.4c-0.5,0-1,0-1.9,0C57.5,55.4,58,55.8,58.7,56.3z M49.2,78.2
	c-0.4-0.5-0.8-1-1.3-1.6c0,0.9,0,1.4,0,2C48.3,78.5,48.7,78.3,49.2,78.2z M99.2,55.2c-0.1-0.1-0.3-0.2-0.4-0.3
	c-0.2,0.5-0.4,1-0.7,1.6C99.6,56.7,99.1,55.8,99.2,55.2z M58.7,56.9c-0.7-0.6-1.2-0.9-1.8-1.4c-0.1,0.5-0.2,0.9-0.3,1.4
	C57.3,56.9,57.8,56.9,58.7,56.9z M16.2,88.4c-0.1,0.1-0.3,0.2-0.4,0.3c0.2,0.5-0.1,1.5,1.4,1.2C16.8,89.3,16.5,88.8,16.2,88.4z
	 M65.8,20.5c-0.1,0.1-0.1,0.2-0.2,0.3c0.3,0.2,0.6,0.4,0.9,0.4c0.5,0,0.9-0.2,1.4-0.3c0-0.1-0.1-0.3-0.1-0.4
	C67.2,20.5,66.5,20.5,65.8,20.5z M61.2,46.8c0-0.1,0-0.2,0-0.3c-1,0-2,0-3.1,0c0,0.1,0,0.2,0,0.3C59.1,46.8,60.1,46.8,61.2,46.8z
	 M31.4,65c0.7,0,1.3,0,2.1,0c-0.7-0.5-1.2-0.8-1.9-1.3C31.6,64.3,31.5,64.7,31.4,65z M58.3,74.8c-0.7,0.4-1.2,0.7-1.7,1.1
	c0.1,0.1,0.1,0.2,0.2,0.3c0.5,0,1,0,1.5,0C58.3,75.7,58.3,75.4,58.3,74.8z M57.4,20.4c0,0.2-0.1,0.3-0.1,0.5c0.5,0.1,1,0.3,1.5,0.3
	c0.3,0,0.5-0.3,0.8-0.5c0-0.1-0.1-0.2-0.1-0.3C58.8,20.4,58.1,20.4,57.4,20.4z M109.4,95.6c0.4-1.5,0.4-1.5-1.2-1.5
	C108.7,94.7,108.9,95.1,109.4,95.6z M17.9,88.4c-0.1,0.1-0.3,0.2-0.4,0.4c0.3,0.5,0,1.4,1.5,1.1C18.5,89.2,18.2,88.8,17.9,88.4z
	 M19.6,88.4c-0.1,0.1-0.3,0.2-0.4,0.4c0.3,0.4,0,1.4,1.5,1.1C20.2,89.2,19.9,88.8,19.6,88.4z M24.9,85.3c-1.7-0.7-1.7-0.7-1.9,0.5
	C23.6,85.6,24.3,85.5,24.9,85.3z M63,20.5c1.7,1,2,1,2.4,0C64.6,20.5,64,20.5,63,20.5z"/>
</svg>
