<?xml version="1.0" encoding="utf-8"?>
<!-- Generator: Adobe Illustrator 22.0.1, SVG Export Plug-In . SVG Version: 6.00 Build 0)  -->
<!DOCTYPE svg PUBLIC "-//W3C//DTD SVG 1.1//EN" "http://www.w3.org/Graphics/SVG/1.1/DTD/svg11.dtd">
<svg version="1.1" id="Layer_1" xmlns="http://www.w3.org/2000/svg" xmlns:xlink="http://www.w3.org/1999/xlink" x="0px" y="0px"
	 width="187.1px" height="38.9px" viewBox="0 0 187.1 38.9" style="enable-background:new 0 0 187.1 38.9;" xml:space="preserve">
<style type="text/css">
	.st0{fill-rule:evenodd;clip-rule:evenodd;}
</style>
<g>
	<path class="st0" d="M14.7,27.6c3,4.9,8.5,8.2,14.6,8.2c9,0,14-7.8,14-7.8l0,0l0.6,2.1l0,0c-4.2,5.4-11.7,8.7-20,8.7
		c-9.6,0-17.9-4.6-21.7-11.2C0.8,25.1,0,22.4,0,19.4C0,8.7,10.7,0,24,0c9.4,0,16.9,4,20.9,9.8l0,0l-15.7,9.4l9-13.8l0,0
		c-2.6-1.6-5.7-3.1-9-3.1c-9.2,0-16.8,7.7-16.8,16.9C12.4,22.3,13.2,25.2,14.7,27.6L14.7,27.6L14.7,27.6L14.7,27.6L14.7,27.6z"/>
	<path class="st0" d="M56.8,27.6c0,0.3-0.1,0.6-0.1,0.9c0,3.5,2.8,6.3,6.3,6.3c3.5,0,6.3-2.8,6.3-6.3c0-0.3,0-0.6-0.1-1
		c-0.5-3-3.1-5.4-6.2-5.4C59.9,22.3,57.3,24.6,56.8,27.6L56.8,27.6L56.8,27.6L56.8,27.6L56.8,27.6z M80.3,27.6l3.1,10.6h-11L70.2,31
		l0,0c-1.5,4.2-6.3,7.2-12.2,7.2c-7,0-12.6-4.4-12.6-9.8c0-0.3,0-0.5,0-0.8c0.5-5.1,5.9-9.1,12.6-9.1c3.8,0,7.1,1.3,9.5,3.3l0,0
		l-3-10H51.9l0,0c0,0,2.1-1.3,11.4-4.7c9.3-3.4,12.3,4.7,12.3,4.7l0,0L80.3,27.6L80.3,27.6L80.3,27.6L80.3,27.6z"/>
	<path class="st0" d="M115.5,27.6v10.6h-11.3V27.6V15l0,0c0-1.7-1.4-3.1-3.1-3.1c-1.3,0-2.4,0.8-2.9,2l0,0v13.8v10.6H87V27.6V11.9
		h-6.5l0,0c0,0,9-5.5,12.2-5.5c3,0,5.2,2.3,5.4,5.2c4.4-2.4,8.7-5.2,11.7-5.2c3.1,0,5.6,2.5,5.7,5.5l0,0V27.6L115.5,27.6L115.5,27.6
		L115.5,27.6z"/>
	<path class="st0" d="M132.9,27.6l1.6,5.2l0,0c0,2.2,1.9,4,4.1,4c2.3,0,4.2-1.9,4.2-4.2c0-0.2,0-0.3,0-0.5l0,0l-1.3-4.6l-4.7-16.1
		l0,0c-0.2-2.1-2-3.7-4.1-3.7c-2.1,0-4.2,2-4.4,4l0,0L132.9,27.6L132.9,27.6L132.9,27.6L132.9,27.6z M151,27.6
		c-2.1,6.5-8.3,11.2-15.5,11.2c-7.2,0-13.4-4.7-15.5-11.2c-0.5-1.6-0.8-3.3-0.8-5.1c0-9,7.3-16.3,16.3-16.3c9,0,16.3,7.3,16.3,16.3
		C151.8,24.3,151.5,26,151,27.6L151,27.6L151,27.6L151,27.6L151,27.6z"/>
	<path class="st0" d="M169.8,27.6v10.6h-11.1V27.6V11.9h-6.2l0,0c0,0,8.8-5.5,11.9-5.5c3,0,5.2,2.3,5.4,5.2
		c4.4-2.4,8.7-5.2,11.7-5.2c3.1,0,5.6,2.5,5.7,5.5l0,0v15.7v10.6h-11.3V27.6V15l0,0c0-1.7-1.4-3.1-3.1-3.1c-1.3,0-2.4,0.8-2.9,2l0,0
		V27.6L169.8,27.6L169.8,27.6L169.8,27.6z"/>
</g>
</svg>
