<?xml version="1.0" encoding="utf-8"?>
<!-- Generator: Adobe Illustrator 22.0.1, SVG Export Plug-In . SVG Version: 6.00 Build 0)  -->
<!DOCTYPE svg PUBLIC "-//W3C//DTD SVG 1.1//EN" "http://www.w3.org/Graphics/SVG/1.1/DTD/svg11.dtd">
<svg version="1.1" id="Layer_1" xmlns="http://www.w3.org/2000/svg" xmlns:xlink="http://www.w3.org/1999/xlink" x="0px" y="0px"
	 width="160.2px" height="96px" viewBox="0 0 160.2 96" style="enable-background:new 0 0 160.2 96;" xml:space="preserve">
<style type="text/css">
	.st0{fill-rule:evenodd;clip-rule:evenodd;}
</style>
<g>
	<path class="st0" d="M69.7,2.2c0-1.5-1-2.2-2.3-2.2h-7.9c-3.1,0-5.4,1.6-5.4,5.4v67.9c0,1.5,1,2.1,2.3,2.1h7.9
		c3.2,0,5.4-1.6,5.4-5.4V2.2L69.7,2.2z"/>
	<path class="st0" d="M159.6,27c0.3-0.7,0.6-1.3,0.6-1.9c0-1.3-0.9-1.9-2.2-1.9h-9.6c-1.9,0-2.8,0.7-3.5,2.2l-13.6,30.1l-18.9-29.8
		c-1.2-1.8-2.4-2.5-5.2-2.5H95.8c-2.4,0-3.6,0.6-5.1,2.1L70.7,46.9l18,26.3c1,1.5,1.9,2.2,3.5,2.2h10.8c1.6,0,2.5-0.6,2.5-2
		c0-0.8-0.4-1.4-0.9-2.1L88.7,47.8l12-13L124.5,70L114,92.2c-0.3,0.7-0.6,1.3-0.6,1.9c0,1.3,0.9,1.9,2.2,1.9h9.5
		c1.9,0,2.8-0.7,3.5-2.2L159.6,27L159.6,27z"/>
	<path class="st0" d="M19.4,41.2c-3.2-0.7-4.1-1.6-4.1-3.2c0-1.2,1-2.2,3.8-2.2h23.1c3.8,0,5.4-2.2,5.4-5.4v-5
		c0-1.3-0.6-2.3-2.1-2.3h-27C6.3,23.1,0,30.1,0,39c0,7.9,4.9,12.7,14.6,14.9l15.5,3.5c3.2,0.7,4.1,1.6,4.1,3.2c0,1.2-1,2.2-3.8,2.2
		h-24c-3.9,0-5.4,2.2-5.4,5.4v5c0,1.3,0.6,2.3,2.1,2.3h26.4c14.2,0,20-7,20-15.2c0-8.5-4.9-13.3-14.6-15.5L19.4,41.2L19.4,41.2z"/>
</g>
</svg>
