<?xml version="1.0" encoding="utf-8"?>
<!-- Generator: Adobe Illustrator 22.0.1, SVG Export Plug-In . SVG Version: 6.00 Build 0)  -->
<!DOCTYPE svg PUBLIC "-//W3C//DTD SVG 1.1//EN" "http://www.w3.org/Graphics/SVG/1.1/DTD/svg11.dtd">
<svg version="1.1" id="Calque_1" xmlns="http://www.w3.org/2000/svg" xmlns:xlink="http://www.w3.org/1999/xlink" x="0px" y="0px"
	 width="391.3px" height="128.1px" viewBox="0 0 391.3 128.1" style="enable-background:new 0 0 391.3 128.1;" xml:space="preserve"
	>
<style type="text/css">
	.st0{fill:#FFFFFF;}
</style>
<path id="Carrés" d="M14.7,11.1h109.9v103.5H14.7V11.1z M141.4,114.7h109.9V11.1H141.4V114.7z M268.1,114.7H378V11.1H268.1V114.7z"
	/>
<path id="B" class="st0" d="M208.9,60.5c0,0,9.6-4.1,9.5-14.9c0,0,1.5-17.7-22.1-19.9h-26.1v74.4h29.9c0,0,25,0.1,25-21
	C225.2,79.1,225.7,64.8,208.9,60.5z M183.5,37.3h10.7c11.1,0.6,10.7,8.8,10.7,8.8c0,10.2-12.2,10.4-12.2,10.4h-9.1V37.3z M211.5,78
	c0,11.2-14,10.6-14,10.6h-14V68.3h14C211.9,68.2,211.5,78,211.5,78z"/>
<path id="B_1_" class="st0" d="M82.2,60.5c0,0,9.6-4.1,9.5-14.9c0,0,1.5-17.7-22.1-19.9H43.6v74.4h29.9c0,0,25,0.1,25-21
	C98.5,79.1,99.1,64.8,82.2,60.5z M56.8,37.3h10.7c11.1,0.6,10.7,8.8,10.7,8.8c0,10.2-12.2,10.4-12.2,10.4h-9.1V37.3z M84.8,78
	c0,11.2-14,10.6-14,10.6h-14V68.3h14C85.2,68.2,84.8,78,84.8,78z"/>
<path id="C" class="st0" d="M355.6,31v13.7c0,0-13.4-8.2-28.2-8.4c0,0-27.7-0.5-28.9,26.5c0,0-1,24.9,28.6,26.3
	c0,0,12.4,1.5,29.2-9.2v14.2c0,0-22.6,13.4-48.8,3.1c0,0-22-8-22.8-34.4c0,0-0.9-27.1,28.4-36.1c0,0,7.8-3,21.9-1.7
	C335,25.1,343.4,25.9,355.6,31z"/>
</svg>
