<?xml version="1.0" encoding="utf-8"?>
<!-- Generator: Adobe Illustrator 22.0.1, SVG Export Plug-In . SVG Version: 6.00 Build 0)  -->
<!DOCTYPE svg PUBLIC "-//W3C//DTD SVG 1.1//EN" "http://www.w3.org/Graphics/SVG/1.1/DTD/svg11.dtd">
<svg version="1.1" id="Layer_1" xmlns="http://www.w3.org/2000/svg" xmlns:xlink="http://www.w3.org/1999/xlink" x="0px" y="0px"
	 width="175.8px" height="38.8px" viewBox="0 0 175.8 38.8" style="enable-background:new 0 0 175.8 38.8;" xml:space="preserve">
<style type="text/css">
	.st0{fill:#696969;}
	.st1{fill:#828282;}
	.st2{fill:#404040;}
</style>
<path class="st0" d="M170.3,19.6c1.7,0.5,3.5,1.3,5.5,2.4c-4.8-7.8-13.2-16.4-21.6-22c2.2,2.2,5.7,6.8,6.6,11.9
	C164.2,14.3,167.3,16.9,170.3,19.6L170.3,19.6z"/>
<path class="st1" d="M170.2,19.6c-4-1.4-7.5-1.4-10.1-1.2c0.9-2.1,1-4.4,0.6-6.6c-6.3-4.5-13.2-8.5-19.9-11.3
	c4.9,3.3,10.3,12.9,12.6,23.2c4.8-1.4,12.3-2.4,21.9,0.9C173.7,22.9,172.1,21.2,170.2,19.6L170.2,19.6z"/>
<path class="st2" d="M160.7,11.9c0.4,2.2,0.3,4.4-0.6,6.6c2.6-0.3,6-0.2,10.2,1.2C167.3,16.9,164.2,14.3,160.7,11.9L160.7,11.9z"/>
<path class="st2" d="M66,23.8V26h0.2c0.1-0.3,0.6-1.1,1.7-1.1h2.7c0,0.2,0,13.6,0,13.6h2.3c0,0-0.1-13.4-0.1-13.6h2.8
	c1.1,0,1.4,0.5,1.7,0.9l0.1-0.1v-1.9H66L66,23.8z"/>
<path class="st2" d="M2.7,22.8C1,24.6,0,26.9,0,29.4c0,2.7,1.1,5.1,3.1,6.8c1.9,1.7,4.4,2.6,7.1,2.6c1.4,0,4.2-0.3,6.8-1.9l0,0
	l0.4-3.6l-0.3-0.1v0.1c-2,4.2-5.3,4.2-6.4,4.2c-5.4,0-7.8-4.5-7.8-8.6c0-2.2,0.7-4.2,2-5.6c1.4-1.6,3.5-2.4,5.8-2.4
	c1.7,0,4.7,0.6,6.3,4.2v0.1l0.3-0.1l-0.4-3.7l0,0c-2.4-1.1-4.5-1.6-6.4-1.6C7.3,19.8,4.5,20.9,2.7,22.8L2.7,22.8z"/>
<path class="st2" d="M20.1,23.8L20,24c0.3,0.1,0.6,0.6,0.6,1.4v13.2h2.2c0,0,0-6.6,0-6.8c0.2,0,0.7,0,1.3,0.1c1,0,1.4,0.7,1.9,1.6
	l0.1,0.1l0.3,0.6c0.6,0.9,1.3,2.1,2,3.2c0.6,0.8,1.2,1.2,2,1.4c0.6,0.1,1.8,0.1,2.2-0.1l0.3-0.1l-0.3-0.1c-0.3-0.1-0.9-0.3-1.5-1.1
	c-0.4-0.5-1.1-1.5-2-3.1l-1-1.6l0,0c-0.3-0.4-0.8-1.2-1.7-1.5c1.4-0.3,3-1.5,3-3.6c0-0.6-0.1-1.5-1-2.4c-0.9-0.9-2.4-1.3-4.2-1.3
	L20.1,23.8L20.1,23.8z M24.3,24.8c2.7,0.1,2.8,2.4,2.8,2.7c0,2.3-1.7,3.2-3.2,3.2c-0.4,0-0.9-0.1-1.2-0.1v-5.7
	C23,24.8,23.5,24.8,24.3,24.8L24.3,24.8z"/>
<path class="st2" d="M45.1,23.8L45,24c0.4,0.1,0.5,0.7,0.5,1.2v13.4h4.2c6,0,8.7-3.9,8.7-7.6c0-1.2-0.4-2.9-1.4-4.3
	c-1.5-1.9-3.8-2.8-6.9-2.8L45.1,23.8L45.1,23.8z M47.8,24.9c0.1,0,1.4,0.1,1.4,0.1c0.4,0,1.3,0,1.9,0.1c4.3,0.6,4.8,4.3,4.8,5.9
	c0,1.2-0.3,3-1.4,4.4c-1,1.4-2.7,2.1-4.9,2.1c-0.6,0-1.2,0-1.9,0V24.9L47.8,24.9z"/>
<path class="st2" d="M60.9,23.8V24c0.3,0.1,0.5,0.6,0.5,1.3v13.2h2.2V23.8H60.9L60.9,23.8z"/>
<path class="st2" d="M111.2,23.8V24c0.4,0.1,0.5,0.6,0.5,1.3v13.2h2.2V23.8H111.2L111.2,23.8z"/>
<path class="st2" d="M33.5,23.8V24c0.3,0.1,0.5,0.7,0.5,1.4v13.2h8.1l0.6-2.4l-0.2-0.1l-0.1,0.1c-0.7,1.2-1.4,1.3-3.8,1.3
	c-0.9,0-1.8-0.1-2.3-0.1h-0.1v-6.5h4.2v-1h-1.3c0,0-2.8,0-3,0v-5c0.5,0,3.2,0.1,3.6,0.1c0.8,0,1.5,0.4,1.6,0.9l0.3,0.1l-0.1-2.1
	L33.5,23.8L33.5,23.8z"/>
<path class="st2" d="M140.8,23.8l-0.1,0.1c0.4,0.1,0.6,0.7,0.6,1.4v13.2h8.1l0.6-2.4l-0.2-0.1l-0.1,0.1c-0.7,1.2-1.4,1.3-3.8,1.3
	c-0.9,0-1.8-0.1-2.4-0.1c0,0,0,0-0.1,0v-6.5h4.2v-1h-1.2c0,0-2.8,0-3,0v-5c0.6,0,3.2,0.1,3.6,0.1c0.9,0,1.6,0.4,1.7,1h0.2l-0.1-2.1
	L140.8,23.8L140.8,23.8z"/>
<path class="st2" d="M84.9,21C84,21.6,83,22.7,83,24.6c-0.1,2.4,1.4,3.6,3.9,4.8l0.9,0.5c2.2,1.1,3.7,1.9,3.7,4
	c0,0.8-0.3,1.9-1.1,2.7c-0.6,0.6-1.6,1-2.7,0.9c-3.2,0-4.4-2.9-4.8-4.1v-0.1l-0.3,0.1l0.1,3.7l0,0c1,0.6,2.7,1.5,5,1.6
	c1.7,0,3.4-0.6,4.5-1.9c1.1-1,1.6-2.2,1.6-3.7c0-3.1-2.2-4.2-4.6-5.5L89,27.5c-2.6-1.3-3.7-2.1-3.7-3.7c0-1.2,0.9-3,3.1-2.9
	c2.5,0,3.9,1.9,4.2,3.1v0.1h0.3l-0.1-3.2h-0.1c-1.4-0.9-3.2-1.1-3.9-1.1C87.3,19.8,85.9,20.2,84.9,21L84.9,21z"/>
<path class="st2" d="M118.3,27.4c-0.1,2,1.2,3.1,3.2,4l0.7,0.4c1.7,0.8,2.7,1.4,2.7,3c0,0.3,0,1.2-0.8,1.9c-0.5,0.5-1.2,0.8-2.1,0.8
	c-2.4-0.1-3.4-1.9-3.7-3.1v-0.1h-0.2l0.1,3l0.1,0.1c0.8,0.4,2.1,1.2,4,1.2c1.3,0,2.7-0.6,3.6-1.4c0.8-0.8,1.2-1.8,1.2-3
	c0-2.5-1.8-3.5-3.7-4.5l-0.4-0.2c-2.1-1-2.9-1.5-2.8-2.7c0-0.9,0.6-2.2,2.4-2.2c2.1,0,3,1.5,3.2,2.3v0.1l0.3-0.1l-0.1-2.5l-0.1-0.1
	c-1.1-0.7-2.5-0.8-3.1-0.8C120.6,23.6,118.3,25,118.3,27.4L118.3,27.4z"/>
<path class="st2" d="M129.5,27.4c0,2,1.2,3.1,3.2,4l0.8,0.4c1.7,0.8,2.7,1.4,2.7,3c0,0.3-0.1,1.2-0.8,1.9c-0.5,0.5-1.2,0.8-2.1,0.8
	c-2.5-0.1-3.5-1.9-3.7-3.1v-0.1h-0.3l0.1,3v0.1c0.8,0.4,2.2,1.2,4,1.2c1.3,0,2.7-0.6,3.5-1.4c0.9-0.8,1.3-1.8,1.3-3
	c0-2.5-1.8-3.5-3.7-4.5l-0.4-0.2c-2.1-1-2.9-1.5-2.9-2.7c0-0.9,0.6-2.2,2.4-2.2c2.1,0,3,1.5,3.2,2.3l0.1,0.1l0.2-0.1l-0.1-2.5v-0.1
	c-1.2-0.7-2.5-0.8-3.1-0.8C131.9,23.6,129.5,25,129.5,27.4L129.5,27.4z"/>
<path class="st2" d="M106,23.8V24c0.2,0.1,0.5,0.4,0.5,1.3v8.5c0,1.7-0.6,3.8-3.7,3.8c-2.8,0-3.5-1.7-3.5-4.2l0.1-9.5h-2.9V24
	c0.2,0.1,0.6,0.4,0.6,1.4v8c0,4.8,3.2,5.4,5.6,5.4c1.2,0,5-0.4,5-4.9V23.8L106,23.8L106,23.8z"/>
</svg>
