<?xml version="1.0" encoding="utf-8"?>
<!-- Generator: Adobe Illustrator 22.0.1, SVG Export Plug-In . SVG Version: 6.00 Build 0)  -->
<!DOCTYPE svg PUBLIC "-//W3C//DTD SVG 1.1//EN" "http://www.w3.org/Graphics/SVG/1.1/DTD/svg11.dtd">
<svg version="1.1" id="Layer_1" xmlns="http://www.w3.org/2000/svg" xmlns:xlink="http://www.w3.org/1999/xlink" x="0px" y="0px"
	 width="248.7px" height="66px" viewBox="0 0 248.7 66" style="enable-background:new 0 0 248.7 66;" xml:space="preserve">
<style type="text/css">
	.st0{fill:#4E4E4E;}
	.st1{fill:#BFBFBF;}
</style>
<path class="st0" d="M0,16.6V9.3h32.2v7.3H20.4v32.1h-8.7V16.6H0"/>
<path class="st0" d="M40.5,57.1c-1.5,1-3.6,1.5-6.3,1.5c-0.8,0-1.6,0-2.4-0.1c-0.8-0.1-1.6-0.1-2.4-0.2v-6.4
	c0.7,0.1,1.5,0.1,2.3,0.2c0.8,0.1,1.5,0.1,2.3,0.1c1-0.1,1.8-0.5,2.3-1.2c0.5-0.7,0.7-1.5,0.7-2.3c0-0.6-0.1-1.2-0.3-1.8l-10-26.7
	H35l6.4,19.5h0.1l6.2-19.5h8.1L44,52.2C43.2,54.5,42,56.1,40.5,57.1 M66.1,20.1v3.6h0.1c1-1.5,2.2-2.7,3.6-3.4c1.5-0.7,3.1-1,4.8-1
	c2.2,0,4.2,0.4,5.8,1.3c1.6,0.8,3,2,4,3.4c1.1,1.4,1.9,3,2.4,4.9c0.5,1.9,0.8,3.8,0.8,5.8c0,1.9-0.3,3.7-0.8,5.5
	c-0.5,1.8-1.3,3.3-2.3,4.7c-1,1.4-2.4,2.4-3.9,3.3c-1.6,0.8-3.4,1.2-5.5,1.2c-1.8,0-3.4-0.4-4.9-1.1c-1.5-0.7-2.7-1.8-3.7-3.2h-0.1
	V59h-7.8V20.1H66.1z M76.3,42.7c0.8-0.5,1.6-1.2,2.1-2c0.5-0.8,0.9-1.8,1.1-2.9c0.2-1.1,0.3-2.2,0.3-3.4c0-1.1-0.1-2.3-0.4-3.4
	c-0.2-1.1-0.6-2.1-1.2-2.9c-0.5-0.9-1.3-1.6-2.1-2.1c-0.9-0.5-1.9-0.8-3.2-0.8c-1.3,0-2.4,0.3-3.2,0.8c-0.8,0.5-1.6,1.2-2.1,2.1
	c-0.5,0.8-0.9,1.8-1.1,2.9c-0.2,1.1-0.3,2.3-0.3,3.4c0,1.1,0.1,2.3,0.4,3.4c0.2,1.1,0.6,2.1,1.2,2.9c0.5,0.8,1.2,1.5,2.1,2
	c0.9,0.5,1.9,0.8,3.2,0.8C74.3,43.5,75.4,43.2,76.3,42.7L76.3,42.7z M100.2,41.8c1.2,1.1,2.9,1.7,5.1,1.7c1.6,0,2.9-0.4,4.1-1.2
	c1.1-0.8,1.8-1.6,2.1-2.5h6.9c-1.1,3.4-2.8,5.9-5.1,7.3c-2.3,1.5-5,2.2-8.3,2.2c-2.2,0-4.3-0.4-6.1-1.1c-1.8-0.7-3.3-1.7-4.6-3.1
	c-1.2-1.3-2.2-2.9-2.9-4.7c-0.7-1.8-1-3.9-1-6.1c0-2.1,0.3-4.1,1-6c0.7-1.8,1.7-3.4,3-4.8c1.3-1.3,2.8-2.4,4.6-3.2
	c1.8-0.8,3.8-1.2,5.9-1.2c2.4,0,4.5,0.5,6.3,1.4c1.8,0.9,3.3,2.2,4.4,3.8c1.2,1.6,2,3.4,2.5,5.4c0.5,2,0.7,4.1,0.6,6.3H98.3
	C98.4,38.8,99,40.7,100.2,41.8L100.2,41.8z M109,26.8c-0.9-1-2.4-1.5-4.3-1.5c-1.2,0-2.3,0.2-3.1,0.6c-0.8,0.4-1.5,0.9-2,1.6
	c-0.5,0.6-0.8,1.3-1,2c-0.2,0.7-0.3,1.3-0.4,1.9H111C110.6,29.3,110,27.8,109,26.8L109,26.8z M118.9,25.4v-5.2h4.7v-2.2
	c0-2.5,0.8-4.6,2.4-6.2c1.6-1.6,4-2.4,7.2-2.4c0.7,0,1.4,0,2.1,0.1c0.7,0.1,1.4,0.1,2,0.1v5.8c-1-0.1-1.9-0.2-2.9-0.2
	c-1.1,0-1.8,0.2-2.3,0.7c-0.5,0.5-0.7,1.3-0.7,2.5v1.7h5.4v5.2h-5.4v23.3h-7.8V25.4H118.9 M137.9,28.2c0.7-1.9,1.7-3.4,3-4.7
	c1.3-1.3,2.8-2.3,4.6-3c1.8-0.7,3.8-1.1,6.1-1.1c2.2,0,4.3,0.4,6.1,1.1c1.8,0.7,3.4,1.7,4.7,3c1.3,1.3,2.3,2.9,3,4.7
	c0.7,1.9,1,3.9,1,6.2s-0.4,4.3-1,6.2c-0.7,1.8-1.7,3.4-3,4.7c-1.3,1.3-2.8,2.3-4.7,3c-1.8,0.7-3.9,1-6.1,1c-2.2,0-4.3-0.4-6.1-1
	c-1.8-0.7-3.3-1.7-4.6-3c-1.3-1.3-2.3-2.9-3-4.7c-0.7-1.8-1-3.9-1-6.2S137.2,30.1,137.9,28.2z M145,37.7c0.2,1.1,0.6,2.1,1.1,2.9
	c0.5,0.9,1.3,1.6,2.1,2.1c0.9,0.5,2,0.8,3.3,0.8s2.4-0.3,3.3-0.8c0.9-0.5,1.6-1.2,2.2-2.1c0.5-0.9,0.9-1.8,1.1-2.9
	c0.2-1.1,0.3-2.2,0.3-3.3c0-1.1-0.1-2.3-0.3-3.4c-0.2-1.1-0.6-2.1-1.1-2.9c-0.5-0.8-1.3-1.5-2.2-2.1c-0.9-0.5-2-0.8-3.3-0.8
	s-2.4,0.3-3.3,0.8c-0.9,0.5-1.6,1.2-2.1,2.1c-0.5,0.8-0.9,1.8-1.1,2.9c-0.2,1.1-0.3,2.2-0.3,3.4C144.6,35.6,144.7,36.7,145,37.7z
	 M176.6,20.1v5.3h0.1c0.4-0.9,0.9-1.7,1.5-2.5c0.6-0.8,1.3-1.4,2.1-1.9c0.8-0.5,1.7-0.9,2.6-1.2c0.9-0.3,1.9-0.4,2.9-0.4
	c0.5,0,1.1,0.1,1.7,0.3v7.3c-0.4-0.1-0.9-0.1-1.3-0.2c-0.5-0.1-1-0.1-1.5-0.1c-1.4,0-2.6,0.2-3.6,0.7c-1,0.5-1.8,1.1-2.4,2
	c-0.6,0.8-1,1.8-1.3,2.9c-0.3,1.1-0.4,2.3-0.4,3.6v12.8h-7.8V20.1H176.6 M197.6,20.1V24h0.1c1-1.5,2.3-2.6,3.7-3.4
	c1.5-0.8,3.1-1.2,5-1.2c1.8,0,3.4,0.3,4.9,1c1.5,0.7,2.6,1.9,3.4,3.7c0.8-1.2,2-2.4,3.4-3.3c1.5-1,3.2-1.4,5.2-1.4
	c1.5,0,2.9,0.2,4.2,0.6c1.3,0.4,2.4,1,3.3,1.8c0.9,0.8,1.6,1.9,2.2,3.2c0.5,1.3,0.8,2.9,0.8,4.7v19.1H226V32.5c0-1,0-1.9-0.1-2.7
	c-0.1-0.8-0.3-1.6-0.6-2.2c-0.3-0.6-0.8-1.1-1.5-1.5c-0.6-0.4-1.5-0.6-2.6-0.6c-1.1,0-2,0.2-2.7,0.6c-0.7,0.4-1.2,1-1.6,1.7
	c-0.4,0.7-0.6,1.5-0.8,2.3c-0.1,0.9-0.2,1.7-0.2,2.6v15.9h-7.8v-16c0-0.8,0-1.7-0.1-2.5c0-0.8-0.2-1.6-0.5-2.3
	c-0.3-0.7-0.7-1.3-1.4-1.7c-0.6-0.4-1.6-0.6-2.8-0.6c-0.4,0-0.9,0.1-1.5,0.2s-1.2,0.5-1.8,0.9c-0.6,0.5-1.1,1.1-1.5,2
	c-0.4,0.9-0.6,2-0.6,3.4v16.5h-7.8V20.1H197.6"/>
<path class="st1" d="M241.8,0h6.9v66h-6.9V0z"/>
</svg>
