<?xml version="1.0" encoding="utf-8"?>
<!-- Generator: Adobe Illustrator 22.0.1, SVG Export Plug-In . SVG Version: 6.00 Build 0)  -->
<!DOCTYPE svg PUBLIC "-//W3C//DTD SVG 1.1//EN" "http://www.w3.org/Graphics/SVG/1.1/DTD/svg11.dtd">
<svg version="1.1" id="Layer_1" xmlns="http://www.w3.org/2000/svg" xmlns:xlink="http://www.w3.org/1999/xlink" x="0px" y="0px"
	 width="240.5px" height="158.4px" viewBox="0 0 240.5 158.4" style="enable-background:new 0 0 240.5 158.4;" xml:space="preserve"
	>
<style type="text/css">
	.st0{fill:#D8D9D8;}
	.st1{fill:#515251;}
</style>
<path class="st0" d="M136.2,26.7c0.9,0.4,1.5,1.1,1.7,2l13.6,76.6c0.1,0.9-0.2,1.8-0.9,2.5L91,157.9c-0.7,0.6-1.7,0.7-2.6,0.5
	l-73.2-26.5c-0.9-0.4-1.5-1.1-1.7-2L0,53.1c-0.1-0.9,0.2-1.8,0.9-2.5L60.5,0.6c0.7-0.6,1.7-0.7,2.6-0.5L136.2,26.7z"/>
<path class="st1" d="M71.8,81c-0.1,0.4-0.1,0.7-0.2,1.1c0,0.3,0.3,0.6,0.6,0.6c0,0,0.1,0,0.1,0c0.2,0,0.5,0,0.7-0.1
	c0.4-0.1,0.8-0.2,1.2-0.2c0.9-0.1,1.7,0.7,1.8,1.6c0,0.1,0,0.1,0,0.2c0,1.8-1.3,2.9-3.3,2.9c-0.5,0-1-0.1-1.4-0.1
	c-0.9-0.1-1.9-0.2-2.8-0.2c-1.2,0-2.3,0.1-3.4,0.3c-0.3,0-0.8,0.1-1,0.1c-1,0.1-1.9-0.6-2-1.5c0-0.1,0-0.2,0-0.2c0-1.5,1-2.8,2-2.8
	c0.1,0,0.3,0,0.4,0l0.5,0.1c0.6,0,0.7-0.1,0.9-1.6l0.6-2.9c0-0.2,0.1-0.4,0.1-0.5c0-0.3-0.2-0.5-0.7-0.5h-5c-1,0-1,0-1.2,1l-0.6,3
	c0,0-0.2,1.1-0.2,1.1c0,0.2,0.2,0.4,0.4,0.5c0.1,0,0.3,0,0.4-0.1c0.1,0,0.3,0,0.4,0c0.8,0.2,1.3,0.9,1.1,1.7c0.1,1.5-1,2.7-2.4,2.8
	c-0.1,0-0.3,0-0.4,0c-0.6,0-1.3-0.1-1.9-0.2c-0.7-0.1-1.5-0.2-2.3-0.2c-0.4,0-0.9,0-1.3,0.1c-0.3,0.1-0.7,0.1-1,0.1
	c-0.3,0-0.2,0-0.5,0.1h-0.2H51c-0.2,0-0.4,0-0.6,0c-1,0.1-1.9-0.6-2-1.5c0-0.1,0-0.2,0-0.4c0-1.4,1-2.7,2.1-2.7c0.2,0,0.3,0,0.7,0.1
	c0.2,0,0.5,0.1,0.7,0.1c0.7,0,0.9-0.3,1.1-1.7l2.1-11.1c0.1-0.6,0.2-1,0.2-1.2c0-0.4-0.4-0.6-0.7-0.6c0,0,0,0,0,0
	c-0.2,0-0.4,0.1-0.6,0.1c-0.4,0.1-0.8,0.2-1.2,0.2c-0.9,0.1-1.7-0.7-1.8-1.6c0-0.1,0-0.2,0-0.3c0-1.7,1.4-2.9,3.3-2.9
	c0.5,0,0.9,0.1,1.4,0.1c0.9,0.1,1.8,0.2,2.7,0.2c1.2,0,2.4-0.1,3.6-0.3c0.4,0,0.8-0.1,1-0.1c1-0.1,1.8,0.5,2,1.5c0,0.1,0,0.2,0,0.3
	c0,1.4-1,2.8-2,2.8c-0.1,0-0.3,0-0.4-0.1c-0.1,0-0.3-0.1-0.4-0.1c-0.6,0-0.7,0.2-1,1.7l-0.3,1.8c-0.1,0.2-0.1,0.3-0.1,0.5
	c0,0.3,0.2,0.5,0.7,0.5H67c0.4,0,0.5-0.1,0.7-1l0.4-1.8c0.1-0.4,0.2-0.8,0.2-1.2c0-0.2-0.2-0.4-0.4-0.5c-0.2,0-0.3,0-0.4,0.1
	c-0.1,0-0.2,0-0.3,0c-0.8-0.1-1.4-0.8-1.2-1.6c0,0,0,0,0,0c-0.1-1.5,1-2.7,2.5-2.8c0.1,0,0.2,0,0.4,0c0.7,0,1.3,0.1,2,0.2
	c0.7,0.1,1.4,0.1,2.1,0.1c0.9,0,1.8,0,2.6-0.2c0.6-0.1,1-0.1,1.3-0.1c1-0.1,1.9,0.5,2,1.5c0,0.1,0,0.3,0,0.4
	c0.1,1.3-0.8,2.5-2.1,2.7c-0.4,0-0.7-0.1-1.1-0.2c-0.1,0-0.3,0-0.4,0c-0.6,0-0.8,0.3-1.1,1.7L71.8,81z"/>
<path class="st1" d="M94.6,75.8c0,3.3-1.5,7.2-3.5,9.2c-1.9,1.7-4.4,2.6-6.9,2.5c-4.4,0-7.1-2.6-7.1-6.6c0-3.3,1.4-7.2,3.4-9.2
	c1.9-1.8,4.5-2.7,7.1-2.6C92,69.1,94.6,71.5,94.6,75.8z M83.6,75.8c-0.6,1.7-0.9,3.4-1,5.2c0,1.6,0.8,2.5,2.2,2.5s2.6-0.9,3.3-2.6
	c0.6-1.6,0.9-3.3,1-5c0-1.7-0.7-2.5-2.2-2.5S84.3,74,83.6,75.8L83.6,75.8z"/>
<path class="st1" d="M104.8,70.7c1.3-1.1,2.9-1.7,4.5-1.7c3,0,4.9,1.7,4.9,4.2c-0.1,1.3-0.3,2.5-0.6,3.7c-0.1,0.4,0.1-0.4-0.7,2.4
	c-0.3,0.9-0.5,1.9-0.6,2.9c-0.1,0.4,0.1,0.7,0.5,0.8c0,0,0.1,0,0.1,0c0.4,0,0.8-0.1,1.2-1.4c0.6-1.8,1.1-2.3,2.4-2.1
	c0.8,0.2,1.3,0.9,1.2,1.7c-0.1,0.9-0.4,1.8-0.8,2.6c-1.1,2.3-2.6,3.4-5.1,3.4c-2.8,0-4.8-1.7-4.8-4.2c0.1-1.7,0.5-3.5,1-5.1
	c0.3-1,0.5-2,0.6-3c0.1-0.7-0.4-1.4-1.1-1.5c-0.1,0-0.1,0-0.2,0c-1.3,0-2.7,1.4-3.6,3.8c-0.8,2.5-1.4,5.1-1.7,7.7
	c-0.2,1.6-1.1,2.3-3.2,2.3c-1.6,0-2.5-0.5-2.5-1.5c0.1-0.7,0.2-1.4,0.5-2c0.5-1.7,1.2-4.8,1.5-6.8c0.3-1.8,0.4-2.9,0.4-3.1
	s-0.1-0.5-0.3-0.5c-0.2,0-0.5,0-0.7,0.1c-0.3,0.1-0.6,0.1-0.9,0.1c-0.7,0-1.1-0.5-1.1-1.5c0-1.5,0.8-2.5,1.9-2.5
	c0.3,0,0.7,0.1,1,0.1c0.5,0.1,1,0.1,1.4,0.1c0.7,0,1.5-0.1,2.2-0.2c0.1,0,0.3,0,0.4,0c0.5-0.1,1,0.3,1.1,0.8c0,0.1,0,0.2,0,0.2
	c0,0.7-0.2,1.4-0.6,2.1C103.6,72,104.1,71.3,104.8,70.7z"/>
<path class="st1" d="M134.7,73.8c-0.1,2.3-1.6,4.3-3.7,5.1c-1.9,0.6-3.9,1-5.9,1.1c-0.9,0.1-1.1,0.2-1.1,0.9c0,1.3,1.1,2.4,2.4,2.4
	c0,0,0.1,0,0.1,0c1.5,0,2.1-0.4,3.4-2.1c0.4-0.5,1.1-0.7,1.8-0.6c1.4,0,2.5,0.8,2.5,1.7s-0.8,2-2.2,3.1c-1.7,1.4-3.8,2.1-6,2.1
	c-4.6,0-7.5-2.7-7.5-7.1c0-6.3,4.5-11.3,10.2-11.3C132.5,69.1,134.7,70.9,134.7,73.8z M125.5,74.6c-0.5,0.5-0.8,1-1.1,1.7
	c0,0.3,0.2,0.5,0.7,0.5c2.7,0,4.9-1.2,4.9-2.7c0-0.6-0.5-1.2-1.2-1.2c0,0-0.1,0-0.1,0C127.5,73,126.3,73.6,125.5,74.6L125.5,74.6z"
	/>
<path class="st1" d="M137.6,79.1c0.4-1.6,0.1-0.7,0.6-2.7c0.2-0.8,0.3-1.6,0.4-2.4c0-0.5-0.2-0.8-0.5-0.8c-0.2,0-0.4,0.1-0.6,0.1
	c-0.1,0-0.3,0-0.4,0c-0.8,0-1.4-0.6-1.4-1.3c0-0.1,0-0.1,0-0.2c0-1.3,1-2.4,2.3-2.4c0.1,0,0.2,0,0.2,0c0.5,0,0.9,0.1,1.4,0.2
	c0.3,0,0.6,0,0.8,0c0.5,0,0.9,0,2.1-0.1c0.4,0,0.8-0.1,1-0.1c0.6-0.1,1.1,0.2,1.3,0.8c0,0.1,0,0.1,0,0.2c0,0.5-0.1,1-0.3,1.5
	c-0.4,1.5-1.2,4.4-1.4,5.4c-0.3,1.2-0.5,2.3-0.6,3.5c0,1.2,0.4,1.8,1.4,1.8c1.4,0,2.5-1.4,3.4-4.6c0.3-1.2,0.5-2.3,0.9-4
	c0.2-0.8,0.3-1.1,0.4-1.5c0.1-0.6,0.2-1,0.3-1.2c0.4-1.7,1-2.2,3.1-2.2c1.6,0,2.4,0.4,2.4,1.2c0,0.2-0.1,0.5-0.1,0.7
	c-0.5,1.8-1,3.6-1.3,4.9c-0.3,1.5-0.8,3.3-1.1,5c-0.2,0.8-0.3,1.3-0.8,4.4c-0.7,4.2-1.6,6.4-3.7,7.9c-1.9,1.2-4,1.8-6.2,1.9
	c-4.1,0-6.7-1.6-6.6-4.2c-0.1-1.6,1.2-3,2.8-3.1c0,0,0.1,0,0.1,0c1.4,0,2.4,0.8,2.4,1.9c0,0.4-0.1,0.8-0.4,1.1
	c0,0.1-0.1,0.1-0.1,0.2c0,0.3,0.6,0.5,1.6,0.5c1.5,0,3-0.7,3.9-2c0.8-1.1,1-2,1.4-4.3c-1.4,1.3-3.2,2-5.1,2.1
	c-2.7,0-4.4-1.7-4.4-4.1c0.1-1.2,0.3-2.5,0.6-3.7L137.6,79.1z"/>
<path class="st1" d="M170.6,73.5c0,1.9-1.5,3.5-3.4,3.5c0,0-0.1,0-0.1,0c-1.4,0-2.4-0.8-2.4-1.9c0-0.5,0.2-1,0.6-1.4
	c0.1-0.1,0.1-0.2,0.1-0.3c0-0.4-0.4-0.5-1.1-0.5c-2.3,0-4.4,3.6-4.4,7.2c0,2,0.9,3,2.6,3c1.6,0,2.1-0.4,3.2-2.3
	c0.4-0.8,1.4-1.3,2.3-1.1c1.4,0,2.2,0.5,2.2,1.6c0,3.1-4.2,6.1-8.5,6.1c-4.7,0-7.5-2.7-7.5-7.2c0-6.3,4.5-11.2,10.4-11.2
	C168.2,69.1,170.6,70.8,170.6,73.5z"/>
<path class="st1" d="M188.8,75.8c0,3.3-1.5,7.2-3.5,9.2c-1.9,1.7-4.4,2.6-6.9,2.5c-4.4,0-7.1-2.6-7.1-6.6c0-3.3,1.4-7.2,3.4-9.2
	c1.9-1.8,4.5-2.7,7.1-2.6C186.2,69.1,188.8,71.5,188.8,75.8z M177.8,75.8c-0.6,1.7-0.9,3.4-1,5.2c0,1.6,0.8,2.5,2.2,2.5
	s2.6-0.9,3.3-2.6c0.6-1.6,0.9-3.3,1-5c0-1.7-0.7-2.5-2.2-2.5S178.5,74,177.8,75.8L177.8,75.8z"/>
<path class="st1" d="M203.2,69.1c1.9-0.2,3.7,0.9,4.4,2.7c1.4-1.7,3.5-2.7,5.7-2.7c2.9,0,4.8,1.7,4.8,4.1c0,1-0.2,1.9-0.5,2.9
	c-0.8,3.2-0.7,2.9-1,4.2c-0.2,0.7-0.3,1.3-0.4,2c0,0.5,0.2,0.9,0.6,0.9c0.6,0,0.8-0.4,1.4-1.9s1.1-1.7,1.9-1.7
	c0.8,0,1.5,0.7,1.5,1.5c-0.1,1.4-0.6,2.8-1.4,3.9c-1.3,2-2.6,2.5-5,2.5c-2.3,0.1-4.2-1.7-4.3-3.9c0,0,0,0,0-0.1
	c0-1.2,0.2-2.2,1.1-5.7c0.3-0.8,0.4-1.7,0.5-2.6c0-1.1-0.5-1.7-1.3-1.7c-2.4,0-4.2,3.8-5.1,10.8c-0.2,1.8-0.3,1.9-0.8,2.3
	c-0.7,0.4-1.6,0.7-2.4,0.7c-1.6,0-2.4-0.5-2.4-1.5c0-0.7,0.2-1.3,0.4-1.9c0.2-1,0.8-3.7,1.1-5.4c0.3-1.1,0.4-2.3,0.5-3.5
	c0-1-0.4-1.6-1.2-1.6c-2.3,0-4,3.8-5.4,12c-0.2,1.3-1.2,1.9-3,1.9c-1.5,0-2.5-0.5-2.5-1.4c0.1-0.6,0.2-1.2,0.4-1.8
	c0.1-0.4,0.2-0.9,0.7-2.7c0.5-1.8,0.9-3.6,1.2-5.5c0.1-0.8,0.2-1.7,0.2-2s-0.1-0.5-0.4-0.5c-0.2,0-0.5,0.1-0.7,0.1
	c-0.2,0-0.4,0.1-0.7,0.1c-0.6,0.1-1.2-0.4-1.3-1c0-0.1,0-0.3,0-0.4c-0.2-1.2,0.7-2.3,1.9-2.5c0.1,0,0.1,0,0.2,0c0.4,0,0.8,0,1.1,0.1
	c0.4,0,0.7,0.1,1.1,0.1c0.7,0,1,0,2.2-0.1c0.2,0,0.3,0,0.5,0c0.5-0.1,1,0.3,1.1,0.9c0,0,0,0,0,0c-0.1,0.7-0.4,1.4-0.7,2.1
	C199.2,69.9,200.7,69.1,203.2,69.1z"/>
<path class="st1" d="M234,69.1c4.1,0,6.5,2.7,6.5,7.2c0,2.7-0.9,5.4-2.4,7.7c-1.5,2.1-4,3.4-6.6,3.5c-2.5,0-3.8-0.8-4.8-2.8
	c0,0.1,0,0.2-0.1,0.3c-0.4,1.9-0.9,2.4-2.6,2.4c-1.3,0-2.3-0.6-2.3-1.4c0-0.5,0.1-1,0.3-1.5c0.2-0.9,0.5-1.9,0.8-3.7
	c0.8-3.8,0.9-4.5,1.9-10c0.2-1,0.4-2,0.5-3c0-0.2-0.1-0.4-0.3-0.4c0,0,0,0-0.1,0c-0.2,0-0.4,0-0.5,0.1c-0.3,0.1-0.5,0.1-0.8,0.1
	c-0.7,0-1.3-0.6-1.3-1.3c0-0.1,0-0.2,0-0.2c-0.1-1.2,0.8-2.3,2-2.4c0.1,0,0.2,0,0.2,0c0.5,0,0.9,0.1,1.4,0.1
	c0.4,0.1,0.9,0.1,1.3,0.1c0.5,0,1.3-0.1,2.1-0.1l0.8-0.1c0.5-0.1,1,0.2,1.1,0.7c0,0.1,0,0.1,0,0.2c0,0.4-0.1,0.9-0.2,1.3
	c-0.2,0.7-0.6,2.4-0.8,3.2c-0.1,0.6-0.2,0.9-0.3,1.5C231,69.5,232.5,69,234,69.1z M228.6,79.8c0,1.8,1.1,3.1,2.7,3.1
	c2.1,0,4-3.1,4-6.4c0-1.9-0.9-3.1-2.5-3.1C230.5,73.4,228.6,76.3,228.6,79.8z"/>
</svg>
