<?xml version="1.0" encoding="utf-8"?>
<!-- Generator: Adobe Illustrator 22.0.1, SVG Export Plug-In . SVG Version: 6.00 Build 0)  -->
<!DOCTYPE svg PUBLIC "-//W3C//DTD SVG 1.1//EN" "http://www.w3.org/Graphics/SVG/1.1/DTD/svg11.dtd">
<svg version="1.1" id="Layer_1" xmlns="http://www.w3.org/2000/svg" xmlns:xlink="http://www.w3.org/1999/xlink" x="0px" y="0px"
	 width="269.3px" height="101.7px" viewBox="0 0 269.3 101.7" style="enable-background:new 0 0 269.3 101.7;" xml:space="preserve"
	>
<style type="text/css">
	.st0{fill-rule:evenodd;clip-rule:evenodd;fill:#231F20;}
</style>
<g>
	<path class="st0" d="M51.2,0H37.8v24.9c-4.6,0-9.3,0-12.2,0C11.5,24.9,0,36.3,0,50.5c0,14.1,11.5,25.6,25.6,25.6
		c14.1,0,25.6-11.5,25.6-25.6c0-7.1,0-25.6,0-25.6L51.2,0L51.2,0z M37.7,50.5c0,6.7-5.4,12.2-12.2,12.2c-6.7,0-12.2-5.4-12.2-12.2
		c0-6.7,5.4-12.2,12.2-12.2l12.2,0L37.7,50.5L37.7,50.5z"/>
	<path class="st0" d="M161.6,50.5c0-14.1,11.4-25.6,25.6-25.6c14.1,0,25.6,11.4,25.6,25.6c0,14.1-11.4,25.6-25.6,25.6
		C173.1,76,161.6,64.6,161.6,50.5L161.6,50.5z M187.2,62.7c6.7,0,12.2-5.5,12.2-12.2c0-6.8-5.5-12.2-12.2-12.2
		c-6.7,0-12.2,5.5-12.2,12.2C174.9,57.2,180.4,62.7,187.2,62.7L187.2,62.7z"/>
	<path class="st0" d="M255.8,50.5c0-6.7-5.4-12.1-12.1-12.1c-6.7,0-12.1,5.4-12.1,12.1c0,3.3,0,24.5,0,24.5c-6.9,0-13.5,0-13.5,0
		s0-17.5,0-24.5c0-14.1,11.4-25.6,25.6-25.6c14.1,0,25.6,11.4,25.6,25.6c0,7.2,0,24.5,0,24.5s-6.6,0-13.5,0
		C255.8,75,255.8,53.9,255.8,50.5L255.8,50.5z"/>
	<path class="st0" d="M130.2,41.6c-2-1.3-1.3-3.6,1.8-4.5c4.2-1.1,11.1-0.2,17.2,2.5l6.4-8.7c-2.8-2.3-8.7-5.3-17.5-5.8
		c0,0-14.7-1.8-20.7,9.3c0,0-5.3,10.4,5.1,16.9c6.3,3.9,17.3,5.3,20.6,7.2c2.8,1.6,1.9,4.6-2.3,5.6c-7,1.6-16.3-2.4-19.5-4.8
		l-6.4,8.9c4.3,3.3,9.9,6.2,18.6,7.6c0,0,13.8,2.4,21.5-7.1c1.4-1.8,7.7-13.5-4.9-20.2C143.9,45.2,133.5,43.7,130.2,41.6L130.2,41.6
		z"/>
	<path class="st0" d="M67.3,85c0.6,0.3,6.8,4.6,12.9,4.8c14.6,0.3,15.6-14.9,15.6-18.5c-2.8,3-8.5,4.8-12.1,4.8
		C69.6,76,58.3,65,58.3,50.8c0-7,0-25,0-25s6.6,0,13.5,0c0,0,0,21.9,0,24.9c0,6.7,5.4,12.1,12.1,12.1c6.7,0,12.1-5.4,12.1-12.1
		c0-2.7,0-24.9,0-24.9c6.9,0,13.5,0,13.5,0l0,25c0,22.1,1.1,44.9-20.5,50c-16.2,3.9-27.7-6.3-28.3-6.8L67.3,85L67.3,85z"/>
</g>
</svg>
