<?xml version="1.0" encoding="UTF-8" standalone="no"?>
<svg width="1193px" height="342px" viewBox="0 0 1193 342" version="1.1" xmlns="http://www.w3.org/2000/svg" xmlns:xlink="http://www.w3.org/1999/xlink" xmlns:sketch="http://www.bohemiancoding.com/sketch/ns">
    <!-- Generator: Sketch 3.4.2 (15855) - http://www.bohemiancoding.com/sketch -->
    <title>Elabor8-Logo_no-bleed</title>
    <desc>Created with Sketch.</desc>
    <defs>
        <path id="path-1" d="M0,0.618 L1192.59,0.618 L1192.59,341.94 L0,341.94"></path>
    </defs>
    <g id="Page-1" stroke="none" stroke-width="1" fill="none" fill-rule="evenodd" sketch:type="MSPage">
        <g id="Elabor8-Logo_no-bleed" sketch:type="MSLayerGroup">
            <path d="M291.775,207.399 L157.505,73.128 L210.12,20.513 L344.391,154.783 L291.775,207.399" id="Fill-1" fill="#EFA350" sketch:type="MSShapeGroup"></path>
            <path d="M376.669,247.253 L435.117,247.253 C434.344,236.945 431.68,229.304 427.097,224.338 C422.119,218.996 415.06,216.316 405.893,216.316 C397.488,216.316 390.606,218.996 385.264,224.338 C379.908,229.691 377.042,237.332 376.669,247.253 M445.43,291.953 L474.078,291.953 C469.867,307.992 461.848,320.228 450.014,328.62 C438.169,337.412 423.271,341.799 405.316,341.799 C383.541,341.799 366.544,334.732 354.327,320.598 C342.092,306.851 335.988,287.178 335.988,261.584 C335.988,237.136 341.906,218.035 353.751,204.283 C365.969,190.154 382.974,183.09 404.746,183.09 C427.666,183.09 445.43,189.957 458.033,203.71 C470.258,217.849 476.366,237.512 476.366,262.73 L476.366,269.033 C476.366,270.949 476.17,272.28 475.796,273.044 L376.669,273.044 C377.042,284.887 379.908,293.672 385.264,299.397 C390.222,305.515 397.671,308.571 407.611,308.571 C414.1,308.571 419.985,307.325 424.515,304.556 C426.059,303.613 426.449,303.323 427.377,302.554 C430.127,300.277 429.48,300.715 430.468,299.812 C431.553,298.82 432.337,296.734 434.826,294.819 C437.308,292.909 440.847,291.953 445.43,291.953" id="Fill-2" fill="#313330" sketch:type="MSShapeGroup"></path>
            <path d="M482.402,144.807 L503.03,144.807 C508.38,144.807 512.959,146.613 516.787,150.242 C520.6,153.879 522.515,158.37 522.515,163.716 L522.515,341.916 L482.402,341.916 L482.402,144.807" id="Fill-3" fill="#313330" sketch:type="MSShapeGroup"></path>
            <path d="M619.615,262.157 C614.261,264.836 606.813,267.314 597.269,269.606 L584.09,272.472 C577.214,274.381 572.25,276.858 569.188,279.92 C566.52,284.122 565.181,288.33 565.181,292.521 C565.181,298.25 566.9,302.841 570.341,306.273 C573.775,309.34 578.74,310.858 585.233,310.858 C595.926,310.858 604.33,307.812 610.447,301.695 C616.554,295.594 619.615,287.178 619.615,276.482 L619.615,262.157 L619.615,262.157 Z M628.783,332.632 C620.763,336.846 612.256,339.412 603.285,340.367 C594.306,341.322 586.384,341.799 579.503,341.799 C565.756,341.799 553.721,338.081 543.406,330.626 C533.093,323.182 527.938,310.858 527.938,293.679 C527.938,277.623 532.608,266.168 541.974,259.291 C551.333,252.416 563.27,247.832 577.79,245.54 C579.699,245.54 581.987,245.253 584.664,244.681 C587.333,244.113 590.392,243.63 593.833,243.244 C610.634,240.956 619.044,236.001 619.044,228.354 C619.044,222.624 616.077,218.895 610.161,217.175 C604.235,215.456 598.79,214.603 593.833,214.603 C588.477,214.603 583.708,215.372 579.503,216.884 C575.298,218.417 572.25,221.287 570.341,225.491 L531.948,225.491 C533.465,213.648 538.821,203.906 547.991,196.261 C558.306,187.483 573.008,183.087 592.114,183.087 C613.504,183.087 629.543,186.725 640.245,193.972 C651.317,201.62 656.861,212.305 656.861,226.057 L656.861,278.201 C656.861,293.487 654.087,305.425 648.552,314.009 C643.008,322.603 636.418,328.823 628.783,332.632 L628.783,332.632 Z" id="Fill-4" fill="#313330" sketch:type="MSShapeGroup"></path>
            <g id="Group-8" fill="#313330" sketch:type="MSShapeGroup">
                <path d="M766.874,261.584 C766.874,247.831 764.01,237.136 758.279,229.49 C752.55,221.479 744.717,217.462 734.786,217.462 C724.089,217.462 715.877,221.283 710.144,228.922 C704.421,236.945 701.551,247.831 701.551,261.584 C701.551,277.623 704.225,289.274 709.573,296.532 C715.304,304.56 723.325,308.571 733.639,308.571 C744.329,308.571 752.55,304.56 758.279,296.532 C764.01,288.509 766.874,276.858 766.874,261.584 M701.551,160.739 L701.551,206.57 C705.754,199.323 711.865,193.393 719.886,188.814 C726.764,185 735.161,183.084 745.099,183.084 C763.048,183.084 777.76,190.528 789.216,205.429 C800.683,220.327 806.406,239.625 806.406,263.303 C806.406,286.986 800.683,306.273 789.216,321.176 C783.49,328.435 775.755,333.694 766.015,336.934 C756.273,340.171 746.616,341.799 737.078,341.799 C718.741,341.799 701.742,337.03 686.079,327.474 C670.416,317.935 662.592,299.599 662.592,272.471 L662.592,141.259 L682.068,141.259 C687.417,141.259 692.001,143.167 695.82,146.988 C699.64,150.808 701.551,155.397 701.551,160.739" id="Fill-5"></path>
                <path d="M861.68,224.338 C853.651,233.124 850.024,246.213 850.793,263.589 C851.551,280.976 854.805,293.1 860.534,299.975 C862.827,303.032 866.832,305.61 872.566,307.711 C878.298,309.812 884.117,309.997 890.043,308.279 C895.965,306.565 901.213,302.262 905.802,295.387 C910.386,288.509 912.862,277.432 913.25,262.157 C913.25,248.405 911.049,238.09 906.656,231.215 C902.269,224.338 897.207,219.95 891.477,218.035 C885.747,216.125 880.017,216.03 874.287,217.743 C868.557,219.468 864.348,221.67 861.68,224.338 M834.175,325.187 C826.154,318.312 820.423,309.054 816.978,297.391 C813.553,285.746 811.828,273.612 811.828,261.005 C811.828,250.697 813.261,240.376 816.126,230.068 C818.99,219.749 823.48,211.159 829.592,204.283 C839.523,192.819 852.314,186.042 867.983,183.944 C883.644,181.849 897.778,183.087 910.386,187.666 C924.896,193.395 935.593,203.334 942.468,217.462 C948.964,230.068 952.209,244.775 952.209,261.584 C952.209,273.814 950.872,284.313 948.204,293.1 C945.524,301.88 942.086,309.34 937.891,315.446 C928.718,328.054 917.065,335.878 902.938,338.94 C890.324,342.373 877.618,342.658 864.831,339.795 C852.029,336.934 841.815,332.064 834.175,325.187" id="Fill-7"></path>
            </g>
            <path d="M958.519,341.916 L958.519,267.993 C958.519,253.094 960.71,240.596 965.109,230.472 C969.49,220.354 975.513,212.231 983.157,206.114 C990.411,200.381 998.916,196.187 1008.66,193.507 C1018.4,190.842 1028.42,189.496 1038.74,189.496 L1044.47,189.496 L1044.47,230.18 L1031.28,230.18 C1020.21,230.18 1011.99,232.854 1006.65,238.207 C1001.29,243.556 998.623,251.954 998.623,263.42 L998.623,341.916 L958.519,341.916" id="Fill-9" fill="#313330" sketch:type="MSShapeGroup"></path>
            <g id="Group-15">
                <mask id="mask-2" sketch:name="Clip 11" fill="white">
                    <use xlink:href="#path-1"></use>
                </mask>
                <g id="Clip-11"></g>
                <path d="M1119.25,170.302 C1110.08,170.302 1103.01,172.695 1098.05,177.459 C1093.08,182.24 1090.61,187.878 1090.61,194.366 C1090.61,201.239 1092.79,206.88 1097.19,211.267 C1101.58,215.666 1108.94,217.856 1119.25,217.856 C1129.19,217.856 1136.44,215.666 1141.02,211.267 C1145.61,206.88 1147.9,201.239 1147.9,194.366 C1147.9,187.878 1145.41,182.24 1140.46,177.459 C1135.48,172.695 1128.42,170.302 1119.25,170.302 M1123.94,309.424 C1130.04,309.048 1137.39,306.095 1142.75,301.516 C1148.47,295.781 1151.34,288.331 1151.34,279.169 C1151.34,273.062 1149.82,267.703 1146.75,263.124 C1141.02,253.575 1132.05,248.799 1119.82,248.799 L1119.25,248.799 C1106.26,248.799 1097.09,253.575 1091.75,263.124 C1089.08,266.945 1087.74,272.287 1087.74,279.169 C1087.74,288.331 1090.61,295.781 1096.33,301.516 C1100.53,306.095 1107.38,308.942 1114.64,309.318 C1114.64,309.318 1116.76,309.538 1118.68,309.538 L1120.39,309.538 C1122.3,309.538 1125.77,309.239 1125.77,309.239 M1120.39,341.621 L1118.68,341.621 C1095.76,341.621 1078,336.465 1065.39,326.156 C1053.16,315.836 1047.05,300.561 1047.05,280.309 C1047.05,269.624 1048.97,260.648 1052.78,253.383 C1056.98,245.743 1064.48,239.224 1074.79,233.483 L1076.41,232.703 C1076.98,232.346 1077.1,232.849 1076.24,232.574 C1075.66,232.389 1074.32,231.794 1073.99,231.609 C1066.73,227.572 1062.14,223.205 1057.94,216.705 C1053.73,209.835 1051.64,201.441 1051.64,191.502 C1051.64,181.572 1054.32,172.275 1060.23,163.991 C1062.34,161.044 1065.5,157.098 1066.83,155.742 C1067.2,155.36 1069.07,153.872 1069.64,153.474 C1070.56,152.833 1069.1,153.95 1069.4,153.683 C1073.28,150.244 1081.33,145.953 1089.18,143.093 C1097,140.217 1106.26,138.784 1116.96,138.784 L1121.55,138.784 C1132.24,138.784 1141.49,140.217 1149.34,143.093 C1157.16,145.953 1163.79,149.427 1169.1,153.683 C1170.68,154.952 1170.57,154.864 1171.97,155.973 C1173.88,157.491 1176.17,160.185 1178.84,163.991 C1184.57,172.401 1187.34,181.572 1187.15,191.502 C1186.96,201.441 1184.76,209.835 1180.56,216.705 C1176.74,223.205 1171.33,228.049 1164.52,231.609 C1163.88,231.944 1163.72,232.178 1162.84,232.572 L1164.52,233.323 C1174.44,239.064 1181.71,245.743 1186.29,253.383 C1190.49,261.405 1192.59,270.377 1192.59,280.309 C1192.59,300.174 1186.09,315.46 1173.11,326.156 C1160.51,336.465 1142.93,341.621 1120.39,341.621" id="Fill-10" fill="#313330" sketch:type="MSShapeGroup" mask="url(#mask-2)"></path>
                <path d="M47.211,317.894 C-15.732,254.942 -15.732,152.924 47.211,89.966 C85.081,52.107 137.067,37.186 186.194,44.878 C186.096,29.898 188.599,14.957 193.453,0.618 L0,0.618 L0,342 L78.328,342 C67.259,335.343 56.745,327.439 47.211,317.894" id="Fill-12" fill="#313330" sketch:type="MSShapeGroup" mask="url(#mask-2)"></path>
                <path d="M276.036,89.082 C300.921,113.968 341.257,113.944 366.145,89.082 C390.511,64.695 390.868,25.606 367.49,0.62 L274.685,0.62 C251.318,25.579 251.658,64.705 276.036,89.082" id="Fill-13" fill="#313330" sketch:type="MSShapeGroup" mask="url(#mask-2)"></path>
                <path d="M320.23,178.928 C285.985,178.709 251.815,165.572 225.676,139.444 C199.548,113.302 186.408,79.12 186.191,44.877 C137.064,37.184 85.083,52.113 47.207,89.971 C-15.735,152.921 -15.735,254.942 47.207,317.894 C56.739,327.439 67.255,335.343 78.322,342 L244.038,342 C255.097,335.343 265.609,327.439 275.143,317.894 C313,280.036 327.905,228.055 320.23,178.928" id="Fill-14" fill="#EB8B2D" sketch:type="MSShapeGroup" mask="url(#mask-2)"></path>
            </g>
            <path d="M186.191,44.873 C218.738,49.969 250.057,64.885 275.142,89.968 C300.228,115.056 315.146,146.365 320.23,178.927 C355.052,179.125 389.93,166.005 416.501,139.451 C454.053,101.887 464.708,47.739 448.728,0.62 L367.496,0.62 C390.874,25.608 390.512,64.695 366.142,89.082 C341.258,113.944 300.919,113.966 276.036,89.082 C251.654,64.701 251.315,25.579 274.682,0.62 L193.452,0.62 C188.59,14.952 186.093,29.893 186.191,44.873" id="Fill-16" fill="#EB8B2D" sketch:type="MSShapeGroup"></path>
            <path d="M135.836,306.593 C117.772,303.897 100.827,294.734 85.068,278.965 C65.948,259.854 57.26,238.743 58.912,215.592 C60.236,192.814 72.156,170.161 94.602,147.718 C116.059,126.255 138.032,114.688 160.476,113.02 C183.645,111.357 204.74,120.072 223.832,139.17 C243.96,159.283 253.522,180.91 252.511,204.041 C250.811,227.136 238.95,249.764 216.816,271.914 C215.487,273.241 214.319,274.42 213.282,275.454 C212.306,276.426 211.602,277.128 211.268,277.459 C209.565,279.162 208.232,280.078 207.265,280.454 L120.264,193.452 C110.191,204.204 105.02,214.412 104.696,224.175 C103.702,233.872 107.512,243.074 116.244,251.803 C121.921,257.489 129.657,262.567 136.068,263.953 C137.888,264.347 141.143,264.367 142.538,264.306 C144.979,264.199 141.107,264.383 142.952,264.284 C145.247,264.161 148.489,263.386 152.166,263.623 C156.08,263.874 159.977,266.382 164.012,270.42 L189.157,295.549 C171.387,305.919 153.577,309.632 135.836,306.593" id="Fill-17" fill="#313330" sketch:type="MSShapeGroup"></path>
        </g>
    </g>
</svg>