<?xml version="1.0" encoding="UTF-8" standalone="no"?>
<svg width="264px" height="41px" viewBox="0 0 264 41" version="1.1" xmlns="http://www.w3.org/2000/svg" xmlns:xlink="http://www.w3.org/1999/xlink" xmlns:sketch="http://www.bohemiancoding.com/sketch/ns">
    <!-- Generator: Sketch 3.4.2 (15855) - http://www.bohemiancoding.com/sketch -->
    <title>MASTER TW Logo black (1)</title>
    <desc>Created with Sketch.</desc>
    <defs>
        <path id="path-1" d="M0,0.163 L263.899,0.163 L263.899,40.94 L0,40.94"></path>
    </defs>
    <g id="Page-1" stroke="none" stroke-width="1" fill="none" fill-rule="evenodd" sketch:type="MSPage">
        <g id="MASTER-TW-Logo-black-(1)" sketch:type="MSLayerGroup">
            <path d="M260.613,12.835 C261.065,12.846 261.379,12.74 261.379,12.247 C261.379,11.701 260.801,11.743 260.414,11.743 L259.51,11.743 L259.51,12.835 L260.613,12.835 L260.613,12.835 Z M262.03,15.135 L261.065,15.135 L260.172,13.443 L259.51,13.443 L259.51,15.135 L258.67,15.135 L258.67,11.123 L260.602,11.123 C261.653,11.123 262.157,11.407 262.157,12.351 C262.157,13.087 261.768,13.392 261.065,13.443 L262.03,15.135 L262.03,15.135 Z M262.922,13.107 C262.922,11.459 261.778,10.283 260.193,10.283 C258.576,10.283 257.463,11.459 257.463,13.107 C257.463,14.777 258.576,15.942 260.193,15.942 C261.778,15.942 262.922,14.777 262.922,13.107 L262.922,13.107 Z M256.487,13.107 C256.487,11.07 258.135,9.412 260.193,9.412 C262.23,9.412 263.899,11.07 263.899,13.107 C263.899,15.166 262.23,16.825 260.193,16.825 C258.135,16.825 256.487,15.166 256.487,13.107 L256.487,13.107 Z" id="Fill-1" fill="#1A1918" sketch:type="MSShapeGroup"></path>
            <path d="M23.698,5.749 L15.15,5.749 L15.15,33.086 L8.548,33.086 L8.548,5.749 L0,5.749 L0,0.163 L23.698,0.163 L23.698,5.749" id="Fill-2" fill="#1A1918" sketch:type="MSShapeGroup"></path>
            <path d="M32.458,11.843 C34.447,10.192 36.901,8.88 39.525,8.88 C42.107,8.88 45.746,10.446 45.746,16.286 L45.746,33.086 L39.483,33.086 L39.483,18.825 C39.483,16.921 39.61,13.916 36.901,13.916 C35.082,13.916 33.643,15.228 32.458,16.498 L32.458,33.086 L26.195,33.086 L26.195,0.163 L32.458,0.163 L32.458,11.843" id="Fill-3" fill="#1A1918" sketch:type="MSShapeGroup"></path>
            <path d="M62.715,21.237 C62.715,18.274 62.123,13.493 58.738,13.493 C55.352,13.493 54.76,18.274 54.76,21.237 C54.76,24.199 55.352,28.981 58.738,28.981 C62.123,28.981 62.715,24.199 62.715,21.237 L62.715,21.237 Z M48.327,21.237 C48.327,14.932 51.797,8.88 58.738,8.88 C65.678,8.88 69.148,14.932 69.148,21.237 C69.148,27.5 65.636,33.594 58.738,33.594 C51.84,33.594 48.327,27.5 48.327,21.237 L48.327,21.237 Z" id="Fill-4" fill="#1A1918" sketch:type="MSShapeGroup"></path>
            <g id="Group-8">
                <mask id="mask-2" sketch:name="Clip 6" fill="white">
                    <use xlink:href="#path-1"></use>
                </mask>
                <g id="Clip-6"></g>
                <path d="M85.186,30.632 C83.197,32.282 80.743,33.594 78.119,33.594 C75.538,33.594 71.898,32.028 71.898,26.188 L71.898,9.388 L78.161,9.388 L78.161,23.649 C78.161,25.554 78.034,28.559 80.743,28.559 C82.563,28.559 84.001,27.246 85.186,25.976 L85.186,9.388 L91.449,9.388 L91.449,33.086 L85.186,33.086 L85.186,30.632" id="Fill-5" fill="#1A1918" sketch:type="MSShapeGroup" mask="url(#mask-2)"></path>
                <path d="M104.018,21.322 C106.642,21.322 107.404,19.164 107.404,16.921 C107.404,14.763 106.388,12.942 104.018,12.942 C101.395,12.942 100.59,15.143 100.59,17.387 C100.59,19.545 101.606,21.322 104.018,21.322 L104.018,21.322 Z M99.701,33.129 C99.109,33.51 98.728,33.848 98.728,34.61 C98.728,36.81 103.172,36.937 104.653,36.937 C105.711,36.937 111.212,36.81 111.212,34.906 C111.212,33.679 110.366,33.806 106.642,33.594 L99.701,33.129 L99.701,33.129 Z M101.69,25.3 C100.971,25.3 99.913,25.681 99.913,26.781 C99.913,29.87 116.333,24.496 116.333,33.764 C116.333,37.276 113.963,41 104.568,41 C96.4,41 93.607,38.122 93.607,35.033 C93.607,33.213 94.75,32.282 96.189,31.435 C95.173,30.674 94.327,29.785 94.327,28.432 C94.327,26.103 95.596,24.877 97.416,23.691 C95.681,21.999 94.454,19.883 94.454,17.175 C94.454,11.927 98.897,8.88 104.018,8.88 C106.092,8.88 108.081,9.473 109.858,10.53 C111.127,9.346 112.27,8.584 114.132,8.584 C114.725,8.584 115.359,8.626 115.952,8.753 L115.952,13.154 C115.317,12.9 114.64,12.646 113.963,12.646 C113.286,12.646 112.863,12.858 112.27,13.154 C112.947,14.424 113.498,15.82 113.54,17.175 C113.54,22.422 109.139,25.469 104.018,25.469 L101.69,25.3 L101.69,25.3 Z" id="Fill-7" fill="#1A1918" sketch:type="MSShapeGroup" mask="url(#mask-2)"></path>
            </g>
            <path d="M124.923,11.843 C126.913,10.192 129.367,8.88 131.991,8.88 C134.572,8.88 138.211,10.446 138.211,16.286 L138.211,33.086 L131.948,33.086 L131.948,18.825 C131.948,16.921 132.075,13.916 129.367,13.916 C127.547,13.916 126.108,15.228 124.923,16.498 L124.923,33.086 L118.66,33.086 L118.66,0.163 L124.923,0.163 L124.923,11.843" id="Fill-9" fill="#1A1918" sketch:type="MSShapeGroup"></path>
            <path d="M149.595,9.388 L154.461,9.388 L154.461,14.594 L149.595,14.594 L149.595,26.654 C149.595,27.797 149.933,28.981 151.964,28.981 C153.022,28.981 153.7,28.559 154.461,28.093 L154.461,32.875 C153.149,33.256 151.795,33.594 150.441,33.594 C146.548,33.594 143.332,31.393 143.332,26.23 L143.332,14.594 L140.412,14.594 L140.412,9.388 L143.332,9.388 L143.332,3.464 L149.595,3.464 L149.595,9.388" id="Fill-10" fill="#1A1918" sketch:type="MSShapeGroup"></path>
            <path d="M180.529,33.086 L177.144,33.086 L171.558,6.172 L171.473,6.172 L165.59,33.086 L162.205,33.086 L155.307,0.163 L158.608,0.163 L164.025,26.738 L164.109,26.738 L170.034,0.163 L173.292,0.163 L178.921,26.738 L179.005,26.738 L184.803,0.163 L188.062,0.163 L180.529,33.086" id="Fill-11" fill="#1A1918" sketch:type="MSShapeGroup"></path>
            <path d="M202.026,21.406 C202.026,17.429 201.053,11.843 195.975,11.843 C190.896,11.843 189.923,17.429 189.923,21.406 C189.923,25.385 190.896,30.971 195.975,30.971 C201.053,30.971 202.026,25.385 202.026,21.406 L202.026,21.406 Z M186.622,21.406 C186.622,12.646 190.77,9.05 195.975,9.05 C201.18,9.05 205.327,12.646 205.327,21.406 C205.327,30.166 201.18,33.764 195.975,33.764 C190.77,33.764 186.622,30.166 186.622,21.406 L186.622,21.406 Z" id="Fill-12" fill="#1A1918" sketch:type="MSShapeGroup"></path>
            <path d="M211.209,14.763 L211.294,14.763 C212.605,11.97 214.298,9.388 217.768,9.388 L219.038,9.388 L219.038,12.392 C214.721,11.8 212.479,16.455 211.209,19.841 L211.209,33.086 L207.908,33.086 L207.908,9.726 L211.209,9.726 L211.209,14.763" id="Fill-13" fill="#1A1918" sketch:type="MSShapeGroup"></path>
            <path d="M225.005,20.56 L233.68,9.726 L237.362,9.726 L230.929,17.725 L238.334,33.086 L234.78,33.086 L228.813,20.391 L225.005,25.088 L225.005,33.086 L221.704,33.086 L221.704,0.163 L225.005,0.163 L225.005,20.56" id="Fill-14" fill="#1A1918" sketch:type="MSShapeGroup"></path>
            <path d="M252.638,14.932 C251.327,12.985 249.76,11.843 247.306,11.843 C245.148,11.843 243.117,12.942 243.117,15.312 C243.117,21.025 255.431,18.529 255.431,26.4 C255.431,30.971 252.172,33.764 247.772,33.764 C244.005,33.764 240.958,32.113 239.054,28.854 L241.678,27.204 C242.948,29.616 244.979,30.971 247.772,30.971 C250.184,30.971 252.342,29.659 252.342,26.992 C252.342,21.11 240.028,23.903 240.028,15.524 C240.028,11.504 243.329,9.05 247.179,9.05 C250.438,9.05 253.146,10.403 254.965,13.112 L252.638,14.932" id="Fill-15" fill="#1A1918" sketch:type="MSShapeGroup"></path>
        </g>
    </g>
</svg>