<?xml version="1.0" encoding="UTF-8" standalone="no"?>
<svg width="601px" height="172px" viewBox="0 0 601 172" version="1.1" xmlns="http://www.w3.org/2000/svg" xmlns:xlink="http://www.w3.org/1999/xlink" xmlns:sketch="http://www.bohemiancoding.com/sketch/ns">
    <!-- Generator: Sketch 3.4.2 (15855) - http://www.bohemiancoding.com/sketch -->
    <title>Layer 1</title>
    <desc>Created with Sketch.</desc>
    <defs></defs>
    <g id="Page-1" stroke="none" stroke-width="1" fill="none" fill-rule="evenodd" sketch:type="MSPage">
        <g id="Layer-1" sketch:type="MSLayerGroup" fill="#000000">
            <path d="M217.432,53.244 C213.38,50.562 207.384,47.359 205.839,46.769 C199.321,44.283 194.582,45.062 190.072,48.185 C187.48,49.796 184.903,52.552 181.83,56.129 C181.83,56.134 181.825,56.134 181.825,56.139 L111.726,133.402 L118.934,106.31 L131.782,70.105 C131.782,70.1 131.793,70.095 131.787,70.094 L131.685,70.078 L131.746,69.906 C131.746,69.901 131.751,69.901 131.751,69.895 C135.528,58.077 132.716,55.789 121.83,48.379 L120.688,47.601 C113.459,42.7 109.942,45.378 107.444,52.721 L101.593,65.042 L40.346,118.266 L58.114,67.831 C59.895,62.267 59.561,59.36 54.307,55.702 L54.305,55.702 L42.057,47.374 C37.524,44.298 33.703,44.831 28.618,47.662 L13.621,56.246 C8.986,58.837 7.873,61.479 11.681,64.074 C11.684,64.076 11.684,64.079 11.689,64.079 L26.314,74.022 L2.033,144.85 C0.243,150.453 0.212,154.438 4.193,157.149 L18.027,166.557 C18.032,166.562 18.035,166.562 18.035,166.562 C23.659,170.387 25.457,168.703 28.588,165.774 C28.59,165.769 28.59,165.769 28.593,165.769 L86.753,111.776 L77.733,135.205 L77.725,135.229 C72.225,152.362 73.158,154.162 84.863,162.156 C86.368,163.185 92.937,167.905 94.501,168.338 C100.187,169.913 103.757,166.881 108.66,160.897 C108.662,160.892 108.665,160.887 108.67,160.887 L190.907,67.773 L190.378,140.489 L178.008,135.146 C173.439,133.129 168.049,130.941 167.865,138.292 L167.865,150.705 C167.865,156.214 170.844,162.72 176.963,165.251 L185.246,168.701 C191.704,171.487 194.719,172.262 201.251,168.691 C201.659,168.471 215.112,160.862 215.379,160.707 C221.633,157.172 223.1,154.096 223.485,148.948 L223.655,142.607 L223.655,142.602 L224.372,69.793 C224.389,60.128 221.908,56.206 217.432,53.244" id="Shape" sketch:type="MSShapeGroup"></path>
            <path d="M593.297,52.372 C589.868,48.35 587.226,46.947 581.456,46.947 C574.939,46.947 570.487,50.028 570.487,50.028 L559.2,56.782 C554.565,59.373 553.452,62.015 557.26,64.61 C557.263,64.612 557.263,64.615 557.267,64.615 L571.893,74.557 C573.269,75.666 572.613,91.22 567.644,104.621 C562.488,118.526 558.895,124.932 550.771,134.463 C543.568,142.912 532.022,151.024 523.898,146.649 C515.202,141.966 515.536,128.229 525.773,104.465 C530.147,94.31 537.438,82.644 541.813,75.145 C546.188,67.646 543.912,61.098 536.778,55.662 L526.725,48.116 C519.764,43.57 510.376,44.032 502.488,51.867 L436.938,120.741 L447.998,84.923 L450.966,77.39 C450.966,77.385 450.971,77.385 450.971,77.379 C454.748,65.562 450.686,63.274 439.8,55.864 L438.658,55.085 C431.43,50.185 427.912,52.863 425.414,60.206 L425.274,60.502 L363.727,118.014 L379.729,69.221 C379.734,69.216 379.734,69.209 379.734,69.2 C382.805,59.623 374.86,54.421 365.752,48.224 C356.644,42.03 352.106,45.992 344.581,54.746 C344.581,54.751 344.576,54.751 344.576,54.756 L274.478,133.269 L301.727,48.426 C304.481,39.817 302.708,36.758 297.779,33.188 L287.193,27.478 C287.193,27.478 461.662,27.479 461.665,27.478 C465.637,27.458 466.114,25.101 464.05,21.016 L457.468,7.658 C455.198,3.185 452.725,0.897 448.005,0.912 L115.515,0.912 C115.511,0.911 115.51,0.912 115.507,0.912 C111.535,0.932 111.058,3.356 113.122,7.44 L119.704,20.799 C121.974,25.271 124.447,27.492 129.167,27.478 L274.942,27.478 L240.484,135.072 C240.481,135.082 240.479,135.087 240.476,135.096 C234.976,152.229 235.91,154.029 247.614,162.023 C259.324,170.021 262.32,171.859 271.412,160.764 C271.415,160.759 271.417,160.754 271.422,160.754 L350.787,68.995 L325.513,144.194 C323.046,152.328 323.72,155.29 327.514,157.866 C331.724,160.737 334.401,162.555 339.424,165.97 C344.417,169.366 346.634,170.08 353.041,164.043 L415.783,104.346 L399.659,144.14 C396.413,154.306 397.786,155.616 406.959,161.853 C406.974,161.863 406.988,161.872 407.003,161.887 L412.731,165.777 C418.229,169.307 421.878,170.197 427.242,164.084 C427.247,164.079 508.494,76.63 508.494,76.63 C503.748,85.769 498.125,94.82 494.868,104.607 C487.308,127.324 484.802,162.821 515.336,169.089 C519.472,169.938 524.211,170.581 527.678,170.486 C571.264,168.953 594.859,125.022 599.842,90.144 C603.008,67.984 598.329,58.274 593.297,52.372" id="Shape" sketch:type="MSShapeGroup"></path>
        </g>
    </g>
</svg>