<?xml version="1.0" encoding="UTF-8" standalone="no"?>
<svg width="738px" height="149px" viewBox="0 0 738 149" version="1.1" xmlns="http://www.w3.org/2000/svg" xmlns:xlink="http://www.w3.org/1999/xlink" xmlns:sketch="http://www.bohemiancoding.com/sketch/ns">
    <!-- Generator: Sketch 3.3.3 (12072) - http://www.bohemiancoding.com/sketch -->
    <title>cucumber-ltd copy</title>
    <desc>Created with Sketch.</desc>
    <defs></defs>
    <g id="Logos" stroke="none" stroke-width="1" fill="none" fill-rule="evenodd" sketch:type="MSPage">
        <g id="cucumber-ltd-copy" sketch:type="MSLayerGroup">
            <path d="M524.041905,86.421875 C517.00381,86.421875 512.546349,89.9375 509.261905,95.328125 C509.261905,93.921875 509.965714,92.28125 509.965714,91.109375 L509.965714,88.765625 L498.235556,88.765625 L498.235556,147.359375 L509.965714,147.359375 L509.965714,113.609375 C509.965714,104 515.126984,98.140625 524.041905,98.140625 L526.387937,98.140625 L526.387937,86.421875 L524.041905,86.421875 L524.041905,86.421875 Z" id="path2992" fill="#FFFFFF" sketch:type="MSShapeGroup"></path>
            <path d="M47.0936508,107.984375 C43.8092063,102.828125 39.1171429,99.3125 32.3136508,99.3125 C21.5219048,99.3125 13.78,107.515625 13.78,117.828125 C13.78,128.140625 21.5219048,136.34375 32.3136508,136.34375 C39.1171429,136.34375 43.8092063,133.0625 47.0936508,127.90625 L57.8853968,134.234375 C52.724127,142.203125 43.1053968,148.0625 32.3136508,148.0625 C12.372381,148.0625 0.876825397,133.0625 0.876825397,118.0625 C0.876825397,103.0625 12.6069841,88.0625 32.3136508,88.0625 C44.5130159,88.0625 52.2549206,93.921875 57.8853968,101.890625 L47.0936508,107.984375 L47.0936508,107.984375 Z" id="path2994" fill="#FFFFFF" sketch:type="MSShapeGroup"></path>
            <path d="M68.2079365,89.46875 L80.4073016,89.46875 L80.4073016,121.34375 C80.4073016,129.78125 86.5069841,135.640625 94.2488889,135.640625 C101.990794,135.640625 108.090476,129.546875 108.090476,121.34375 L108.090476,89.46875 L120.289841,89.46875 L120.289841,122.28125 C120.289841,138.21875 107.855873,147.828125 94.2488889,147.828125 C80.6419048,147.828125 68.2079365,138.21875 68.2079365,122.28125 L68.2079365,89.46875 L68.2079365,89.46875 Z" id="path2996" fill="#FFFFFF" sketch:type="MSShapeGroup"></path>
            <path d="M177.533016,107.984375 C174.248571,102.828125 169.556508,99.3125 162.753016,99.3125 C151.96127,99.3125 144.219365,107.515625 144.219365,117.828125 C144.219365,128.140625 151.96127,136.34375 162.753016,136.34375 C169.556508,136.34375 174.248571,133.0625 177.533016,127.90625 L188.324762,134.234375 C183.163492,142.203125 173.544762,148.0625 162.753016,148.0625 C142.811746,148.0625 131.31619,133.0625 131.31619,118.0625 C131.31619,103.0625 142.811746,88.0625 162.753016,88.0625 C174.952381,88.0625 182.694286,93.921875 188.324762,101.890625 L177.533016,107.984375 L177.533016,107.984375 Z" id="path2998" fill="#FFFFFF" sketch:type="MSShapeGroup"></path>
            <path d="M198.647302,89.46875 L210.846667,89.46875 L210.846667,121.34375 C210.846667,129.78125 216.946349,135.640625 224.688254,135.640625 C232.195556,135.640625 238.529841,129.546875 238.529841,121.34375 L238.529841,89.46875 L250.729206,89.46875 L250.729206,122.28125 C250.729206,138.21875 238.295238,147.828125 224.688254,147.828125 C211.08127,147.828125 198.647302,138.21875 198.647302,122.28125 L198.647302,89.46875 L198.647302,89.46875 Z" id="path3000" fill="#FFFFFF" sketch:type="MSShapeGroup"></path>
            <path d="M265.978413,110.796875 C265.978413,96.265625 275.597143,88.0625 286.858095,88.0625 C295.538413,88.0625 301.638095,92.28125 303.984127,98.140625 L304.21873,98.140625 C306.564762,92.046875 312.664444,88.0625 321.344762,88.0625 C332.605714,88.0625 342.224444,96.5 342.224444,110.796875 L342.224444,146.421875 L330.025079,146.421875 L330.025079,110.796875 C330.025079,104 325.802222,100.015625 320.640952,100.015625 C314.775873,100.015625 310.553016,103.53125 310.553016,112.4375 L310.553016,146.1875 L298.353651,146.1875 L298.353651,112.4375 C298.353651,103.53125 294.130794,100.015625 288.265714,100.015625 C283.104444,100.015625 278.881587,104 278.881587,110.796875 L278.881587,146.1875 L266.682222,146.1875 L266.682222,110.796875 L265.978413,110.796875 Z" id="path3002" fill="#FFFFFF" sketch:type="MSShapeGroup"></path>
            <path d="M357.239048,72.59375 L369.438413,72.59375 L369.438413,96.5 L369.673016,96.5 C372.488254,91.8125 380.230159,88.0625 388.206667,88.0625 C402.986667,88.0625 417.766667,99.078125 417.766667,118.0625 C417.766667,137.046875 402.986667,148.0625 388.206667,148.0625 C380.230159,148.0625 372.488254,144.3125 369.673016,139.625 L369.438413,139.625 L369.438413,146.65625 L357.239048,146.65625 L357.239048,72.59375 L357.239048,72.59375 Z M387.033651,99.546875 C376.945714,99.546875 369.438413,107.515625 369.438413,118.0625 C369.438413,128.609375 376.945714,136.578125 387.033651,136.578125 C397.35619,136.578125 404.863492,128.609375 404.863492,118.0625 C404.863492,107.28125 397.35619,99.546875 387.033651,99.546875 L387.033651,99.546875 Z" id="path3004" fill="#FFFFFF" sketch:type="MSShapeGroup"></path>
            <path d="M483.455556,134 C476.652063,142.671875 467.267937,147.828125 456.945397,147.828125 C437.004127,147.828125 425.508571,132.828125 425.508571,117.828125 C425.508571,102.828125 437.23873,88.0625 456.945397,88.0625 C468.675556,88.0625 486.505397,97.90625 486.505397,119.9375 L486.505397,122.046875 L439.350159,122.046875 C440.053968,130.71875 448.265079,137.046875 456.710794,137.046875 C463.279683,137.046875 468.910159,133.765625 473.133016,128.140625 L483.455556,134 L483.455556,134 Z M472.194603,111.96875 C469.613968,103.296875 463.279683,98.609375 455.303175,98.609375 C447.56127,98.609375 441.226984,103.53125 439.115556,111.96875 L472.194603,111.96875 L472.194603,111.96875 Z" id="path3006" fill="#FFFFFF" sketch:type="MSShapeGroup"></path>
            <path d="M617.648571,146.421875 L617.648571,72.828125 L630.08254,72.828125 L630.08254,146.421875 L617.413968,146.421875" id="polyline3008" fill="#65696B" sketch:type="MSShapeGroup"></path>
            <path d="M641.578095,101.421875 L641.578095,89.9375 L648.61619,89.9375 L648.61619,74.46875 L660.815556,71.1875 L660.815556,89.9375 L670.434286,89.9375 L670.434286,101.421875 L660.815556,101.421875 L660.815556,146.421875 L648.61619,146.421875 L648.61619,101.421875 L641.578095,101.421875 Z" id="polygon3010" fill="#65696B" sketch:type="MSShapeGroup"></path>
            <path d="M725.566032,139.390625 L725.566032,139.390625 C721.343175,144.546875 714.305079,147.828125 706.563175,147.828125 C687.794921,147.828125 677.003175,132.59375 677.003175,118.0625 C677.003175,104 688.733333,88.0625 707.032381,88.0625 C715.478095,88.0625 722.046984,91.578125 725.096825,96.5 L725.331429,96.5 L725.331429,72.59375 L737.530794,72.59375 L737.530794,146.421875 L725.331429,146.421875 L725.331429,139.390625 L725.566032,139.390625 Z M708.205397,136.34375 C717.824127,136.34375 726.035238,128.140625 726.035238,118.0625 C726.035238,107.75 717.824127,99.546875 708.205397,99.546875 C698.352063,99.546875 690.140952,107.75 690.140952,118.0625 C690.140952,128.140625 698.352063,136.34375 708.205397,136.34375 L708.205397,136.34375 Z" id="path3012" fill="#65696B" sketch:type="MSShapeGroup"></path>
            <path d="M559.554773,0.586182031 C538.321934,0.586182031 521.138503,17.7529006 521.138503,38.9650883 C521.138503,57.6411148 534.53915,73.1590133 552.223423,76.6115727 L552.223423,87.5979008 C575.214755,84.1350055 595.57219,65.9021141 597.091281,41.968018 C598.005646,27.5616969 590.815751,12.8545843 578.689594,5.71313516 C577.995321,5.30425789 577.289942,4.89834828 576.563503,4.54126016 C575.823292,4.17740281 575.06319,3.82277984 574.290785,3.51586953 C574.045601,3.413405 573.805358,3.32045328 573.55765,3.22290078 C572.883032,2.9741082 572.202317,2.69394875 571.504872,2.49047891 C567.745762,1.25268383 563.727331,0.586182031 559.554773,0.586182031 L559.554773,0.586182031 Z" id="path3943" fill="#65696B" sketch:type="MSShapeGroup"></path>
            <path d="M567.47263,14.7951664 C566.158486,14.6605836 564.774693,15.117432 563.806955,16.2600102 C563.103146,17.1975102 562.663265,18.1057133 562.194058,19.0432133 C560.786439,22.3244633 561.255646,25.8400883 563.367074,28.4182133 C566.651519,27.7150883 569.437431,25.6203617 570.84505,22.3391117 C571.314257,21.4016117 571.578185,20.2004398 571.578185,19.2629398 C571.724812,16.7727055 569.662871,15.0194705 567.47263,14.7951664 L567.47263,14.7951664 Z M550.390586,15.014893 C548.248457,15.2185979 546.211717,16.9191898 546.211717,19.2629398 C546.211717,20.2004398 546.475646,21.4016117 546.944852,22.3391117 C548.352471,25.6203617 551.358324,27.7150883 554.642769,28.4182133 C556.519594,25.8400883 557.003463,22.3244633 555.595844,19.0432133 C555.126638,18.1057133 554.686757,17.1828617 553.982947,16.4797367 C553.015209,15.3371586 551.675864,14.8926702 550.390586,15.014893 L550.390586,15.014893 Z M538.880368,26.2941898 C535.1809,26.4838695 533.528483,31.1281742 536.60765,33.5451664 C537.546062,34.2482914 538.45515,34.7609867 539.393562,35.2297367 C542.678007,36.6359867 546.475646,36.1525883 549.290884,34.2775883 C548.587074,31.2307133 546.197054,28.4328617 542.91261,27.0266117 C541.739594,26.5578617 540.786519,26.2941898 539.613503,26.2941898 C539.349574,26.264893 539.126999,26.2815336 538.880368,26.2941898 L538.880368,26.2941898 Z M575.023919,40.5031742 C572.874917,40.4619711 570.698423,41.0891117 568.9389,42.2609867 C569.642709,45.3078617 572.032729,48.1057133 575.317173,49.5119633 C576.490189,49.9807133 577.443265,50.2443852 578.616281,50.2443852 C582.839138,50.4787602 584.906578,45.2639164 581.622134,42.9201664 C580.683721,42.2170414 579.774634,41.7775883 578.836221,41.3088383 C577.604554,40.7814945 576.31332,40.5278938 575.023919,40.5031742 L575.023919,40.5031742 Z M542.985923,40.7229008 C541.696522,40.7476273 540.405289,41.0012211 539.173622,41.5285648 C538.000606,41.9973148 537.091519,42.5100102 536.387709,43.2131352 C533.337868,45.7912602 535.390646,50.6984867 539.613503,50.4641117 C540.786519,50.4641117 541.974197,50.2004398 542.91261,49.7316898 C546.197054,48.3254398 548.528423,45.5275883 548.99763,42.4807133 C547.238106,41.3088383 545.134926,40.6817023 542.985923,40.7229008 L542.985923,40.7229008 Z M554.862709,47.9006352 C551.578265,48.6037602 548.792352,50.6984867 547.384733,53.9797367 C546.915527,54.9172367 546.651598,56.0451664 546.651598,56.9826664 C546.416995,60.9670414 551.856856,63.1057133 554.202888,60.0588383 C554.906697,59.1213383 555.346578,58.2131352 555.815785,57.2756352 C557.223404,54.2287602 556.739535,50.7131352 554.862709,47.9006352 L554.862709,47.9006352 Z M563.587015,48.1203617 C561.710189,50.6984867 561.22632,54.2141117 562.633939,57.4953617 C563.103146,58.4328617 563.543027,59.3557133 564.246836,60.0588383 C566.827471,62.8713383 572.252669,60.7912602 572.018066,57.2756352 C572.018066,56.3381352 571.754138,55.1369633 571.284931,54.1994633 C569.877312,50.9182133 566.871459,48.8234867 563.587015,48.1203617 L563.587015,48.1203617 Z" id="rect4005" fill="#FFFFFF" sketch:type="MSShapeGroup"></path>
        </g>
    </g>
</svg>