<?xml version="1.0" encoding="UTF-8" standalone="no"?>
<svg width="524px" height="181px" viewBox="0 0 524 181" version="1.1" xmlns="http://www.w3.org/2000/svg" xmlns:xlink="http://www.w3.org/1999/xlink" xmlns:sketch="http://www.bohemiancoding.com/sketch/ns">
    <!-- Generator: Sketch 3.3.3 (12072) - http://www.bohemiancoding.com/sketch -->
    <title>cukeup</title>
    <desc>Created with Sketch.</desc>
    <defs></defs>
    <g id="Logos" stroke="none" stroke-width="1" fill="none" fill-rule="evenodd" sketch:type="MSPage">
        <g id="cukeup" sketch:type="MSLayerGroup">
            <g id="mark" transform="translate(446.000000, 0.000000)" sketch:type="MSShapeGroup">
                <path d="M39.4582325,0.927170197 C18.1626212,0.927170197 0.928389048,18.2091017 0.928389048,39.563653 C0.928389048,58.365022 14.3686542,73.9870674 32.105209,77.4627983 L32.105209,88.5228602 C55.164512,85.036724 75.5821314,66.6814642 77.1057132,42.5867366 C78.0227823,28.0837288 70.8116309,13.2779107 58.649624,6.0885324 C57.9532986,5.676911 57.2458342,5.26827716 56.5172472,4.90879247 C55.7748483,4.54249313 55.0124986,4.18549014 54.2378099,3.87652003 C53.9919012,3.77336782 53.7509479,3.67979226 53.5025075,3.58158505 C52.8258952,3.33112272 52.1431676,3.049083 51.4436609,2.84424759 C47.6734375,1.59814516 43.6431265,0.927170197 39.4582325,0.927170197 L39.4582325,0.927170197 Z" id="path3943-copy" fill="#00A818"></path>
                <path d="M47.399498,15.2315169 C46.0814691,15.0960308 44.6935853,15.5559454 43.7229862,16.7061918 C43.0170959,17.6499837 42.5759145,18.5642822 42.105321,19.5080741 C40.6935405,22.811346 41.164134,26.3505658 43.2818048,28.9459936 C46.5759593,28.2381496 49.3701083,26.1293645 50.7818888,22.8260927 C51.2524823,21.8823008 51.5171912,20.6730673 51.5171912,19.7292754 C51.6642516,17.222328 49.5962143,15.4573264 47.399498,15.2315169 L47.399498,15.2315169 Z M30.2669531,15.4527181 C28.1184913,15.6577902 26.0757296,17.3697955 26.0757296,19.7292754 C26.0757296,20.6730673 26.3404385,21.8823008 26.811032,22.8260927 C28.2228125,26.1293645 31.2375522,28.2381496 34.5317067,28.9459936 C36.4140808,26.3505658 36.8993803,22.811346 35.4875998,19.5080741 C35.0170063,18.5642822 34.5758249,17.635237 33.8699346,16.927393 C32.8993355,15.7771466 31.556031,15.329675 30.2669531,15.4527181 L30.2669531,15.4527181 Z M18.7227061,26.807715 C15.0123014,26.9986677 13.3549989,31.6741422 16.4432688,34.1073558 C17.3844558,34.8151998 18.2962307,35.331336 19.2374177,35.803232 C22.5315723,37.2189199 26.3404385,36.7322772 29.1639995,34.8446933 C28.4581093,31.7773694 26.0610236,28.9607404 22.766869,27.5450524 C21.5903853,27.0731565 20.6344922,26.807715 19.4580084,26.807715 C19.1932996,26.7782215 18.9700665,26.7949738 18.7227061,26.807715 L18.7227061,26.807715 Z M54.9731122,41.1120617 C52.8177563,41.070582 50.6348283,41.7019316 48.8701027,42.8816716 C49.5759929,45.9489954 51.9730786,48.7656245 55.2672332,50.1813124 C56.4437169,50.6532084 57.39961,50.9186499 58.5760938,50.9186499 C62.8114353,51.1545978 64.884988,45.9047551 61.5908334,43.5452753 C60.6496464,42.8374313 59.7378715,42.3950288 58.7966845,41.9231329 C57.5613765,41.3922499 56.2663244,41.1369471 54.9731122,41.1120617 L54.9731122,41.1120617 Z M22.8403993,41.3332629 C21.5471862,41.3581554 20.252135,41.6134511 19.016827,42.1443341 C17.8403432,42.6162301 16.9285683,43.1323663 16.2226781,43.8402103 C13.1638203,46.4356381 15.2226669,51.3757991 19.4580084,51.1398511 C20.6344922,51.1398511 21.825682,50.8744096 22.766869,50.4025136 C26.0610236,48.9868257 28.3992851,46.1701966 28.8698786,43.1028728 C27.1051529,41.9231329 24.9957552,41.291788 22.8403993,41.3332629 L22.8403993,41.3332629 Z M34.7522974,48.55917 C31.4581429,49.2670139 28.6639939,51.3757991 27.2522134,54.6790709 C26.7816199,55.6228628 26.516911,56.7583625 26.516911,57.7021545 C26.2816143,61.7132702 31.7375578,63.8662956 34.0905253,60.7989718 C34.7964156,59.8551798 35.237597,58.9408814 35.7081905,57.9970895 C37.119971,54.9297656 36.6346715,51.3905458 34.7522974,48.55917 L34.7522974,48.55917 Z M43.5023955,48.7803712 C41.6200214,51.3757991 41.1347219,54.9150189 42.5465024,58.2182907 C43.0170959,59.1620826 43.4582773,60.0911278 44.1641676,60.7989718 C46.7524319,63.6303476 52.1936693,61.5363092 51.9583726,57.9970895 C51.9583726,57.0532975 51.6936637,55.8440641 51.2230702,54.9002721 C49.8112897,51.5970003 46.79655,49.4882152 43.5023955,48.7803712 L43.5023955,48.7803712 Z" id="rect4005-copy" fill="#FFFFFF"></path>
            </g>
            <path d="M61.192,139.288 C56.472,145.66 49.038,149.554 40.66,149.554 C27.326,149.554 15.29,138.344 15.29,123.948 C15.29,109.552 27.326,98.342 40.66,98.342 C49.038,98.342 56.236,102.236 60.956,109.08 L72.284,100.584 C64.024,90.2 52.46,85.362 40.66,85.362 C18.476,85.362 0.894,102.236 0.894,123.948 C0.894,145.66 18.476,162.534 40.66,162.534 C52.46,162.534 64.024,157.696 72.284,147.312 L61.192,139.288 Z M83.494,136.928 C83.494,152.976 96.002,162.534 109.572,162.534 C123.142,162.534 135.65,152.976 135.65,136.928 L135.65,103.888 L123.378,103.888 L123.378,135.866 C123.378,144.244 117.242,150.262 109.572,150.262 C101.902,150.262 95.766,144.244 95.766,135.866 L95.766,103.888 L83.494,103.888 L83.494,136.928 Z M153.114,161 L165.386,161 L165.386,137.164 L172.82,137.164 L187.924,161 L202.438,161 L182.142,130.792 L201.494,103.888 L186.626,103.888 L171.64,125.6 L165.386,125.6 L165.386,86.896 L153.114,86.896 L153.114,125.6 L145.09,125.6 L145.09,137.164 L153.114,137.164 L153.114,161 Z M254.594,142.828 C250.346,148.492 244.682,151.678 238.074,151.678 C229.46,151.678 221.318,145.424 220.61,136.692 L268.046,136.692 L268.046,134.45 C268.046,112.148 250.346,102.354 238.428,102.354 C218.486,102.354 206.922,117.34 206.922,132.444 C206.922,147.548 218.486,162.534 238.428,162.534 C248.694,162.416 258.134,157.224 264.978,148.61 L254.594,142.828 Z M220.61,126.544 C222.616,118.048 228.988,113.21 236.776,113.21 C244.564,113.21 251.054,117.812 253.65,126.544 L220.61,126.544 Z M281.144,130.792 C281.144,147.902 294.242,162.534 314.066,162.534 C333.89,162.534 346.988,147.902 346.988,130.792 L346.988,86.896 L333.3,86.896 L333.3,127.842 C333.3,141.412 324.804,149.554 314.066,149.554 C303.446,149.554 294.832,141.412 294.832,127.842 L294.832,86.896 L281.144,86.896 L281.144,130.792 Z M375.662,103.888 L363.39,103.888 L363.39,180.706 L375.662,180.706 L375.662,154.038 L375.898,154.038 C379.084,158.876 385.574,162.534 394.07,162.534 C412.596,162.534 424.278,146.486 424.278,132.444 C424.278,117.694 413.422,102.354 394.66,102.354 C386.872,102.354 380.264,105.422 375.898,110.85 L375.662,110.85 L375.662,103.888 Z M411.298,132.444 C411.298,142.71 403.038,150.97 393.126,150.97 C383.45,150.97 375.19,142.71 375.19,132.444 C375.19,122.178 383.45,113.918 393.126,113.918 C403.038,113.918 411.298,122.178 411.298,132.444 L411.298,132.444 Z M439.028,141.884 L449.412,141.884 L452.48,86.896 L435.96,86.896 L439.028,141.884 Z M437.022,155.336 C437.022,159.348 440.208,162.534 444.22,162.534 C448.232,162.534 451.418,159.348 451.418,155.336 C451.418,151.324 448.232,148.138 444.22,148.138 C440.208,148.138 437.022,151.324 437.022,155.336 L437.022,155.336 Z" id="CukeUp!" fill="#FFFFFF" sketch:type="MSShapeGroup"></path>
        </g>
    </g>
</svg>