<?xml version="1.0" encoding="UTF-8" standalone="no"?>
<svg width="524px" height="181px" viewBox="0 0 524 181" version="1.1" xmlns="http://www.w3.org/2000/svg" xmlns:xlink="http://www.w3.org/1999/xlink" xmlns:sketch="http://www.bohemiancoding.com/sketch/ns">
    <!-- Generator: Sketch 3.3.3 (12072) - http://www.bohemiancoding.com/sketch -->
    <title>cukeup</title>
    <desc>Created with Sketch.</desc>
    <defs></defs>
    <g id="Logos" stroke="none" stroke-width="1" fill="none" fill-rule="evenodd" sketch:type="MSPage">
        <g id="cukeup" sketch:type="MSLayerGroup" transform="translate(-3.000000, 0.000000)">
            <g id="mark" transform="translate(449.000000, 0.000000)" sketch:type="MSShapeGroup">
                <path d="M39.4582325,0.927170197 C18.1626212,0.927170197 0.928389048,18.2091017 0.928389048,39.563653 C0.928389048,58.365022 14.3686542,73.9870674 32.105209,77.4627983 L32.105209,88.5228602 C55.164512,85.036724 75.5821314,66.6814642 77.1057132,42.5867366 C78.0227823,28.0837288 70.8116309,13.2779107 58.649624,6.0885324 C57.9532986,5.676911 57.2458342,5.26827716 56.5172472,4.90879247 C55.7748483,4.54249313 55.0124986,4.18549014 54.2378099,3.87652003 C53.9919012,3.77336782 53.7509479,3.67979226 53.5025075,3.58158505 C52.8258952,3.33112272 52.1431676,3.049083 51.4436609,2.84424759 C47.6734375,1.59814516 43.6431265,0.927170197 39.4582325,0.927170197 L39.4582325,0.927170197 Z" id="path3943-copy" fill="#00A818"></path>
                <path d="M47.399498,15.2315169 C46.0814691,15.0960308 44.6935853,15.5559454 43.7229862,16.7061918 C43.0170959,17.6499837 42.5759145,18.5642822 42.105321,19.5080741 C40.6935405,22.811346 41.164134,26.3505658 43.2818048,28.9459936 C46.5759593,28.2381496 49.3701083,26.1293645 50.7818888,22.8260927 C51.2524823,21.8823008 51.5171912,20.6730673 51.5171912,19.7292754 C51.6642516,17.222328 49.5962143,15.4573264 47.399498,15.2315169 L47.399498,15.2315169 Z M30.2669531,15.4527181 C28.1184913,15.6577902 26.0757296,17.3697955 26.0757296,19.7292754 C26.0757296,20.6730673 26.3404385,21.8823008 26.811032,22.8260927 C28.2228125,26.1293645 31.2375522,28.2381496 34.5317067,28.9459936 C36.4140808,26.3505658 36.8993803,22.811346 35.4875998,19.5080741 C35.0170063,18.5642822 34.5758249,17.635237 33.8699346,16.927393 C32.8993355,15.7771466 31.556031,15.329675 30.2669531,15.4527181 L30.2669531,15.4527181 Z M18.7227061,26.807715 C15.0123014,26.9986677 13.3549989,31.6741422 16.4432688,34.1073558 C17.3844558,34.8151998 18.2962307,35.331336 19.2374177,35.803232 C22.5315723,37.2189199 26.3404385,36.7322772 29.1639995,34.8446933 C28.4581093,31.7773694 26.0610236,28.9607404 22.766869,27.5450524 C21.5903853,27.0731565 20.6344922,26.807715 19.4580084,26.807715 C19.1932996,26.7782215 18.9700665,26.7949738 18.7227061,26.807715 L18.7227061,26.807715 Z M54.9731122,41.1120617 C52.8177563,41.070582 50.6348283,41.7019316 48.8701027,42.8816716 C49.5759929,45.9489954 51.9730786,48.7656245 55.2672332,50.1813124 C56.4437169,50.6532084 57.39961,50.9186499 58.5760938,50.9186499 C62.8114353,51.1545978 64.884988,45.9047551 61.5908334,43.5452753 C60.6496464,42.8374313 59.7378715,42.3950288 58.7966845,41.9231329 C57.5613765,41.3922499 56.2663244,41.1369471 54.9731122,41.1120617 L54.9731122,41.1120617 Z M22.8403993,41.3332629 C21.5471862,41.3581554 20.252135,41.6134511 19.016827,42.1443341 C17.8403432,42.6162301 16.9285683,43.1323663 16.2226781,43.8402103 C13.1638203,46.4356381 15.2226669,51.3757991 19.4580084,51.1398511 C20.6344922,51.1398511 21.825682,50.8744096 22.766869,50.4025136 C26.0610236,48.9868257 28.3992851,46.1701966 28.8698786,43.1028728 C27.1051529,41.9231329 24.9957552,41.291788 22.8403993,41.3332629 L22.8403993,41.3332629 Z M34.7522974,48.55917 C31.4581429,49.2670139 28.6639939,51.3757991 27.2522134,54.6790709 C26.7816199,55.6228628 26.516911,56.7583625 26.516911,57.7021545 C26.2816143,61.7132702 31.7375578,63.8662956 34.0905253,60.7989718 C34.7964156,59.8551798 35.237597,58.9408814 35.7081905,57.9970895 C37.119971,54.9297656 36.6346715,51.3905458 34.7522974,48.55917 L34.7522974,48.55917 Z M43.5023955,48.7803712 C41.6200214,51.3757991 41.1347219,54.9150189 42.5465024,58.2182907 C43.0170959,59.1620826 43.4582773,60.0911278 44.1641676,60.7989718 C46.7524319,63.6303476 52.1936693,61.5363092 51.9583726,57.9970895 C51.9583726,57.0532975 51.6936637,55.8440641 51.2230702,54.9002721 C49.8112897,51.5970003 46.79655,49.4882152 43.5023955,48.7803712 L43.5023955,48.7803712 Z" id="rect4005-copy" fill="#FFFFFF"></path>
            </g>
            <text id="CukeUp!" sketch:type="MSTextLayer" font-family="Insignia LT Std" font-size="118" font-weight="normal" fill="#FFFFFF">
                <tspan x="0" y="161">CukeUp!</tspan>
            </text>
        </g>
    </g>
</svg>