<?xml version="1.0" encoding="UTF-8" standalone="no"?>
<svg width="3191px" height="791px" viewBox="0 0 3191 791" version="1.1" xmlns="http://www.w3.org/2000/svg" xmlns:xlink="http://www.w3.org/1999/xlink" xmlns:sketch="http://www.bohemiancoding.com/sketch/ns">
    <!-- Generator: Sketch 3.3.3 (12072) - http://www.bohemiancoding.com/sketch -->
    <title>cucumber 2</title>
    <desc>Created with Sketch.</desc>
    <defs></defs>
    <g id="Logos" stroke="none" stroke-width="1" fill="none" fill-rule="evenodd" sketch:type="MSPage">
        <g id="cucumber-2" sketch:type="MSLayerGroup" transform="translate(0.000000, -4.000000)">
            <g id="g6053" sketch:type="MSShapeGroup">
                <path d="M2798.75472,464.010067 C2761.10331,464.010067 2737.25742,482.885906 2719.68676,511.828859 C2719.68676,504.278523 2723.4519,495.469799 2723.4519,489.177852 L2723.4519,476.59396 L2660.69956,476.59396 L2660.69956,791.191275 L2723.4519,791.191275 L2723.4519,609.983221 C2723.4519,558.389262 2751.06294,526.92953 2798.75472,526.92953 L2811.30519,526.92953 L2811.30519,464.010067 L2798.75472,464.010067 L2798.75472,464.010067 Z" id="path5443" fill="#000000"></path>
                <path d="M247.244251,579.781879 C229.673594,552.097315 204.572654,533.221477 168.176293,533.221477 C110.444132,533.221477 69.0275828,577.265101 69.0275828,632.634228 C69.0275828,688.003356 110.444132,732.04698 168.176293,732.04698 C204.572654,732.04698 229.673594,714.42953 247.244251,686.744966 L304.976411,720.721477 C277.365378,763.506711 225.908453,794.966443 168.176293,794.966443 C61.497301,794.966443 5.68434189e-14,714.42953 5.68434189e-14,633.892617 C5.68434189e-14,553.355705 62.752348,472.818792 168.176293,472.818792 C233.438735,472.818792 274.855284,504.278523 304.976411,547.063758 L247.244251,579.781879 L247.244251,579.781879 Z" id="path5445" fill="#000000"></path>
                <path d="M360.198478,480.369128 L425.460919,480.369128 L425.460919,651.510067 C425.460919,696.812081 458.09214,728.271812 499.50869,728.271812 C539.670193,728.271812 573.556461,695.553691 573.556461,651.510067 L573.556461,480.369128 L638.818903,480.369128 L638.818903,656.543624 C638.818903,742.114094 572.301414,793.708054 499.50869,793.708054 C426.715966,793.708054 360.198478,742.114094 360.198478,656.543624 L360.198478,480.369128 L360.198478,480.369128 Z" id="path5447" fill="#000000"></path>
                <path d="M945.050361,579.781879 C927.479703,552.097315 902.378764,533.221477 865.982402,533.221477 C808.250242,533.221477 766.833693,577.265101 766.833693,632.634228 C766.833693,688.003356 808.250242,732.04698 865.982402,732.04698 C902.378764,732.04698 927.479703,714.42953 945.050361,686.744966 L1002.78252,720.721477 C975.171488,763.506711 923.714563,794.966443 865.982402,794.966443 C759.303411,794.966443 697.80611,714.42953 697.80611,633.892617 C697.80611,553.355705 759.303411,472.818792 865.982402,472.818792 C931.244844,472.818792 972.661394,504.278523 1002.78252,547.063758 L945.050361,579.781879 L945.050361,579.781879 Z" id="path5449" fill="#000000"></path>
                <path d="M1058.00459,480.369128 L1123.26703,480.369128 L1123.26703,651.510067 C1123.26703,696.812081 1155.89825,728.271812 1197.3148,728.271812 C1237.4763,728.271812 1271.36257,695.553691 1271.36257,651.510067 L1271.36257,480.369128 L1336.62501,480.369128 L1336.62501,656.543624 C1336.62501,742.114094 1270.10752,793.708054 1197.3148,793.708054 C1124.52208,793.708054 1058.00459,742.114094 1058.00459,656.543624 L1058.00459,480.369128 L1058.00459,480.369128 Z" id="path5451" fill="#000000"></path>
                <path d="M1418.20306,594.88255 C1418.20306,516.862416 1469.65999,472.818792 1529.90224,472.818792 C1576.33898,472.818792 1608.9702,495.469799 1621.52067,526.92953 L1622.77572,526.92953 C1635.32619,494.211409 1667.95741,472.818792 1714.39415,472.818792 C1774.6364,472.818792 1826.09333,518.120805 1826.09333,594.88255 L1826.09333,786.157718 L1760.83088,786.157718 L1760.83088,594.88255 C1760.83088,558.389262 1738.24004,536.996644 1710.62901,536.996644 C1679.25283,536.996644 1656.66199,555.872483 1656.66199,603.691275 L1656.66199,784.899329 L1591.39955,784.899329 L1591.39955,603.691275 C1591.39955,555.872483 1568.8087,536.996644 1537.43253,536.996644 C1509.82149,536.996644 1487.23065,558.389262 1487.23065,594.88255 L1487.23065,784.899329 L1418.20306,784.899329 L1418.20306,594.88255 L1418.20306,594.88255 Z" id="path5453" fill="#000000"></path>
                <path d="M1906.41633,389.765101 L1971.67877,389.765101 L1971.67877,518.120805 L1972.93382,518.120805 C1987.99438,492.95302 2029.41093,472.818792 2072.08253,472.818792 C2151.15049,472.818792 2230.21845,531.963087 2230.21845,633.892617 C2230.21845,735.822148 2151.15049,794.966443 2072.08253,794.966443 C2029.41093,794.966443 1987.99438,774.832215 1972.93382,749.66443 L1971.67877,749.66443 L1971.67877,787.416107 L1906.41633,787.416107 L1906.41633,389.765101 L1906.41633,389.765101 Z M2065.8073,534.479866 C2011.84028,534.479866 1971.67877,577.265101 1971.67877,633.892617 C1971.67877,690.520134 2011.84028,733.305369 2065.8073,733.305369 C2121.02936,733.305369 2161.19087,690.520134 2161.19087,633.892617 C2161.19087,576.006711 2121.02936,534.479866 2065.8073,534.479866 L2065.8073,534.479866 Z" id="path5455" fill="#000000"></path>
                <path d="M2581.6316,719.463087 C2545.23523,766.02349 2495.03336,793.708054 2439.81129,793.708054 C2333.1323,793.708054 2271.635,713.171141 2271.635,632.634228 C2271.635,552.097315 2334.38735,472.818792 2439.81129,472.818792 C2502.56364,472.818792 2597.94721,525.671141 2597.94721,643.959732 L2597.94721,655.285235 L2345.68277,655.285235 C2349.44791,701.845638 2393.37455,735.822148 2438.55624,735.822148 C2473.69756,735.822148 2503.81869,718.204698 2526.40953,688.003356 L2581.6316,719.463087 L2581.6316,719.463087 Z M2521.38934,601.174497 C2507.58383,554.614094 2473.69756,529.446309 2431.02596,529.446309 C2389.60941,529.446309 2355.72314,555.872483 2344.42772,601.174497 L2521.38934,601.174497 L2521.38934,601.174497 Z" id="path5457" fill="#000000"></path>
                <path d="M2989.42246,4.94490772 C2875.83401,4.94490772 2783.90852,97.1152089 2783.90852,211.006149 C2783.90852,311.280117 2855.59741,394.597693 2950.20224,413.134924 L2950.20224,472.121921 C3073.19802,453.529195 3182.10336,355.634476 3190.22997,227.129262 C3195.12152,149.779887 3156.65803,70.8155239 3091.78723,32.4721728 C3088.0731,30.2768586 3084.29957,28.0974782 3080.41336,26.1802265 C3076.45349,24.22663 3072.3872,22.3226141 3068.2551,20.6747735 C3066.94345,20.1246284 3065.65823,19.6255587 3064.33307,19.1017869 C3060.7241,17.7659878 3057.0825,16.261776 3053.35141,15.1693205 C3033.24146,8.52344086 3011.74422,4.94490772 2989.42246,4.94490772 L2989.42246,4.94490772 Z" id="path3943" fill="#00A818"></path>
                <path d="M3031.78029,81.2347567 C3024.75007,80.5121644 3017.34725,82.9650419 3012.17019,89.0996896 C3008.40504,94.1332466 3006.05183,99.009505 3003.54174,104.043062 C2996.01146,121.660512 2998.52155,140.536351 3009.81697,154.378633 C3027.38763,150.603465 3042.29131,139.356611 3049.82159,121.739161 C3052.33169,116.705604 3053.74362,110.256359 3053.74362,105.222802 C3054.52802,91.8524161 3043.49734,82.4390742 3031.78029,81.2347567 L3031.78029,81.2347567 Z M2940.39719,82.4144966 C2928.93753,83.5082143 2918.04166,92.6389094 2918.04166,105.222802 C2918.04166,110.256359 2919.45359,116.705604 2921.96368,121.739161 C2929.49397,139.356611 2945.57426,150.603465 2963.14491,154.378633 C2973.18529,140.536351 2975.77382,121.660512 2968.24354,104.043062 C2965.73345,99.009505 2963.38023,94.0545973 2959.61509,90.2794295 C2954.43802,84.1447819 2947.27299,81.7582668 2940.39719,82.4144966 L2940.39719,82.4144966 Z M2878.82145,142.97448 C2859.03056,143.992894 2850.19069,168.928758 2866.66318,181.905898 C2871.68337,185.681065 2876.54667,188.433792 2881.56686,190.95057 C2899.13752,198.500906 2919.45359,195.905478 2934.51415,185.838364 C2930.74901,169.479304 2917.96322,154.457282 2900.39257,146.906946 C2894.11733,144.390168 2889.0187,142.97448 2882.74347,142.97448 C2881.33154,142.817181 2880.14084,142.906527 2878.82145,142.97448 L2878.82145,142.97448 Z M3072.17712,219.264329 C3060.68069,219.043104 3049.03719,222.410302 3039.62434,228.702248 C3043.38948,245.061309 3056.17527,260.083331 3073.74593,267.633666 C3080.02116,270.150445 3085.11979,271.566133 3091.39502,271.566133 C3113.98587,272.824522 3125.04597,244.825361 3107.47531,232.241468 C3102.45513,228.4663 3097.59182,226.10682 3092.57163,223.590042 C3085.98263,220.758666 3079.07497,219.397051 3072.17712,219.264329 L3072.17712,219.264329 Z M2900.78477,220.444069 C2893.88691,220.576829 2886.97925,221.938406 2880.39025,224.769782 C2874.11502,227.28656 2869.25171,230.039287 2865.48657,233.814455 C2849.17096,247.656737 2860.15262,274.004262 2882.74347,272.745872 C2889.0187,272.745872 2895.37238,271.330185 2900.39257,268.813406 C2917.96322,261.26307 2930.43525,246.241049 2932.94535,229.881988 C2923.53249,223.590042 2912.2812,220.222869 2900.78477,220.444069 L2900.78477,220.444069 Z M2964.32152,258.98224 C2946.75086,262.757408 2931.84718,274.004262 2924.3169,291.621711 C2921.8068,296.655268 2920.39488,302.711267 2920.39488,307.744824 C2919.13983,329.137441 2948.24123,340.620243 2960.7917,324.261183 C2964.55684,319.227626 2966.91005,314.351367 2969.42015,309.31781 C2976.95043,292.95875 2974.3619,274.082911 2964.32152,258.98224 L2964.32152,258.98224 Z M3010.99358,260.16198 C3000.9532,274.004262 2998.36467,292.880101 3005.89495,310.49755 C3008.40504,315.531107 3010.75826,320.486015 3014.5234,324.261183 C3028.32891,339.361854 3057.35188,328.193649 3056.09683,309.31781 C3056.09683,304.284253 3054.6849,297.835008 3052.17481,292.801451 C3044.64453,275.184002 3028.56424,263.937148 3010.99358,260.16198 L3010.99358,260.16198 Z" id="rect4005" fill="#FFFFFF"></path>
            </g>
        </g>
    </g>
</svg>