<?xml version="1.0" encoding="UTF-8" standalone="no"?>
<svg width="27px" height="32px" viewBox="0 0 27 32" version="1.1" xmlns="http://www.w3.org/2000/svg" xmlns:xlink="http://www.w3.org/1999/xlink" xmlns:sketch="http://www.bohemiancoding.com/sketch/ns">
    <!-- Generator: Sketch 3.2.2 (9983) - http://www.bohemiancoding.com/sketch -->
    <title>rect4005</title>
    <desc>Created with Sketch.</desc>
    <defs></defs>
    <g id="Page-1" stroke="none" stroke-width="1" fill="none" fill-rule="evenodd" sketch:type="MSPage">
        <g id="Artboard-2" sketch:type="MSArtboardGroup" transform="translate(-17.000000, -14.000000)" fill="#FFFFFF">
            <g id="rect4005" sketch:type="MSLayerGroup" transform="translate(17.000000, 14.000000)">
                <path d="M13.4488636,0.473684211 C6.04388176,0.473684211 0.0511363636,6.64165608 0.0511363636,14.2631579 C0.0511363636,20.9734215 4.72463075,26.5489752 10.8920455,27.7894737 L10.8920455,31.7368421 C18.9103042,30.4926299 26.0099877,23.941584 26.5397727,15.3421053 C26.8586591,10.1659394 24.3511732,4.88169962 20.1221591,2.31578947 C19.8800305,2.16888059 19.6340285,2.02303798 19.3806818,1.89473684 C19.1225324,1.76400354 18.8574455,1.63658813 18.5880682,1.52631579 C18.50256,1.48950046 18.4187749,1.45610307 18.3323864,1.42105263 C18.0971125,1.33166189 17.8597121,1.23100109 17.6164773,1.15789474 C16.3054825,0.713157137 14.9040491,0.473684211 13.4488636,0.473684211 L13.4488636,0.473684211 Z M16.2102273,5.57894737 C15.7519178,5.53059208 15.2693182,5.69473684 14.9318182,6.10526316 C14.6863636,6.44210526 14.5329545,6.76842105 14.3693182,7.10526316 C13.8784091,8.28421053 14.0420455,9.54736842 14.7784091,10.4736842 C15.9238636,10.2210526 16.8954545,9.46842105 17.3863636,8.28947368 C17.55,7.95263158 17.6420455,7.52105263 17.6420455,7.18421053 C17.6931818,6.28947368 16.9740769,5.65953945 16.2102273,5.57894737 L16.2102273,5.57894737 Z M10.2528409,5.65789474 C9.50577055,5.73108556 8.79545455,6.34210526 8.79545455,7.18421053 C8.79545455,7.52105263 8.8875,7.95263158 9.05113636,8.28947368 C9.54204545,9.46842105 10.5903409,10.2210526 11.7357955,10.4736842 C12.3903409,9.54736842 12.5590909,8.28421053 12.0681818,7.10526316 C11.9045455,6.76842105 11.7511364,6.43684211 11.5056818,6.18421053 C11.1681818,5.77368421 10.7010835,5.61398029 10.2528409,5.65789474 L10.2528409,5.65789474 Z M6.23863636,9.71052632 C4.94844194,9.77868042 4.37215909,11.4473684 5.44602273,12.3157895 C5.77329545,12.5684211 6.09034091,12.7526316 6.41761364,12.9210526 C7.56306818,13.4263158 8.8875,13.2526316 9.86931818,12.5789474 C9.62386364,11.4842105 8.79034091,10.4789474 7.64488636,9.97368421 C7.23579545,9.80526316 6.90340909,9.71052632 6.49431818,9.71052632 C6.40227273,9.7 6.32464936,9.70598232 6.23863636,9.71052632 L6.23863636,9.71052632 Z M18.84375,14.8157895 C18.0942824,14.8009869 17.3352273,15.0263158 16.7215909,15.4473684 C16.9670455,16.5421053 17.8005682,17.5473684 18.9460227,18.0526316 C19.3551136,18.2210526 19.6875,18.3157895 20.0965909,18.3157895 C21.5693182,18.4 22.2903409,16.5263158 21.1448864,15.6842105 C20.8176136,15.4315789 20.5005682,15.2736842 20.1732955,15.1052632 C19.74375,14.9157895 19.2934301,14.8246712 18.84375,14.8157895 L18.84375,14.8157895 Z M7.67045455,14.8947368 C7.22077413,14.9036185 6.77045455,14.9947368 6.34090909,15.1842105 C5.93181818,15.3526316 5.61477273,15.5368421 5.36931818,15.7894737 C4.30568182,16.7157895 5.02159091,18.4789474 6.49431818,18.3947368 C6.90340909,18.3947368 7.31761364,18.3 7.64488636,18.1315789 C8.79034091,17.6263158 9.60340909,16.6210526 9.76704545,15.5263158 C9.15340909,15.1052632 8.41992218,14.8799343 7.67045455,14.8947368 L7.67045455,14.8947368 Z M11.8125,17.4736842 C10.6670455,17.7263158 9.69545455,18.4789474 9.20454545,19.6578947 C9.04090909,19.9947368 8.94886364,20.4 8.94886364,20.7368421 C8.86704545,22.1684211 10.7642045,22.9368421 11.5823864,21.8421053 C11.8278409,21.5052632 11.98125,21.1789474 12.1448864,20.8421053 C12.6357955,19.7473684 12.4670455,18.4842105 11.8125,17.4736842 L11.8125,17.4736842 Z M14.8551136,17.5526316 C14.2005682,18.4789474 14.0318182,19.7421053 14.5227273,20.9210526 C14.6863636,21.2578947 14.8397727,21.5894737 15.0852273,21.8421053 C15.9852273,22.8526316 17.8772727,22.1052632 17.7954545,20.8421053 C17.7954545,20.5052632 17.7034091,20.0736842 17.5397727,19.7368421 C17.0488636,18.5578947 16.0005682,17.8052632 14.8551136,17.5526316 L14.8551136,17.5526316 Z" sketch:type="MSShapeGroup"></path>
            </g>
        </g>
    </g>
</svg>