<?xml version="1.0" encoding="utf-8"?>
<!-- Generator: Adobe Illustrator 22.0.1, SVG Export Plug-In . SVG Version: 6.00 Build 0)  -->
<!DOCTYPE svg PUBLIC "-//W3C//DTD SVG 1.1//EN" "http://www.w3.org/Graphics/SVG/1.1/DTD/svg11.dtd">
<svg version="1.1" id="Layer_1" xmlns="http://www.w3.org/2000/svg" xmlns:xlink="http://www.w3.org/1999/xlink" x="0px" y="0px"
	 width="786.7px" height="147.5px" viewBox="0 0 786.7 147.5" style="enable-background:new 0 0 786.7 147.5;" xml:space="preserve"
	>
<style type="text/css">
	.st0{fill:#CEF257;}
	.st1{clip-path:url(#SVGID_1_);}
</style>
<g>
	<polygon class="st0" points="69.3,110.4 29.1,131.6 36.8,86.8 4.2,55 49.2,48.5 69.3,7.7 89.5,48.5 134.4,55 101.9,86.8 
		109.6,131.6 	"/>
	<path class="st0" d="M69.3,11.1l19.1,38.7l42.8,6.2l-30.9,30.2l7.3,42.6l-38.2-20.1l-38.2,20.1l7.3-42.6L7.4,56.1l42.8-6.2
		L69.3,11.1 M69.3,4.3l-2.7,5.5L48.2,47.1L7,53.1L1,54l4.4,4.2l29.8,29.1l-7,41l-1,6l5.4-2.8l36.9-19.4l36.9,19.4l5.4,2.8l-1-6
		l-7-41l29.8-29.1l4.4-4.2l-6-0.9l-41.2-6L72,9.8L69.3,4.3L69.3,4.3z"/>
</g>
<g>
	<polygon class="st0" points="231,110.4 190.8,131.6 198.5,86.8 165.9,55 210.9,48.5 231,7.7 251.2,48.5 296.1,55 263.6,86.8 
		271.3,131.6 	"/>
	<path class="st0" d="M231,11.1l19.1,38.7l42.8,6.2L262,86.2l7.3,42.6L231,108.7l-38.2,20.1l7.3-42.6l-30.9-30.2l42.8-6.2L231,11.1
		 M231,4.3l-2.7,5.5l-18.4,37.3l-41.2,6l-6,0.9l4.4,4.2l29.8,29.1l-7,41l-1,6l5.4-2.8l36.9-19.4l36.9,19.4l5.4,2.8l-1-6l-7-41
		L295,58.2l4.4-4.2l-6-0.9l-41.2-6L233.7,9.8L231,4.3L231,4.3z"/>
</g>
<g>
	<polygon class="st0" points="392.7,110.4 352.5,131.6 360.2,86.8 327.6,55 372.6,48.5 392.7,7.7 412.9,48.5 457.9,55 425.3,86.8 
		433,131.6 	"/>
	<path class="st0" d="M392.7,11.1l19.1,38.7l42.8,6.2l-30.9,30.2l7.3,42.6l-38.2-20.1l-38.2,20.1l7.3-42.6l-30.9-30.2l42.8-6.2
		L392.7,11.1 M392.7,4.3l-2.7,5.5l-18.4,37.3l-41.2,6l-6,0.9l4.4,4.2l29.8,29.1l-7,41l-1,6l5.4-2.8l36.9-19.4l36.9,19.4l5.4,2.8
		l-1-6l-7-41l29.8-29.1l4.4-4.2l-6-0.9l-41.2-6L395.4,9.8L392.7,4.3L392.7,4.3z"/>
</g>
<g>
	<polygon class="st0" points="554.5,110.4 514.2,131.6 521.9,86.8 489.3,55 534.3,48.5 554.5,7.7 574.6,48.5 619.6,55 587,86.8 
		594.7,131.6 	"/>
	<path class="st0" d="M554.5,11.1l19.1,38.7l42.8,6.2l-30.9,30.2l7.3,42.6l-38.2-20.1l-38.2,20.1l7.3-42.6l-30.9-30.2l42.8-6.2
		L554.5,11.1 M554.5,4.3l-2.7,5.5l-18.4,37.3l-41.2,6l-6,0.9l4.4,4.2l29.8,29.1l-7,41l-1,6l5.4-2.8l36.9-19.4l36.9,19.4l5.4,2.8
		l-1-6l-7-41l29.8-29.1l4.4-4.2l-6-0.9l-41.2-6L557.1,9.8L554.5,4.3L554.5,4.3z"/>
</g>
<g>
	<g>
		<defs>
			<rect id="SVGID_3_" x="644.7" y="65.8" width="143" height="97.3"/>
		</defs>
		<clipPath id="SVGID_1_">
			<use xlink:href="#SVGID_3_"  style="overflow:visible;"/>
		</clipPath>
		<g class="st1">
			<polygon class="st0" points="716.2,110.4 675.9,131.6 683.6,86.8 651.1,55 696,48.5 716.2,7.7 736.3,48.5 781.3,55 748.7,86.8 
				756.4,131.6 			"/>
			<path class="st0" d="M716.2,11.1l19.1,38.7l42.8,6.2l-30.9,30.2l7.3,42.6l-38.2-20.1l-38.2,20.1l7.3-42.6l-30.9-30.2l42.8-6.2
				L716.2,11.1 M716.2,4.3l-2.7,5.5L695,47.1l-41.2,6l-6,0.9l4.4,4.2L682,87.3l-7,41l-1,6l5.4-2.8l36.9-19.4l36.9,19.4l5.4,2.8l-1-6
				l-7-41l29.8-29.1l4.4-4.2l-6-0.9l-41.2-6L718.9,9.8L716.2,4.3L716.2,4.3z"/>
		</g>
	</g>
	<path class="st0" d="M716.2,11.1l19.1,38.7l42.8,6.2l-30.9,30.2l7.3,42.6l-38.2-20.1l-38.2,20.1l7.3-42.6l-30.9-30.2l42.8-6.2
		L716.2,11.1 M716.2,4.3l-2.7,5.5L695,47.1l-41.2,6l-6,0.9l4.4,4.2L682,87.3l-7,41l-1,6l5.4-2.8l36.9-19.4l36.9,19.4l5.4,2.8l-1-6
		l-7-41l29.8-29.1l4.4-4.2l-6-0.9l-41.2-6L718.9,9.8L716.2,4.3L716.2,4.3z"/>
</g>
</svg>
